
<svg xmlns="http://www.w3.org/2000/svg" fill="none" xmlns:xlink="http://www.w3.org/1999/xlink" width="14" height="13.12" viewBox="0 0 14 13.12">
    <!--Created with Nila (0.3.7-beta.2)-->
    <defs>
        <linearGradient x2="100.0%" id="linearGradient1" x1="0.0%" y1="50.46963%" y2="50.46963%">
            <stop offset="0.0%" stop-opacity="1.0" stop-color="#0063F3"></stop>
            <stop offset="100.0%" stop-opacity="1.0" stop-color="#00CFAF"></stop>
            <stop offset="100.0%" stop-opacity="1.0" stop-color="#00CFAF"></stop>
        </linearGradient>
    </defs>
    <path d="M 10.5 0.01 C 10.43 0 10.36 0 10.29 0 C 9.53 0 8.82 0.26 8.21 0.75 C 7.72 1.17 7.29 1.69 6.98 2.3 C 6.68 1.72 6.28 1.2 5.79 0.75 C 5.21 0.26 4.47 0 3.71 0 C 1.59 0 0 1.85 0 4.28 C 0 6.91 1.99 8.72 5.02 11.44 C 5.54 11.9 6.13 12.42 6.71 13 C 6.86 13.16 7.11 13.16 7.29 13 C 7.9 12.45 8.49 11.93 8.98 11.44 C 9.52 10.95 10.03 10.5 10.5 10.06 C 12.66 8.05 14 6.46 14 4.28 C 14 1.93 12.51 0.12 10.5 0.01 Z" fill-rule="nonzero" fill="url(#linearGradient1)"></path>
</svg>