<?xml version="1.0" encoding="UTF-8"?><svg id="Layer_1" xmlns="http://www.w3.org/2000/svg" xmlns:xlink="http://www.w3.org/1999/xlink" viewBox="0 0 120.05 106.35"><defs><linearGradient id="linear-gradient" x1="60.2" y1="105.89" x2="59.94" y2="1.55" gradientUnits="userSpaceOnUse"><stop offset="0" stop-color="#0063f4"/><stop offset="1" stop-color="#00d2ad"/><stop offset="1" stop-color="#00d0b0"/></linearGradient></defs><path d="M90.07,.05c-.6-.03-1.2-.05-1.81-.05-6.57,0-12.6,2.11-17.86,6.05-4.21,3.42-7.89,7.62-10.5,12.61-2.63-4.74-6.05-8.93-10.25-12.61C44.65,2.11,38.35,0,31.78,0,13.65,0,0,14.98,0,34.69c0,21.28,17.07,35.99,43.08,58.06,4.46,3.68,9.46,7.89,14.45,12.62,1.31,1.31,3.41,1.31,4.98,0,5.26-4.47,10.26-8.68,14.45-12.62,4.67-3.96,9.06-7.68,13.11-11.24,18.48-16.24,29.98-29.15,29.98-46.82C120.05,15.64,107.29,1.01,90.07,.05Z" style="fill:url(#linear-gradient);"/></svg>