
<svg fill="none" xmlns="http://www.w3.org/2000/svg" xmlns:xlink="http://www.w3.org/1999/xlink" height="20.5" viewBox="0 0 20.5 20.5" width="20.5">
    <!--Created with Nila (0.3.7-beta.2)-->
    <g opacity="1.0">
        <g opacity="1.0">
            <path d="M 14.54 20.25 L 5.96 20.25 C 2.81 20.25 0.25 17.69 0.25 14.54 L 0.25 5.96 C 0.25 2.81 2.81 0.25 5.96 0.25 L 14.54 0.25 C 17.69 0.25 20.25 2.81 20.25 5.96 L 20.25 14.54 C 20.25 17.69 17.69 20.25 14.54 20.25 ZM 5.97 0.68 C 3.05 0.68 0.68 3.05 0.68 5.97 L 0.68 14.54 C 0.68 17.45 3.05 19.82 5.97 19.82 L 14.54 19.82 C 17.45 19.82 19.82 17.45 19.82 14.54 L 19.82 5.97 C 19.82 3.05 17.45 0.68 14.54 0.68 L 5.97 0.68 Z" fill="#636771" stroke-width="0.5" stroke="#636771"></path>
            <path d="M 10.25 15.17 C 7.53 15.17 5.33 12.97 5.33 10.25 C 5.33 7.54 7.54 5.33 10.25 5.33 C 12.97 5.33 15.17 7.54 15.17 10.25 C 15.17 12.97 12.97 15.17 10.25 15.17 ZM 10.25 5.75 C 7.77 5.75 5.76 7.77 5.76 10.25 C 5.76 12.73 7.77 14.74 10.25 14.74 C 12.73 14.74 14.75 12.73 14.75 10.25 C 14.75 7.77 12.73 5.75 10.25 5.75 Z" fill="#636771" stroke="#636771" stroke-width="0.5"></path>
            <path d="M 15.86 5.77 C 15.23 5.77 14.71 5.26 14.71 4.63 C 14.71 3.99 15.23 3.48 15.86 3.48 C 16.49 3.48 17.01 3.99 17.01 4.63 C 17.01 5.26 16.49 5.77 15.86 5.77 ZM 15.86 3.91 C 15.46 3.91 15.14 4.23 15.14 4.63 C 15.14 5.03 15.46 5.35 15.86 5.35 C 16.26 5.35 16.58 5.03 16.58 4.63 C 16.58 4.23 16.26 3.91 15.86 3.91 Z" fill="#636771" stroke="#636771" stroke-width="0.5"></path>
        </g>
    </g>
</svg>