<?xml version="1.0" encoding="UTF-8"?><svg id="Layer_1" xmlns="http://www.w3.org/2000/svg" viewBox="0 0 36 36"><defs><style>.cls-1{fill:#fff;}.cls-2,.cls-3{fill:#636771;}.cls-3{stroke:#fff;stroke-width:.36px;}.cls-4{fill:none;stroke:#636771;stroke-width:.56px;}</style></defs><circle class="cls-4" cx="18" cy="18" r="17.5"/><g><path class="cls-2" d="M21.06,25.13h-6.11c-2.24,0-4.07-1.82-4.07-4.07v-6.11c0-2.24,1.82-4.07,4.07-4.07h6.11c2.24,0,4.07,1.82,4.07,4.07v6.11c0,2.24-1.82,4.07-4.07,4.07Z"/><path class="cls-3" d="M18,21.71c-1.94,0-3.51-1.57-3.51-3.51s1.57-3.51,3.51-3.51,3.51,1.57,3.51,3.51-1.57,3.51-3.51,3.51Zm0-6.71c-1.77,0-3.2,1.44-3.2,3.21s1.43,3.2,3.2,3.2,3.21-1.43,3.21-3.2-1.44-3.21-3.21-3.21Z"/><path class="cls-1" d="M22.28,14.5c-.45,0-.82-.36-.82-.81s.37-.82,.82-.82,.82,.36,.82,.82-.37,.81-.82,.81Z"/></g></svg>