<?xml version="1.0" encoding="UTF-8"?><svg id="Layer_1" xmlns="http://www.w3.org/2000/svg" viewBox="0 0 35 35"><defs><style>.cls-1{fill:#636771;}.cls-2{fill:none;stroke:#636771;stroke-width:.56px;}</style></defs><path class="cls-1" d="M17.5,14.87c-1.56,0-2.82,1.27-2.82,2.83s1.27,2.83,2.82,2.83,2.83-1.27,2.83-2.83-1.27-2.83-2.83-2.83Z"/><path class="cls-1" d="M20.56,10.37h-6.11c-2.24,0-4.07,1.82-4.07,4.07v6.11c0,2.24,1.82,4.07,4.07,4.07h6.11c2.24,0,4.07-1.82,4.07-4.07v-6.11c0-2.24-1.82-4.07-4.07-4.07Zm-3.06,11.21c-2.14,0-3.88-1.74-3.88-3.88s1.74-3.88,3.88-3.88,3.88,1.74,3.88,3.88-1.74,3.88-3.88,3.88Zm4.28-7.58c-.45,0-.82-.36-.82-.81s.37-.82,.82-.82,.82,.36,.82,.82-.37,.81-.82,.81Z"/><circle class="cls-2" cx="17.5" cy="17.5" r="17.5"/></svg>