<?xml version="1.0" encoding="UTF-8"?><svg id="Layer_1" xmlns="http://www.w3.org/2000/svg" viewBox="0 0 18.24 18.24"><defs><style>.cls-1{fill:#636771;}</style></defs><path class="cls-1" d="M9.12,5.76c-1.99,0-3.62,1.63-3.62,3.63s1.62,3.62,3.62,3.62,3.63-1.62,3.63-3.62-1.63-3.63-3.63-3.63Z"/><path class="cls-1" d="M13.04,0H5.21C2.34,0,0,2.34,0,5.21v7.83c0,2.87,2.34,5.21,5.21,5.21h7.83c2.87,0,5.21-2.34,5.21-5.21V5.21c0-2.87-2.34-5.21-5.21-5.21Zm-3.91,14.35c-2.74,0-4.97-2.23-4.97-4.97s2.23-4.97,4.97-4.97,4.97,2.23,4.97,4.97-2.23,4.97-4.97,4.97ZM14.6,4.65c-.57,0-1.05-.47-1.05-1.04s.47-1.05,1.05-1.05,1.05,.47,1.05,1.05-.47,1.04-1.05,1.04Z"/></svg>