<svg id="Layer_1" data-name="Layer 1" xmlns="http://www.w3.org/2000/svg" xmlns:xlink="http://www.w3.org/1999/xlink" viewBox="0 0 227.99 354.54"><defs><style>.cls-1{fill:url(#linear-gradient);}.cls-2{fill:url(#linear-gradient-2);}.cls-3,.cls-4{fill:#2c2d7a;}.cls-4{stroke:#2c2d7a;stroke-miterlimit:10;}</style><linearGradient id="linear-gradient" x1="113.99" y1="-18.68" x2="113.99" y2="269.67" gradientUnits="userSpaceOnUse"><stop offset="0.25" stop-color="#00ceca"/><stop offset="0.75" stop-color="#05f"/></linearGradient><linearGradient id="linear-gradient-2" x1="142.23" y1="105.25" x2="130.33" y2="144.91" gradientUnits="userSpaceOnUse"><stop offset="0.19" stop-color="#1163ba"/><stop offset="0.84" stop-color="#05f" stop-opacity="0"/></linearGradient></defs><path class="cls-1" d="M218.64,116a16.86,16.86,0,0,0-4.83-3.8,14.83,14.83,0,0,0-6.17-1.49q-5.7-.47-10.58-.82.3-20.86.25-41.57c-.06-.86-.1-1.72-.1-2.57a15.41,15.41,0,0,0-5-11.36A14.42,14.42,0,0,0,181,49.89a16,16,0,0,0-16,16.24v2.21q0,4.83-.05,16.75l-.05,4.78q-.21,8.58-.41,16.54l-7.66-.82a176.18,176.18,0,0,0-5.75-33.4c-.45-1.3-.93-2.59-1.44-3.85a103.76,103.76,0,0,0-12.85-23.59A98.16,98.16,0,0,0,124.2,30.62,85.7,85.7,0,0,0,95.37,12.69,92.16,92.16,0,0,0,62.64,6.52a91.19,91.19,0,0,0-15.83,1v0a47.78,47.78,0,0,0-7.19,1.52q-8.49,2.41-11.82,8.22a15.49,15.49,0,0,0-2.42,8.4c0,.06,0,.12,0,.18s0,.1,0,.16,0,.14,0,.21A14.91,14.91,0,0,0,29,35.61l0,0c.11.13.25.24.36.36s.43.46.65.68a16.68,16.68,0,0,0,3.26,2.66,15.57,15.57,0,0,0,3.6,1.71h0c.28.09.56.14.84.21A14.42,14.42,0,0,0,43,41.16c.56-.14,1.13-.28,1.68-.4l.46-.12a1.48,1.48,0,0,1,.35-.06c2.39-.52,4.68-.93,6.77-1.21l.22,0,.28-.06a54.61,54.61,0,0,1,6.2-.47,53.38,53.38,0,0,1,7.92.14h0a57.92,57.92,0,0,1,17.07,3.91c1.54.62,3,1.25,4.42,1.9a53.2,53.2,0,0,1,13.92,9.35,68.62,68.62,0,0,1,11.67,14.24,78.86,78.86,0,0,1,9.76,25.07c.41,2,.82,3.87,1.23,5.76v.1c.14.55.28,1.11.42,1.7a6.85,6.85,0,0,0-.88-.06q-4.15-.45-8.27-.77-11.31-.81-22.61-1.08-8.37-.3-15.47,0a124.34,124.34,0,0,0-14.59,1.34c-.14,0-.2.07-.2.21q-18.3,3-30.89,11.81l-.1.06a60.91,60.91,0,0,0-20.5,23.89A61.62,61.62,0,0,0,5.4,159.65a60.6,60.6,0,0,0,9.66,37.87l-.11.1a62.78,62.78,0,0,0,23,21.73q17.94,9.92,40.49,7a76.56,76.56,0,0,0,36.9-14.69,96.68,96.68,0,0,0,25.07-28.27q1.34-2.41,2.67-4.77a128.6,128.6,0,0,0,8-18.81A156.84,156.84,0,0,0,156,136.63l7.76,1v.46q-.4,16.29-.72,28.47-.25,6.67-.36,12.08-.51,15.66-.77,20.6A15.85,15.85,0,0,0,166,210.77a15.68,15.68,0,0,0,11.1,5.35,15.29,15.29,0,0,0,11.66-4.32A14.79,14.79,0,0,0,194,200.86q.63-11.16,1.13-22.25.42-9,.72-17.89.31-9.19.57-18.34v-.26q4.52.57,9.51.77a15.78,15.78,0,0,0,11.71-4.21,16.2,16.2,0,0,0,1-22.66Zm-94.14,18c-.48,2.5-1,5-1.64,7.55a100.41,100.41,0,0,1-6.32,18q-1.8,3.75-3.8,7.24c-.14,0-.21.05-.21.16A68.72,68.72,0,0,1,104,178.61a70.47,70.47,0,0,1-7.86,7.14,46.33,46.33,0,0,1-21.79,8.68,34.75,34.75,0,0,1-20.81-3.29h-.2a31.67,31.67,0,0,1-11.1-10.74,28.68,28.68,0,0,1-4.73-14.69l-.1.1a30.78,30.78,0,0,1,.41-6.16,35.61,35.61,0,0,1,2.83-9.1v.1a32.79,32.79,0,0,1,10-11.71,44.79,44.79,0,0,1,18-6.68h.1a83.19,83.19,0,0,1,9.35-.93c4.29-.24,9.13-.25,14.55-.05.48,0,1,0,1.43.05q15,.36,29.76,1.9a3.17,3.17,0,0,1,.77.11Zm39.67,38.64c0-1.41,0-2.76,0-4.06l.05-2.31C164.22,168.38,164.21,170.5,164.17,172.7Z"/><path class="cls-2" d="M125.49,102c0-.38-.07-.74-.11-1.08-2.77-.31-5.52-.56-8.25-.77,0,.31,7.91.6,7.84.88q-1.68,8.14-8,16.35a70.78,70.78,0,0,1-13.84,13.9c10,.24,11.88.87,21.69,1.9a4.56,4.56,0,0,0,.15-.88c.28-1.64.48-3.38.62-5.23a120.75,120.75,0,0,0-.05-25.07m39.11,4.77v-.36L157,105.6q.57,8.46.31,16.82-.25,7.08-1.13,14.15l7.75,1q.15-6.93.36-14.72T164.6,106.78Z"/><path class="cls-3" d="M43,296v51.14H31.24V279.91H46.67l29.2,48v-48h11.7v67.21H74.17Z"/><path class="cls-3" d="M112,289.55a7.26,7.26,0,0,1-7.62-1.4,6.46,6.46,0,0,1-2.07-4.8,6.36,6.36,0,0,1,.55-2.68,6.58,6.58,0,0,1,1.49-2.09,7.18,7.18,0,0,1,4.94-1.88,6.88,6.88,0,0,1,2.66.5,7.22,7.22,0,0,1,2.18,1.38,6.09,6.09,0,0,1,1.47,2.09,6.68,6.68,0,0,1,.53,2.68,6.86,6.86,0,0,1-.53,2.71,6.51,6.51,0,0,1-1.44,2.14A6.21,6.21,0,0,1,112,289.55Zm3.26,8.4v49.17H103.5V298Z"/><path class="cls-4" d="M142.25,272.93v74.19H130.5V278Z"/><path class="cls-3" d="M178.52,346.43A21.92,21.92,0,0,1,170,348a22.88,22.88,0,0,1-6.49-.89,14.68,14.68,0,0,1-5.21-2.71,12.69,12.69,0,0,1-3.47-4.55,15.13,15.13,0,0,1-1.26-6.4,12.51,12.51,0,0,1,5.65-11.11,19.82,19.82,0,0,1,5.85-2.67,45.31,45.31,0,0,1,6.79-1.33,68.7,68.7,0,0,1,6.94-.46q3.42,0,6.26,0v-.74a33.94,33.94,0,0,0-.27-4.34,9.21,9.21,0,0,0-1.29-3.71,6.63,6.63,0,0,0-2.91-2.53,12,12,0,0,0-5.08-.89,13.64,13.64,0,0,0-3.49.45,11.49,11.49,0,0,0-3.12,1.36,10.78,10.78,0,0,0-2.52,2.2,10.34,10.34,0,0,0-1.75,3l-9.13-3.95a15.58,15.58,0,0,1,3.46-5.51,19.1,19.1,0,0,1,5.05-3.65,24.58,24.58,0,0,1,6.06-2,33.23,33.23,0,0,1,6.5-.64,29.52,29.52,0,0,1,8.1,1.05,17.27,17.27,0,0,1,6.38,3.29,14.78,14.78,0,0,1,4.18,5.64,20.07,20.07,0,0,1,1.49,8.11v32.13H185.18v-6A15.65,15.65,0,0,1,178.52,346.43Zm-8.59-7.11a12.71,12.71,0,0,0,3.12.37,16.4,16.4,0,0,0,4.41-.6,12,12,0,0,0,3.86-1.82,9.3,9.3,0,0,0,2.73-3,8.62,8.62,0,0,0,1-4.31v-4.78h-5.87c-1.35,0-2.83.07-4.46.21a16.84,16.84,0,0,0-4.56,1,9,9,0,0,0-3.59,2.39,6.12,6.12,0,0,0-1.44,4.29,7.2,7.2,0,0,0,.6,3.1,5.18,5.18,0,0,0,1.65,2A7.13,7.13,0,0,0,169.93,339.32Z"/></svg>