<?xml version="1.0" encoding="utf-8"?>
<!-- Generator: Adobe Illustrator 27.0.0, SVG Export Plug-In . SVG Version: 6.00 Build 0)  -->
<svg version="1.1" id="Layer_1" xmlns="http://www.w3.org/2000/svg" xmlns:xlink="http://www.w3.org/1999/xlink" x="0px" y="0px"
	 viewBox="0 0 500 500" style="enable-background:new 0 0 500 500;" xml:space="preserve">
<style type="text/css">
	.st0{clip-path:url(#SVGID_00000101803648540207444220000017897838446815384203_);}
	.st1{opacity:0.6;}
	.st2{fill:#A3A3A2;}
</style>
<g>
	<defs>
		<rect id="SVGID_1_" width="500" height="500"/>
	</defs>
	<clipPath id="SVGID_00000098910502480823733640000008207592442135422346_">
		<use xlink:href="#SVGID_1_"  style="overflow:visible;"/>
	</clipPath>
	<g style="clip-path:url(#SVGID_00000098910502480823733640000008207592442135422346_);">
		<g>
			<g class="st1">
				<path class="st2" d="M498.3,500c-133.1,0-258.4-51.7-352.5-146.1C51.7,260.1,0,134.8,0,1.7s51.7-258.1,145.8-352.2
					s219.3-146.1,352.5-146.1s258.4,52,352.5,146.1S996.9-131.2,996.9,1.9s-51.7,258.4-146.1,352.5C756.7,448.3,631.5,500,498.3,500
					z M498.3-495.2c-132.7,0-257.4,51.7-351.3,145.6S1.4-131,1.4,1.7S53.2,259.1,147,353s218.6,145.6,351.3,145.6
					S755.7,446.8,849.6,353S995.2,134.3,995.2,1.7s-51.7-257.4-145.6-351.3S631-495.2,498.3-495.2z"/>
			</g>
			<g class="st1">
				<path class="st2" d="M498.3,369.7c-98.4,0-190.9-38.3-260.3-107.8S130.3,100.1,130.3,1.7S168.6-189.2,238-258.6
					s161.9-107.8,260.3-107.8s190.9,38.3,260.3,107.8S866.4-96.7,866.4,1.7S828.1,192.5,758.6,262S596.7,369.7,498.3,369.7z
					 M498.3-364.9c-97.9,0-189.9,38.3-259.1,107.5C169.8-188.2,131.7-96.3,131.7,1.7S169.8,191.6,239,260.8
					c69.2,69.2,161.4,107.3,259.3,107.3S688.2,330,757.7,260.8C826.9,191.6,864.9,99.4,864.9,1.7s-38.1-189.9-107.3-259.1
					S596.3-364.9,498.3-364.9z"/>
			</g>
			<g class="st1">
				<g>
					<rect x="497.6" y="-479.9" class="st2" width="1.4" height="12.2"/>
				</g>
				<g>
					
						<rect x="508.8" y="-474.4" transform="matrix(3.489936e-02 -0.9994 0.9994 3.489936e-02 970.304 57.5045)" class="st2" width="12.2" height="1.4"/>
				</g>
				<g>
					
						<rect x="525.5" y="-473.4" transform="matrix(6.969555e-02 -0.9976 0.9976 6.969555e-02 966.1171 90.5574)" class="st2" width="12.2" height="1.4"/>
				</g>
				<g>
					
						<rect x="542" y="-472" transform="matrix(0.1045 -0.9945 0.9945 0.1045 959.4993 123.1074)" class="st2" width="12.2" height="1.4"/>
				</g>
				<g>
					
						<rect x="558.4" y="-470" transform="matrix(0.1392 -0.9903 0.9903 0.1392 950.6008 155.0215)" class="st2" width="12.2" height="1.4"/>
				</g>
				<g>
					
						<rect x="574.8" y="-467.5" transform="matrix(0.1736 -0.9848 0.9848 0.1736 939.8202 186.3302)" class="st2" width="12.2" height="1.4"/>
				</g>
				<g>
					
						<rect x="591.1" y="-464.3" transform="matrix(0.2079 -0.9782 0.9782 0.2079 926.5369 216.8908)" class="st2" width="12.2" height="1.4"/>
				</g>
				<g>
					
						<rect x="607.3" y="-460.5" transform="matrix(0.2419 -0.9703 0.9703 0.2419 911.1367 246.6329)" class="st2" width="12.2" height="1.4"/>
				</g>
				<g>
					
						<rect x="623.4" y="-456.2" transform="matrix(0.2756 -0.9613 0.9613 0.2756 893.8354 275.1679)" class="st2" width="12.2" height="1.4"/>
				</g>
				<g>
					
						<rect x="639.2" y="-451.5" transform="matrix(0.309 -0.9511 0.9511 0.309 874.6579 302.2505)" class="st2" width="12.2" height="1.4"/>
				</g>
				<g>
					
						<rect x="654.9" y="-446" transform="matrix(0.342 -0.9397 0.9397 0.342 853.3687 328.2198)" class="st2" width="12.2" height="1.4"/>
				</g>
				<g>
					
						<rect x="670.3" y="-440.2" transform="matrix(0.3746 -0.9272 0.9272 0.3746 830.4603 352.312)" class="st2" width="12.2" height="1.4"/>
				</g>
				<g>
					
						<rect x="685.8" y="-433.6" transform="matrix(0.4067 -0.9136 0.9136 0.4067 806.0132 375.2716)" class="st2" width="12.2" height="1.4"/>
				</g>
				<g>
					
						<rect x="700.7" y="-426.4" transform="matrix(0.4383 -0.8988 0.8988 0.4383 779.6641 396.1771)" class="st2" width="12.2" height="1.4"/>
				</g>
				<g>
					
						<rect x="715.5" y="-419" transform="matrix(0.4694 -0.883 0.883 0.4694 752.2222 415.1815)" class="st2" width="12.2" height="1.4"/>
				</g>
				<g>
					
						<rect x="730.1" y="-411" transform="matrix(0.4999 -0.8661 0.8661 0.4999 723.5169 432.4714)" class="st2" width="12.2" height="1.4"/>
				</g>
				<g>
					
						<rect x="744.2" y="-402.4" transform="matrix(0.5298 -0.8481 0.8481 0.5298 693.4719 447.4278)" class="st2" width="12.2" height="1.4"/>
				</g>
				<g>
					
						<rect x="758.1" y="-393.4" transform="matrix(0.5591 -0.8291 0.8291 0.5591 662.4699 460.4819)" class="st2" width="12.2" height="1.4"/>
				</g>
				<g>
					
						<rect x="771.8" y="-383.8" transform="matrix(0.5877 -0.8091 0.8091 0.5877 630.7084 471.4131)" class="st2" width="12.2" height="1.4"/>
				</g>
				<g>
					
						<rect x="785.2" y="-373.9" transform="matrix(0.6156 -0.7881 0.7881 0.6156 598.2979 480.1035)" class="st2" width="12.2" height="1.4"/>
				</g>
				<g>
					
						<rect x="797.8" y="-363.4" transform="matrix(0.6427 -0.7661 0.7661 0.6427 565.0988 486.2961)" class="st2" width="12.2" height="1.4"/>
				</g>
				<g>
					
						<rect x="810.6" y="-352.6" transform="matrix(0.669 -0.7432 0.7432 0.669 531.7914 490.5277)" class="st2" width="12.2" height="1.4"/>
				</g>
				<g>
					
						<rect x="822.5" y="-341.2" transform="matrix(0.6946 -0.7194 0.7194 0.6946 497.9964 492.129)" class="st2" width="12.2" height="1.4"/>
				</g>
				<g>
					
						<rect x="834.2" y="-329.5" transform="matrix(0.7193 -0.6947 0.6947 0.7193 464.2708 491.5061)" class="st2" width="12.2" height="1.4"/>
				</g>
				<g>
					
						<rect x="845.7" y="-317.4" transform="matrix(0.7431 -0.6692 0.6692 0.7431 430.7613 488.699)" class="st2" width="12.2" height="1.4"/>
				</g>
				<g>
					
						<rect x="856.5" y="-304.8" transform="matrix(0.766 -0.6429 0.6429 0.766 397.3821 483.3952)" class="st2" width="12.2" height="1.4"/>
				</g>
				<g>
					
						<rect x="867.1" y="-291.9" transform="matrix(0.7879 -0.6158 0.6158 0.7879 364.5277 475.9387)" class="st2" width="12.2" height="1.4"/>
				</g>
				<g>
					
						<rect x="877.1" y="-278.8" transform="matrix(0.8089 -0.5879 0.5879 0.8089 332.2355 466.096)" class="st2" width="12.2" height="1.4"/>
				</g>
				<g>
					
						<rect x="886.5" y="-265.1" transform="matrix(0.829 -0.5593 0.5593 0.829 300.5014 453.9903)" class="st2" width="12.2" height="1.4"/>
				</g>
				<g>
					
						<rect x="895.6" y="-251.2" transform="matrix(0.848 -0.5301 0.5301 0.848 269.8562 439.8693)" class="st2" width="12.2" height="1.4"/>
				</g>
				<g>
					
						<rect x="904.2" y="-237.1" transform="matrix(0.866 -0.5001 0.5001 0.866 240.1907 423.5378)" class="st2" width="12.2" height="1.4"/>
				</g>
				<g>
					
						<rect x="912.1" y="-222.4" transform="matrix(0.8829 -0.4696 0.4696 0.8829 211.6511 405.2039)" class="st2" width="12.2" height="1.4"/>
				</g>
				<g>
					
						<rect x="919.7" y="-207.6" transform="matrix(0.8987 -0.4385 0.4385 0.8987 184.5008 385.0381)" class="st2" width="12.2" height="1.4"/>
				</g>
				<g>
					
						<rect x="926.7" y="-192.5" transform="matrix(0.9135 -0.4069 0.4069 0.9135 158.7579 362.9659)" class="st2" width="12.2" height="1.4"/>
				</g>
				<g>
					
						<rect x="933.2" y="-177.2" transform="matrix(0.9271 -0.3748 0.3748 0.9271 134.6097 339.1907)" class="st2" width="12.2" height="1.4"/>
				</g>
				<g>
					
						<rect x="939.1" y="-161.9" transform="matrix(0.9396 -0.3422 0.3422 0.9396 112.2151 313.7338)" class="st2" width="12.2" height="1.4"/>
				</g>
				<g>
					
						<rect x="944.7" y="-146.1" transform="matrix(0.951 -0.3092 0.3092 0.951 91.5431 286.8564)" class="st2" width="12.2" height="1.4"/>
				</g>
				<g>
					
						<rect x="949.4" y="-130.3" transform="matrix(0.9612 -0.2758 0.2758 0.9612 72.7955 258.5171)" class="st2" width="12.2" height="1.4"/>
				</g>
				<g>
					
						<rect x="953.7" y="-114.2" transform="matrix(0.9702 -0.2421 0.2421 0.9702 56.0417 229.0094)" class="st2" width="12.2" height="1.4"/>
				</g>
				<g>
					
						<rect x="957.6" y="-98" transform="matrix(0.9781 -0.2081 0.2081 0.9781 41.3375 198.4223)" class="st2" width="12.2" height="1.4"/>
				</g>
				<g>
					
						<rect x="960.8" y="-81.7" transform="matrix(0.9848 -0.1739 0.1739 0.9848 28.8049 166.898)" class="st2" width="12.2" height="1.4"/>
				</g>
				<g>
					
						<rect x="963.3" y="-65.4" transform="matrix(0.9902 -0.1394 0.1394 0.9902 18.4818 134.5105)" class="st2" width="12.2" height="1.4"/>
				</g>
				<g>
					
						<rect x="965.3" y="-48.8" transform="matrix(0.9945 -0.1048 0.1048 0.9945 10.3922 101.5348)" class="st2" width="12.2" height="1.4"/>
				</g>
				<g>
					
						<rect x="966.7" y="-32.3" transform="matrix(0.9975 -7.000654e-02 7.000654e-02 0.9975 4.6006 68.0226)" class="st2" width="12.2" height="1.4"/>
				</g>
				<g>
					
						<rect x="967.7" y="-15.8" transform="matrix(0.9994 -3.509886e-02 3.509886e-02 0.9994 1.1293 34.1694)" class="st2" width="12.2" height="1.4"/>
				</g>
				<g>
					<rect x="967.9" y="0.7" class="st2" width="12.2" height="1.4"/>
				</g>
				<g>
					
						<rect x="973.1" y="12.2" transform="matrix(3.460008e-02 -0.9994 0.9994 3.460008e-02 921.8348 990.9503)" class="st2" width="1.4" height="12.2"/>
				</g>
				<g>
					
						<rect x="972.2" y="28.8" transform="matrix(6.949750e-02 -0.9976 0.9976 6.949750e-02 870.4533 1003.0189)" class="st2" width="1.4" height="12.2"/>
				</g>
				<g>
					
						<rect x="970.8" y="45.3" transform="matrix(0.1043 -0.9945 0.9945 0.1043 819.0049 1012.2496)" class="st2" width="1.4" height="12.2"/>
				</g>
				<g>
					
						<rect x="968.8" y="61.7" transform="matrix(0.1389 -0.9903 0.9903 0.1389 767.6146 1018.5022)" class="st2" width="1.4" height="12.2"/>
				</g>
				<g>
					
						<rect x="966" y="78.1" transform="matrix(0.1734 -0.9849 0.9849 0.1734 716.1837 1021.6453)" class="st2" width="1.4" height="12.2"/>
				</g>
				<g>
					
						<rect x="962.9" y="94.5" transform="matrix(0.2076 -0.9782 0.9782 0.2076 665.1813 1022.3016)" class="st2" width="1.4" height="12.2"/>
				</g>
				<g>
					
						<rect x="959.2" y="110.8" transform="matrix(0.2416 -0.9704 0.9704 0.2416 614.5917 1020.1031)" class="st2" width="1.4" height="12.2"/>
				</g>
				<g>
					
						<rect x="955" y="126.7" transform="matrix(0.2754 -0.9613 0.9613 0.2754 564.7897 1014.9725)" class="st2" width="1.4" height="12.2"/>
				</g>
				<g>
					
						<rect x="950.2" y="142.3" transform="matrix(0.3087 -0.9512 0.9512 0.3087 516.1834 1007.0813)" class="st2" width="1.4" height="12.2"/>
				</g>
				<g>
					
						<rect x="944.7" y="158.2" transform="matrix(0.3417 -0.9398 0.9398 0.3417 467.9633 996.7173)" class="st2" width="1.4" height="12.2"/>
				</g>
				<g>
					
						<rect x="938.6" y="173.7" transform="matrix(0.3743 -0.9273 0.9273 0.3743 421.0525 983.5641)" class="st2" width="1.4" height="12.2"/>
				</g>
				<g>
					
						<rect x="932.1" y="189" transform="matrix(0.4065 -0.9137 0.9137 0.4065 375.3662 968.1325)" class="st2" width="1.4" height="12.2"/>
				</g>
				<g>
					
						<rect x="925.3" y="203.9" transform="matrix(0.4381 -0.8989 0.8989 0.4381 331.5047 950.438)" class="st2" width="1.4" height="12.2"/>
				</g>
				<g>
					
						<rect x="917.8" y="218.8" transform="matrix(0.4692 -0.8831 0.8831 0.4692 288.8754 930.5)" class="st2" width="1.4" height="12.2"/>
				</g>
				<g>
					
						<rect x="909.8" y="233.3" transform="matrix(0.4997 -0.8662 0.8662 0.4997 248.1301 908.4839)" class="st2" width="1.4" height="12.2"/>
				</g>
				<g>
					
						<rect x="901.1" y="247.6" transform="matrix(0.5296 -0.8482 0.8482 0.5296 208.9879 884.3198)" class="st2" width="1.4" height="12.2"/>
				</g>
				<g>
					
						<rect x="892.1" y="261.6" transform="matrix(0.5589 -0.8292 0.8292 0.5589 171.8358 858.3734)" class="st2" width="1.4" height="12.2"/>
				</g>
				<g>
					
						<rect x="882.5" y="275.2" transform="matrix(0.5875 -0.8092 0.8092 0.5875 136.6765 830.7874)" class="st2" width="1.4" height="12.2"/>
				</g>
				<g>
					
						<rect x="872.6" y="288.3" transform="matrix(0.6154 -0.7882 0.7882 0.6154 103.8441 801.5742)" class="st2" width="1.4" height="12.2"/>
				</g>
				<g>
					
						<rect x="862.1" y="301.3" transform="matrix(0.6425 -0.7663 0.7663 0.6425 72.9214 771.0411)" class="st2" width="1.4" height="12.2"/>
				</g>
				<g>
					
						<rect x="851.1" y="313.8" transform="matrix(0.6689 -0.7434 0.7434 0.6689 44.255 739.1624)" class="st2" width="1.4" height="12.2"/>
				</g>
				<g>
					
						<rect x="839.8" y="326" transform="matrix(0.6944 -0.7196 0.7196 0.6944 17.9134 706.3489)" class="st2" width="1.4" height="12.2"/>
				</g>
				<g>
					
						<rect x="828.1" y="337.7" transform="matrix(0.7191 -0.6949 0.6949 0.7191 -6.097 672.541)" class="st2" width="1.4" height="12.2"/>
				</g>
				<g>
					
						<rect x="816" y="348.9" transform="matrix(0.7429 -0.6694 0.6694 0.7429 -27.6326 638.0083)" class="st2" width="1.4" height="12.2"/>
				</g>
				<g>
					
						<rect x="803.5" y="360" transform="matrix(0.7658 -0.6431 0.6431 0.7658 -47.0644 602.9009)" class="st2" width="1.4" height="12.2"/>
				</g>
				<g>
					
						<rect x="790.6" y="370.5" transform="matrix(0.7878 -0.616 0.616 0.7878 -64.0208 567.3771)" class="st2" width="1.4" height="12.2"/>
				</g>
				<g>
					
						<rect x="777.3" y="380.3" transform="matrix(0.8088 -0.5881 0.5881 0.8088 -78.4872 531.4384)" class="st2" width="1.4" height="12.2"/>
				</g>
				<g>
					
						<rect x="763.9" y="389.8" transform="matrix(0.8288 -0.5595 0.5595 0.8288 -90.6338 495.561)" class="st2" width="1.4" height="12.2"/>
				</g>
				<g>
					
						<rect x="749.8" y="399" transform="matrix(0.8478 -0.5303 0.5303 0.8478 -100.6037 459.6361)" class="st2" width="1.4" height="12.2"/>
				</g>
				<g>
					
						<rect x="735.7" y="407.5" transform="matrix(0.8658 -0.5004 0.5004 0.8658 -108.1626 423.9997)" class="st2" width="1.4" height="12.2"/>
				</g>
				<g>
					
						<rect x="721.1" y="415.5" transform="matrix(0.8828 -0.4698 0.4698 0.8828 -113.4616 388.5223)" class="st2" width="1.4" height="12.2"/>
				</g>
				<g>
					
						<rect x="706.2" y="423.2" transform="matrix(0.8986 -0.4388 0.4388 0.8986 -116.6774 353.7375)" class="st2" width="1.4" height="12.2"/>
				</g>
				<g>
					
						<rect x="691.4" y="430.1" transform="matrix(0.9134 -0.4071 0.4071 0.9134 -117.6182 319.5262)" class="st2" width="1.4" height="12.2"/>
				</g>
				<g>
					
						<rect x="676" y="436.5" transform="matrix(0.927 -0.375 0.375 0.927 -116.6125 286.0707)" class="st2" width="1.4" height="12.2"/>
				</g>
				<g>
					
						<rect x="660.4" y="442.5" transform="matrix(0.9395 -0.3424 0.3424 0.9395 -113.6593 253.5014)" class="st2" width="1.4" height="12.2"/>
				</g>
				<g>
					
						<rect x="644.9" y="448" transform="matrix(0.9509 -0.3094 0.3094 0.9509 -108.8268 222.0407)" class="st2" width="1.4" height="12.2"/>
				</g>
				<g>
					
						<rect x="628.8" y="452.8" transform="matrix(0.9611 -0.2761 0.2761 0.9611 -102.2463 191.6565)" class="st2" width="1.4" height="12.2"/>
				</g>
				<g>
					
						<rect x="612.8" y="457.2" transform="matrix(0.9702 -0.2424 0.2424 0.9702 -93.9987 162.5336)" class="st2" width="1.4" height="12.2"/>
				</g>
				<g>
					
						<rect x="596.7" y="460.7" transform="matrix(0.978 -0.2084 0.2084 0.978 -84.1609 134.7587)" class="st2" width="1.4" height="12.2"/>
				</g>
				<g>
					
						<rect x="580.4" y="464.1" transform="matrix(0.9847 -0.1741 0.1741 0.9847 -72.982 108.3645)" class="st2" width="1.4" height="12.2"/>
				</g>
				<g>
					
						<rect x="564.2" y="466.7" transform="matrix(0.9902 -0.1396 0.1396 0.9902 -60.4723 83.4912)" class="st2" width="1.4" height="12.2"/>
				</g>
				<g>
					
						<rect x="547.7" y="468.6" transform="matrix(0.9945 -0.105 0.105 0.9945 -46.8166 60.2036)" class="st2" width="1.4" height="12.2"/>
				</g>
				<g>
					
						<rect x="531.1" y="470" transform="matrix(0.9975 -7.020461e-02 7.020461e-02 0.9975 -32.115 38.5114)" class="st2" width="1.4" height="12.2"/>
				</g>
				<g>
					
						<rect x="514.4" y="471.1" transform="matrix(0.9994 -3.539810e-02 3.539810e-02 0.9994 -16.5677 18.5326)" class="st2" width="1.4" height="12.2"/>
				</g>
				<g>
					<rect x="497.8" y="471.3" class="st2" width="1.4" height="12.2"/>
				</g>
				<g>
					
						<rect x="475.8" y="476.2" transform="matrix(3.440056e-02 -0.9994 0.9994 3.440056e-02 -11.2884 942.1765)" class="st2" width="12.2" height="1.4"/>
				</g>
				<g>
					
						<rect x="459.3" y="475.3" transform="matrix(6.929943e-02 -0.9976 0.9976 6.929943e-02 -41.7627 907.2708)" class="st2" width="12.2" height="1.4"/>
				</g>
				<g>
					
						<rect x="442.6" y="474" transform="matrix(0.104 -0.9946 0.9946 0.104 -70.0517 871.6203)" class="st2" width="12.2" height="1.4"/>
				</g>
				<g>
					
						<rect x="426.3" y="471.9" transform="matrix(0.1387 -0.9903 0.9903 0.1387 -95.6888 835.2699)" class="st2" width="12.2" height="1.4"/>
				</g>
				<g>
					
						<rect x="409.7" y="469.4" transform="matrix(0.1731 -0.9849 0.9849 0.1731 -119.1116 798.2676)" class="st2" width="12.2" height="1.4"/>
				</g>
				<g>
					
						<rect x="393.7" y="466.2" transform="matrix(0.2074 -0.9783 0.9783 0.2074 -139.8632 761.1208)" class="st2" width="12.2" height="1.4"/>
				</g>
				<g>
					
						<rect x="377.4" y="462.6" transform="matrix(0.2414 -0.9704 0.9704 0.2414 -158.7095 723.7042)" class="st2" width="12.2" height="1.4"/>
				</g>
				<g>
					
						<rect x="361.4" y="458.3" transform="matrix(0.2751 -0.9614 0.9614 0.2751 -174.9522 686.0771)" class="st2" width="12.2" height="1.4"/>
				</g>
				<g>
					
						<rect x="345.4" y="453.4" transform="matrix(0.3085 -0.9512 0.9512 0.3085 -188.928 648.3437)" class="st2" width="12.2" height="1.4"/>
				</g>
				<g>
					
						<rect x="329.8" y="448.1" transform="matrix(0.3415 -0.9399 0.9399 0.3415 -200.62 611.2516)" class="st2" width="12.2" height="1.4"/>
				</g>
				<g>
					
						<rect x="314.3" y="442" transform="matrix(0.3741 -0.9274 0.9274 0.3741 -210.0139 574.2642)" class="st2" width="12.2" height="1.4"/>
				</g>
				<g>
					
						<rect x="299" y="435.5" transform="matrix(0.4062 -0.9138 0.9138 0.4062 -217.4259 537.8735)" class="st2" width="12.2" height="1.4"/>
				</g>
				<g>
					
						<rect x="284" y="428.7" transform="matrix(0.4379 -0.899 0.899 0.4379 -222.9723 502.1532)" class="st2" width="12.2" height="1.4"/>
				</g>
				<g>
					
						<rect x="269.2" y="420.9" transform="matrix(0.469 -0.8832 0.8832 0.469 -226.1764 467.0331)" class="st2" width="12.2" height="1.4"/>
				</g>
				<g>
					
						<rect x="254.7" y="413" transform="matrix(0.4995 -0.8663 0.8663 0.4995 -227.8442 433.0107)" class="st2" width="12.2" height="1.4"/>
				</g>
				<g>
					
						<rect x="240.4" y="404.4" transform="matrix(0.5294 -0.8484 0.8484 0.5294 -227.7202 399.8129)" class="st2" width="12.2" height="1.4"/>
				</g>
				<g>
					
						<rect x="226.5" y="395.4" transform="matrix(0.5587 -0.8294 0.8294 0.5587 -225.8803 367.6877)" class="st2" width="12.2" height="1.4"/>
				</g>
				<g>
					
						<rect x="212.8" y="385.9" transform="matrix(0.5873 -0.8094 0.8094 0.5873 -222.5522 336.713)" class="st2" width="12.2" height="1.4"/>
				</g>
				<g>
					
						<rect x="199.7" y="375.9" transform="matrix(0.6152 -0.7884 0.7884 0.6152 -217.743 307.1944)" class="st2" width="12.2" height="1.4"/>
				</g>
				<g>
					
						<rect x="186.8" y="365.6" transform="matrix(0.6423 -0.7664 0.7664 0.6423 -211.7507 278.8468)" class="st2" width="12.2" height="1.4"/>
				</g>
				<g>
					
						<rect x="174.4" y="354.6" transform="matrix(0.6687 -0.7436 0.7436 0.6687 -204.3878 251.9112)" class="st2" width="12.2" height="1.4"/>
				</g>
				<g>
					
						<rect x="162.1" y="343.3" transform="matrix(0.6942 -0.7198 0.7198 0.6942 -196.1741 226.3162)" class="st2" width="12.2" height="1.4"/>
				</g>
				<g>
					
						<rect x="150.4" y="331.6" transform="matrix(0.7189 -0.6951 0.6951 0.7189 -187.0072 202.1755)" class="st2" width="12.2" height="1.4"/>
				</g>
				<g>
					
						<rect x="139" y="319.3" transform="matrix(0.7427 -0.6696 0.6696 0.7427 -176.967 179.5434)" class="st2" width="12.2" height="1.4"/>
				</g>
				<g>
					
						<rect x="128.1" y="306.9" transform="matrix(0.7656 -0.6433 0.6433 0.7656 -166.4522 158.4616)" class="st2" width="12.2" height="1.4"/>
				</g>
				<g>
					
						<rect x="117.6" y="294.1" transform="matrix(0.7876 -0.6162 0.6162 0.7876 -155.3719 138.8428)" class="st2" width="12.2" height="1.4"/>
				</g>
				<g>
					
						<rect x="107.7" y="280.8" transform="matrix(0.8086 -0.5883 0.5883 0.8086 -143.8145 120.8471)" class="st2" width="12.2" height="1.4"/>
				</g>
				<g>
					
						<rect x="98.2" y="267.2" transform="matrix(0.8287 -0.5597 0.5597 0.8287 -132.1015 104.2548)" class="st2" width="12.2" height="1.4"/>
				</g>
				<g>
					
						<rect x="89.1" y="253.3" transform="matrix(0.8477 -0.5305 0.5305 0.8477 -120.2701 89.2064)" class="st2" width="12.2" height="1.4"/>
				</g>
				<g>
					
						<rect x="80.4" y="239" transform="matrix(0.8657 -0.5006 0.5006 0.8657 -108.3873 75.5207)" class="st2" width="12.2" height="1.4"/>
				</g>
				<g>
					
						<rect x="72.6" y="224.5" transform="matrix(0.8826 -0.4701 0.4701 0.8826 -96.6545 63.4248)" class="st2" width="12.2" height="1.4"/>
				</g>
				<g>
					
						<rect x="64.9" y="209.8" transform="matrix(0.8985 -0.439 0.439 0.8985 -85.1991 52.538)" class="st2" width="12.2" height="1.4"/>
				</g>
				<g>
					
						<rect x="58" y="194.7" transform="matrix(0.9133 -0.4074 0.4074 0.9133 -74.0495 43.0464)" class="st2" width="12.2" height="1.4"/>
				</g>
				<g>
					
						<rect x="51.4" y="179.3" transform="matrix(0.9269 -0.3752 0.3752 0.9269 -63.3409 34.732)" class="st2" width="12.2" height="1.4"/>
				</g>
				<g>
					
						<rect x="45.5" y="163.8" transform="matrix(0.9395 -0.3427 0.3427 0.9395 -53.2612 27.632)" class="st2" width="12.2" height="1.4"/>
				</g>
				<g>
					
						<rect x="40" y="148.2" transform="matrix(0.9508 -0.3097 0.3097 0.9508 -43.8569 21.5927)" class="st2" width="12.2" height="1.4"/>
				</g>
				<g>
					
						<rect x="35.2" y="132.4" transform="matrix(0.9611 -0.2763 0.2763 0.9611 -35.1804 16.596)" class="st2" width="12.2" height="1.4"/>
				</g>
				<g>
					
						<rect x="30.9" y="116.3" transform="matrix(0.9701 -0.2426 0.2426 0.9701 -27.2946 12.4704)" class="st2" width="12.2" height="1.4"/>
				</g>
				<g>
					
						<rect x="27" y="100.1" transform="matrix(0.978 -0.2086 0.2086 0.978 -20.3025 9.1306)" class="st2" width="12.2" height="1.4"/>
				</g>
				<g>
					
						<rect x="24" y="84.1" transform="matrix(0.9847 -0.1743 0.1743 0.9847 -14.3153 6.5381)" class="st2" width="12.2" height="1.4"/>
				</g>
				<g>
					
						<rect x="21.3" y="67.6" transform="matrix(0.9902 -0.1399 0.1399 0.9902 -9.2808 4.5074)" class="st2" width="12.2" height="1.4"/>
				</g>
				<g>
					
						<rect x="19.1" y="51" transform="matrix(0.9945 -0.1052 0.1052 0.9945 -5.3049 2.9434)" class="st2" width="12.2" height="1.4"/>
				</g>
				<g>
					
						<rect x="17.7" y="34.5" transform="matrix(0.9975 -7.050166e-02 7.050166e-02 0.9975 -2.4226 1.7673)" class="st2" width="12.2" height="1.4"/>
				</g>
				<g>
					
						<rect x="17" y="18" transform="matrix(0.9994 -3.559759e-02 3.559759e-02 0.9994 -0.6509 0.8345)" class="st2" width="12.2" height="1.4"/>
				</g>
				<g>
					<rect x="16.8" y="1.4" class="st2" width="12.2" height="1.4"/>
				</g>
				<g>
					
						<rect x="22.3" y="-20.6" transform="matrix(3.420103e-02 -0.9994 0.9994 3.420103e-02 36.6927 8.9589)" class="st2" width="1.4" height="12.2"/>
				</g>
				<g>
					
						<rect x="23.2" y="-37.1" transform="matrix(6.900229e-02 -0.9976 0.9976 6.900229e-02 53.135 -4.9692)" class="st2" width="1.4" height="12.2"/>
				</g>
				<g>
					
						<rect x="24.6" y="-53.6" transform="matrix(0.1038 -0.9946 0.9946 0.1038 69.9281 -17.3397)" class="st2" width="1.4" height="12.2"/>
				</g>
				<g>
					
						<rect x="26.7" y="-70.2" transform="matrix(0.1384 -0.9904 0.9904 0.1384 87.0758 -28.1186)" class="st2" width="1.4" height="12.2"/>
				</g>
				<g>
					
						<rect x="29.3" y="-86.6" transform="matrix(0.1729 -0.9849 0.9849 0.1729 104.151 -37.0495)" class="st2" width="1.4" height="12.2"/>
				</g>
				<g>
					
						<rect x="32.5" y="-102.9" transform="matrix(0.2072 -0.9783 0.9783 0.2072 120.974 -44.2425)" class="st2" width="1.4" height="12.2"/>
				</g>
				<g>
					
						<rect x="36.1" y="-118.9" transform="matrix(0.2412 -0.9705 0.9705 0.2412 137.3964 -49.8836)" class="st2" width="1.4" height="12.2"/>
				</g>
				<g>
					
						<rect x="40.4" y="-135" transform="matrix(0.2749 -0.9615 0.9615 0.2749 153.7119 -53.9462)" class="st2" width="1.4" height="12.2"/>
				</g>
				<g>
					
						<rect x="45.2" y="-150.8" transform="matrix(0.3083 -0.9513 0.9513 0.3083 169.4279 -56.3687)" class="st2" width="1.4" height="12.2"/>
				</g>
				<g>
					
						<rect x="50.6" y="-166.6" transform="matrix(0.3413 -0.94 0.94 0.3413 184.7042 -57.4996)" class="st2" width="1.4" height="12.2"/>
				</g>
				<g>
					
						<rect x="56.5" y="-182.2" transform="matrix(0.3739 -0.9275 0.9275 0.3739 199.1497 -57.1985)" class="st2" width="1.4" height="12.2"/>
				</g>
				<g>
					
						<rect x="62.9" y="-197.5" transform="matrix(0.406 -0.9139 0.9139 0.406 212.7248 -55.5191)" class="st2" width="1.4" height="12.2"/>
				</g>
				<g>
					
						<rect x="70.1" y="-212.5" transform="matrix(0.4376 -0.8992 0.8992 0.4376 225.3864 -52.4122)" class="st2" width="1.4" height="12.2"/>
				</g>
				<g>
					
						<rect x="77.5" y="-227.2" transform="matrix(0.4688 -0.8833 0.8833 0.4688 236.789 -48.3709)" class="st2" width="1.4" height="12.2"/>
				</g>
				<g>
					
						<rect x="85.5" y="-241.8" transform="matrix(0.4993 -0.8664 0.8664 0.4993 247.3943 -43.3288)" class="st2" width="1.4" height="12.2"/>
				</g>
				<g>
					
						<rect x="94.2" y="-256.1" transform="matrix(0.5292 -0.8485 0.8485 0.5292 256.7884 -37.1436)" class="st2" width="1.4" height="12.2"/>
				</g>
				<g>
					
						<rect x="103" y="-270" transform="matrix(0.5585 -0.8295 0.8295 0.5585 264.6581 -30.4973)" class="st2" width="1.4" height="12.2"/>
				</g>
				<g>
					
						<rect x="112.7" y="-283.5" transform="matrix(0.5871 -0.8095 0.8095 0.5871 271.3917 -22.7642)" class="st2" width="1.4" height="12.2"/>
				</g>
				<g>
					
						<rect x="122.5" y="-297" transform="matrix(0.615 -0.7885 0.7885 0.615 276.7917 -14.7754)" class="st2" width="1.4" height="12.2"/>
				</g>
				<g>
					
						<rect x="132.9" y="-309.8" transform="matrix(0.6421 -0.7666 0.7666 0.6421 280.6108 -6.2399)" class="st2" width="1.4" height="12.2"/>
				</g>
				<g>
					
						<rect x="143.9" y="-322.3" transform="matrix(0.6685 -0.7437 0.7437 0.6685 283.1293 2.7488)" class="st2" width="1.4" height="12.2"/>
				</g>
				<g>
					
						<rect x="155.1" y="-334.5" transform="matrix(0.694 -0.7199 0.7199 0.694 284.1219 11.735)" class="st2" width="1.4" height="12.2"/>
				</g>
				<g>
					
						<rect x="166.9" y="-346.2" transform="matrix(0.7187 -0.6953 0.6953 0.7187 283.6446 20.8813)" class="st2" width="1.4" height="12.2"/>
				</g>
				<g>
					
						<rect x="179.1" y="-357.5" transform="matrix(0.7426 -0.6698 0.6698 0.7426 281.6865 29.9933)" class="st2" width="1.4" height="12.2"/>
				</g>
				<g>
					
						<rect x="191.6" y="-368.5" transform="matrix(0.7655 -0.6435 0.6435 0.7655 278.2852 38.7286)" class="st2" width="1.4" height="12.2"/>
				</g>
				<g>
					
						<rect x="204.6" y="-378.9" transform="matrix(0.7875 -0.6164 0.6164 0.7875 273.3786 47.3076)" class="st2" width="1.4" height="12.2"/>
				</g>
				<g>
					
						<rect x="217.7" y="-388.9" transform="matrix(0.8085 -0.5885 0.5885 0.8085 267.0786 55.2487)" class="st2" width="1.4" height="12.2"/>
				</g>
				<g>
					
						<rect x="231.3" y="-398.5" transform="matrix(0.8285 -0.5599 0.5599 0.8285 259.4809 62.6409)" class="st2" width="1.4" height="12.2"/>
				</g>
				<g>
					
						<rect x="245.2" y="-407.5" transform="matrix(0.8476 -0.5307 0.5307 0.8476 250.5175 69.3112)" class="st2" width="1.4" height="12.2"/>
				</g>
				<g>
					
						<rect x="259.4" y="-415.9" transform="matrix(0.8656 -0.5008 0.5008 0.8656 240.1912 75.1907)" class="st2" width="1.4" height="12.2"/>
				</g>
				<g>
					
						<rect x="274" y="-424.1" transform="matrix(0.8825 -0.4703 0.4703 0.8825 228.8501 80.0786)" class="st2" width="1.4" height="12.2"/>
				</g>
				<g>
					
						<rect x="288.8" y="-431.8" transform="matrix(0.8984 -0.4392 0.4392 0.8984 216.3626 83.889)" class="st2" width="1.4" height="12.2"/>
				</g>
				<g>
					
						<rect x="303.7" y="-438.6" transform="matrix(0.9132 -0.4076 0.4076 0.9132 202.7228 86.5066)" class="st2" width="1.4" height="12.2"/>
				</g>
				<g>
					
						<rect x="319" y="-445.1" transform="matrix(0.9268 -0.3755 0.3755 0.9268 188.2546 87.9273)" class="st2" width="1.4" height="12.2"/>
				</g>
				<g>
					
						<rect x="334.6" y="-451.1" transform="matrix(0.9394 -0.3429 0.3429 0.9394 172.9239 87.9812)" class="st2" width="1.4" height="12.2"/>
				</g>
				<g>
					
						<rect x="350.1" y="-456.6" transform="matrix(0.9508 -0.3099 0.3099 0.9508 156.8752 86.5356)" class="st2" width="1.4" height="12.2"/>
				</g>
				<g>
					
						<rect x="366.1" y="-461.5" transform="matrix(0.961 -0.2765 0.2765 0.961 140.2072 83.6831)" class="st2" width="1.4" height="12.2"/>
				</g>
				<g>
					
						<rect x="382.2" y="-465.8" transform="matrix(0.9701 -0.2428 0.2428 0.9701 123.0599 79.2134)" class="st2" width="1.4" height="12.2"/>
				</g>
				<g>
					
						<rect x="398.2" y="-469.6" transform="matrix(0.978 -0.2088 0.2088 0.978 105.5587 73.0831)" class="st2" width="1.4" height="12.2"/>
				</g>
				<g>
					
						<rect x="414.5" y="-472.7" transform="matrix(0.9846 -0.1746 0.1746 0.9846 87.8457 65.3325)" class="st2" width="1.4" height="12.2"/>
				</g>
				<g>
					
						<rect x="431" y="-475.3" transform="matrix(0.9901 -0.1401 0.1401 0.9901 70.0002 55.8597)" class="st2" width="1.4" height="12.2"/>
				</g>
				<g>
					
						<rect x="447.3" y="-477.2" transform="matrix(0.9944 -0.1055 0.1055 0.9944 52.2051 44.6397)" class="st2" width="1.4" height="12.2"/>
				</g>
				<g>
					
						<rect x="463.8" y="-478.7" transform="matrix(0.9975 -7.069967e-02 7.069967e-02 0.9975 34.5727 31.6622)" class="st2" width="1.4" height="12.2"/>
				</g>
				<g>
					
						<rect x="480.6" y="-479.6" transform="matrix(0.9994 -3.589680e-02 3.589680e-02 0.9994 17.3085 16.9735)" class="st2" width="1.4" height="12.2"/>
				</g>
				<g>
					<rect x="497.1" y="-479.9" class="st2" width="1.4" height="12.2"/>
				</g>
			</g>
			<g class="st1">
				<g>
					<path class="st2" d="M498.3-380.7l-5.3-5.3l5.3-5.3l5.3,5.3L498.3-380.7z M495.2-386l3.1,3.1l3.1-3.1l-3.1-3.1L495.2-386z"/>
				</g>
				<g>
					<path class="st2" d="M518.4-380.3l-5-5.7l5.7-5l5,5.7L518.4-380.3z M515.6-385.8l3.1,3.4l3.4-3.1l-3.1-3.4L515.6-385.8z"/>
				</g>
				<g>
					<path class="st2" d="M538.3-378.6l-4.8-6l6-4.8l4.8,6L538.3-378.6z M535.7-384.3l2.9,3.6l3.6-2.9l-2.9-3.6L535.7-384.3z"/>
				</g>
				<g>
					<path class="st2" d="M558.2-376l-4.5-6.2l6.2-4.5l4.5,6.2L558.2-376z M556-381.7l2.6,3.6l3.6-2.6l-2.6-3.6L556-381.7z"/>
				</g>
				<g>
					<path class="st2" d="M578.1-372.4l-4.1-6.2l6.2-4.1l4.1,6.2L578.1-372.4z M575.9-378.1l2.4,3.8l3.8-2.4l-2.4-3.8L575.9-378.1z"
						/>
				</g>
				<g>
					<path class="st2" d="M597.5-367.6l-3.8-6.5l6.5-3.8l3.8,6.5L597.5-367.6z M595.8-373.6l2.2,3.8l3.8-2.2l-2.2-3.8L595.8-373.6z"
						/>
				</g>
				<g>
					<path class="st2" d="M616.6-361.8l-3.4-6.7l6.7-3.4l3.4,6.7L616.6-361.8z M615.2-368l2.2,4.1l4.1-2.2l-2.2-4.1L615.2-368z"/>
				</g>
				<g>
					<path class="st2" d="M635.5-355.1l-3.1-6.9l6.9-3.1l3.1,6.9L635.5-355.1z M634.6-361.3l1.9,4.1l4.1-1.9l-1.9-4.1L634.6-361.3z"
						/>
				</g>
				<g>
					<path class="st2" d="M654-347.5l-2.6-6.9l7.2-2.6l2.6,6.9L654-347.5z M653.3-353.7l1.7,4.3l4.3-1.7l-1.7-4.3L653.3-353.7z"/>
				</g>
				<g>
					<path class="st2" d="M672.2-338.8l-2.4-7.2l7.2-2.4l2.4,7.2L672.2-338.8z M671.7-345.1l1.4,4.3l4.3-1.4l-1.4-4.3L671.7-345.1z"
						/>
				</g>
				<g>
					<path class="st2" d="M689.7-329.3l-1.9-7.4l7.4-1.9l1.9,7.4L689.7-329.3z M689.7-335.5l1.2,4.3l4.3-1.2l-1.2-4.3L689.7-335.5z"
						/>
				</g>
				<g>
					<path class="st2" d="M706.9-319l-1.7-7.4l7.4-1.7l1.7,7.4L706.9-319z M707.1-325.2l1,4.5l4.5-1l-1-4.5L707.1-325.2z"/>
				</g>
				<g>
					<path class="st2" d="M723.4-307.5l-1.2-7.4l7.4-1.2l1.2,7.4L723.4-307.5z M723.9-313.7l0.7,4.5l4.5-0.7l-0.7-4.5L723.9-313.7z"
						/>
				</g>
				<g>
					<path class="st2" d="M739.2-295.3l-0.7-7.4l7.4-0.7l0.7,7.4L739.2-295.3z M740.2-301.5l0.5,4.5l4.5-0.5l-0.5-4.5L740.2-301.5z"
						/>
				</g>
				<g>
					<path class="st2" d="M754.5-282.3l-0.5-7.7l7.7-0.5l0.5,7.7L754.5-282.3z M755.7-288.3l0.2,4.5l4.5-0.2l-0.2-4.5L755.7-288.3z"
						/>
				</g>
				<g>
					<path class="st2" d="M776.6-268.4h-7.7v-7.7h7.7V-268.4z M770.6-269.9h4.5v-4.5h-4.5V-269.9z"/>
				</g>
				<g>
					<path class="st2" d="M790.5-253.6l-7.7-0.5l0.5-7.7l7.7,0.5L790.5-253.6z M784.5-255.3l4.5,0.2l0.2-4.5l-4.5-0.2L784.5-255.3z"
						/>
				</g>
				<g>
					<path class="st2" d="M803.4-237.8l-7.4-0.7l0.7-7.4l7.4,0.7L803.4-237.8z M797.4-239.9l4.5,0.5l0.5-4.5l-4.5-0.5L797.4-239.9z"
						/>
				</g>
				<g>
					<path class="st2" d="M815.4-221.5l-7.4-1.2l1.2-7.4l7.4,1.2L815.4-221.5z M809.6-224.1l4.5,0.7l0.7-4.5l-4.5-0.7L809.6-224.1z"
						/>
				</g>
				<g>
					<path class="st2" d="M826.6-204.7l-7.4-1.7l1.7-7.4l7.4,1.7L826.6-204.7z M821.1-207.4l4.5,1l1-4.5l-4.5-1L821.1-207.4z"/>
				</g>
				<g>
					<path class="st2" d="M837.2-187.3l-7.2-1.9l1.9-7.2l7.2,1.9L837.2-187.3z M831.7-190.1l4.3,1.2l1.2-4.3l-4.3-1.2L831.7-190.1z"
						/>
				</g>
				<g>
					<path class="st2" d="M846.5-169.1l-7.2-2.4l2.4-7.2l7.2,2.4L846.5-169.1z M841.2-172.4l4.3,1.4l1.4-4.3l-4.3-1.4L841.2-172.4z"
						/>
				</g>
				<g>
					<path class="st2" d="M854.9-150.6l-7.2-2.6l2.6-6.9l7.2,2.6L854.9-150.6z M849.9-154.2l4.3,1.7l1.7-4.3l-4.3-1.7L849.9-154.2z"
						/>
				</g>
				<g>
					<path class="st2" d="M862.5-131.7l-6.9-3.1l3.1-6.9l6.9,3.1L862.5-131.7z M857.5-135.5l4.1,1.9l1.9-4.1l-4.1-1.9L857.5-135.5z"
						/>
				</g>
				<g>
					<path class="st2" d="M869-112.5l-6.7-3.4l3.4-6.7l6.7,3.4L869-112.5z M864.2-116.6l4.1,2.2l2.2-4.1l-4.1-2.2L864.2-116.6z"/>
				</g>
				<g>
					<path class="st2" d="M874.5-92.9l-6.5-3.8l3.8-6.5l6.5,3.8L874.5-92.9z M870-97.2l3.8,2.4l2.4-3.8l-3.8-2.2L870-97.2z"/>
				</g>
				<g>
					<path class="st2" d="M878.8-73l-6.2-4.1l4.1-6.2l6.2,4.1L878.8-73z M874.5-77.6l3.8,2.4l2.4-3.8l-3.8-2.4L874.5-77.6z"/>
				</g>
				<g>
					<path class="st2" d="M882.2-53.2l-6.2-4.5l4.5-6.2l6.2,4.5L882.2-53.2z M878.3-57.9l3.6,2.6l2.6-3.6l-3.6-2.6L878.3-57.9z"/>
				</g>
				<g>
					<path class="st2" d="M884.6-32.8l-6-4.8l4.8-6l6,4.8L884.6-32.8z M881-37.8l3.6,2.9l2.9-3.6l-3.6-2.9L881-37.8z"/>
				</g>
				<g>
					<path class="st2" d="M886-12.7l-5.7-5l5-5.7l5.7,5L886-12.7z M882.4-17.7l3.4,3.1l3.1-3.4l-3.4-3.1L882.4-17.7z"/>
				</g>
				<g>
					<path class="st2" d="M886.2,7.7L881,2.4l5.3-5.3l5.3,5.3L886.2,7.7z M882.9,2.4l3.1,3.1l3.1-3.1L886-0.7L882.9,2.4z"/>
				</g>
				<g>
					<path class="st2" d="M885.3,28l-5-5.7l5.7-5l5,5.7L885.3,28z M882.4,22.5l3.1,3.4l3.4-3.1l-3.1-3.4L882.4,22.5z"/>
				</g>
				<g>
					<path class="st2" d="M883.4,48.4l-4.8-6l6-4.8l4.8,6L883.4,48.4z M880.7,42.6l2.9,3.6l3.6-2.9l-2.9-3.6L880.7,42.6z"/>
				</g>
				<g>
					<path class="st2" d="M880.5,68.5l-4.5-6.2l6.2-4.5l4.5,6.2L880.5,68.5z M878.1,62.5l2.6,3.6l3.6-2.6l-2.6-3.6L878.1,62.5z"/>
				</g>
				<g>
					<path class="st2" d="M876.4,88.4l-4.1-6.5l6.5-4.1l4.1,6.5L876.4,88.4z M874.3,82.4l2.4,3.8l3.8-2.4l-2.4-3.8L874.3,82.4z"/>
				</g>
				<g>
					<path class="st2" d="M871.4,108l-3.8-6.5l6.5-3.8l3.8,6.5L871.4,108z M869.7,102l2.4,3.8l3.8-2.4l-2.4-3.8L869.7,102z"/>
				</g>
				<g>
					<path class="st2" d="M865.2,127.4l-3.4-6.7l6.7-3.4l3.4,6.7L865.2,127.4z M864,121.4l2.2,4.1l4.1-2.2l-2.2-4.1L864,121.4z"/>
				</g>
				<g>
					<path class="st2" d="M858.2,146.6l-3.1-6.9l6.9-3.1l3.1,6.9L858.2,146.6z M857,140.3l1.9,4.1l4.1-1.9l-1.9-4.1L857,140.3z"/>
				</g>
				<g>
					<path class="st2" d="M850.1,165l-2.6-7.2l7.2-2.6l2.6,7.2L850.1,165z M849.4,159l1.7,4.3l4.3-1.7l-1.7-4.3L849.4,159z"/>
				</g>
				<g>
					<path class="st2" d="M841,183.2l-2.4-7.2l7.2-2.4l2.4,7.2L841,183.2z M840.8,177l1.4,4.3l4.3-1.4l-1.4-4.3L840.8,177z"/>
				</g>
				<g>
					<path class="st2" d="M831.2,200.9l-1.9-7.4l7.4-1.9l1.9,7.4L831.2,200.9z M830.9,194.7l1.2,4.3l4.3-1.2l-1.2-4.3L830.9,194.7z"
						/>
				</g>
				<g>
					<path class="st2" d="M820.2,218.2l-1.4-7.4l7.4-1.4l1.4,7.4L820.2,218.2z M820.4,211.9l1,4.5l4.5-1l-1-4.5L820.4,211.9z"/>
				</g>
				<g>
					<path class="st2" d="M808.4,234.7l-1.2-7.4l7.4-1.2l1.2,7.4L808.4,234.7z M808.9,228.5l0.7,4.5l4.5-0.7l-0.7-4.5L808.9,228.5z"
						/>
				</g>
				<g>
					<path class="st2" d="M795.7,250.7l-0.7-7.4l7.4-0.7l0.7,7.4L795.7,250.7z M796.7,244.5l0.5,4.5l4.5-0.5l-0.5-4.5L796.7,244.5z"
						/>
				</g>
				<g>
					<path class="st2" d="M782.3,265.8l-0.5-7.7l7.7-0.5l0.5,7.7L782.3,265.8z M783.5,259.8l0.2,4.5l4.5-0.2l-0.2-4.5L783.5,259.8z"
						/>
				</g>
				<g>
					<path class="st2" d="M775.6,280.4H768v-7.7h7.7V280.4z M769.6,279h4.5v-4.5h-4.5V279z"/>
				</g>
				<g>
					<path class="st2" d="M760.5,294.5l-7.7-0.5l0.5-7.7l7.7,0.5L760.5,294.5z M754.8,292.6l4.5,0.2l0.2-4.5l-4.5-0.2L754.8,292.6z"
						/>
				</g>
				<g>
					<path class="st2" d="M745,308l-7.4-0.7l0.7-7.4l7.4,0.7L745,308z M739,305.8l4.5,0.5l0.5-4.5l-4.5-0.5L739,305.8z"/>
				</g>
				<g>
					<path class="st2" d="M728.7,320.4l-7.4-1.2l1.2-7.4l7.4,1.2L728.7,320.4z M722.9,318l4.5,0.7l0.7-4.5l-4.5-0.7L722.9,318z"/>
				</g>
				<g>
					<path class="st2" d="M711.4,332.1l-7.4-1.7l1.7-7.4l7.4,1.7L711.4,332.1z M705.9,329.3l4.5,1l1-4.5l-4.5-1L705.9,329.3z"/>
				</g>
				<g>
					<path class="st2" d="M694,342.7l-7.2-1.9l1.9-7.2l7.2,1.9L694,342.7z M688.5,339.6l4.3,1.2l1.2-4.3l-4.3-1.2L688.5,339.6z"/>
				</g>
				<g>
					<path class="st2" d="M675.8,352.5l-7.2-2.4l2.4-7.2l7.2,2.4L675.8,352.5z M670.5,349.1l4.3,1.4l1.4-4.3l-4.3-1.4L670.5,349.1z"
						/>
				</g>
				<g>
					<path class="st2" d="M657.3,361.4l-7.2-2.6l2.6-7.2l7.2,2.6L657.3,361.4z M652.1,357.8l4.3,1.7l1.7-4.3l-4.3-1.7L652.1,357.8z"
						/>
				</g>
				<g>
					<path class="st2" d="M638.2,369.3l-6.9-3.1l3.1-6.9l6.9,3.1L638.2,369.3z M633.4,365.4l4.1,1.9l1.9-4.1l-4.1-1.9L633.4,365.4z"
						/>
				</g>
				<g>
					<path class="st2" d="M618.8,376l-6.7-3.4l3.4-6.7l6.7,3.4L618.8,376z M614,371.9l4.1,2.2l2.2-4.1l-4.1-2.2L614,371.9z"/>
				</g>
				<g>
					<path class="st2" d="M598.9,381.7l-6.5-3.8l3.8-6.5l6.5,3.8L598.9,381.7z M594.3,377.4l3.8,2.4l2.2-3.8l-3.8-2.4L594.3,377.4z"
						/>
				</g>
				<g>
					<path class="st2" d="M579,386.5l-6.2-4.1l4.1-6.2l6.2,4.1L579,386.5z M574.7,381.9l3.8,2.4l2.4-3.8l-3.8-2.4L574.7,381.9z"/>
				</g>
				<g>
					<path class="st2" d="M558.7,390.3l-6.2-4.5l4.5-6l6.2,4.5L558.7,390.3z M554.6,385.5l3.6,2.6l2.6-3.6l-3.6-2.6L554.6,385.5z"/>
				</g>
				<g>
					<path class="st2" d="M538.3,393l-5.7-4.8l4.8-6l5.7,4.8L538.3,393z M534.5,387.9l3.6,2.9l2.9-3.6l-3.6-2.9L534.5,387.9z"/>
				</g>
				<g>
					<path class="st2" d="M517.7,394.4l-5.5-5l5-5.5l5.5,5L517.7,394.4z M514.1,389.1l3.4,3.1l3.1-3.4l-3.4-3.1L514.1,389.1z"/>
				</g>
				<g>
					<path class="st2" d="M497.1,394.9l-5.3-5.3l5.3-5.3l5.3,5.3L497.1,394.9z M493.8,389.6l3.1,3.4l3.4-3.1l-3.1-3.4L493.8,389.6z"
						/>
				</g>
				<g>
					<path class="st2" d="M476.5,394.2l-5-5.7l5.7-5l5,5.7L476.5,394.2z M473.7,388.7l3.1,3.4l3.4-3.1l-3.1-3.4L473.7,388.7z"/>
				</g>
				<g>
					<path class="st2" d="M455.9,392.5l-4.8-6l6-4.8l4.8,6L455.9,392.5z M453.3,387l2.9,3.6l3.6-2.9l-2.9-3.6L453.3,387z"/>
				</g>
				<g>
					<path class="st2" d="M435.6,389.8l-4.5-6.2l6.2-4.5l4.5,6.2L435.6,389.8z M433.2,384.1l2.6,3.6l3.6-2.6l-2.6-3.6L433.2,384.1z"
						/>
				</g>
				<g>
					<path class="st2" d="M415.2,386l-4.1-6.5l6.5-4.1l4.1,6.5L415.2,386z M413.3,380l2.4,3.8l3.8-2.4l-2.4-3.8L413.3,380z"/>
				</g>
				<g>
					<path class="st2" d="M395.4,381l-3.8-6.5l6.7-3.8l3.8,6.5L395.4,381z M393.4,375l2.2,3.8l3.8-2.2l-2.2-3.8L393.4,375z"/>
				</g>
				<g>
					<path class="st2" d="M375.5,375.2l-3.4-6.7l6.7-3.4l3.4,6.7L375.5,375.2z M374,369l2.2,4.1l4.1-2.2l-2.2-4.1L374,369z"/>
				</g>
				<g>
					<path class="st2" d="M356.1,368.3l-3.1-6.9l6.9-3.1l3.1,6.9L356.1,368.3z M355.1,362.1l1.9,4.1l4.1-1.9l-1.9-4.1L355.1,362.1z"
						/>
				</g>
				<g>
					<path class="st2" d="M337.2,360.4l-2.6-7.2l7.2-2.6l2.6,7.2L337.2,360.4z M336.4,354.2l1.7,4.3l4.3-1.7l-1.7-4.3L336.4,354.2z"
						/>
				</g>
				<g>
					<path class="st2" d="M318.5,351.3l-2.4-7.2l7.2-2.4l2.4,7.2L318.5,351.3z M318.2,345.1l1.4,4.3l4.3-1.4l-1.4-4.3L318.2,345.1z"
						/>
				</g>
				<g>
					<path class="st2" d="M300.5,341.5l-1.9-7.4l7.4-1.9l1.9,7.4L300.5,341.5z M300.3,335.3l1.2,4.3l4.3-1.2l-1.2-4.3L300.3,335.3z"
						/>
				</g>
				<g>
					<path class="st2" d="M283,330.7l-1.7-7.4l7.4-1.4l1.7,7.4L283,330.7z M283.3,324.5l1,4.5l4.5-1l-1-4.5L283.3,324.5z"/>
				</g>
				<g>
					<path class="st2" d="M266,319l-1.2-7.4l7.4-1.2l1.2,7.4L266,319z M266.5,312.7l0.7,4.5l4.5-0.7l-0.7-4.5L266.5,312.7z"/>
				</g>
				<g>
					<path class="st2" d="M249.8,306.3l-0.7-7.4l7.7-0.7l0.7,7.4L249.8,306.3z M250.7,300l0.5,4.5l4.5-0.5l-0.5-4.5L250.7,300z"/>
				</g>
				<g>
					<path class="st2" d="M234.2,292.9l-0.5-7.7l7.7-0.2l0.5,7.7L234.2,292.9z M235.4,286.6l0.2,4.5l4.5-0.2l-0.2-4.5L235.4,286.6z"
						/>
				</g>
				<g>
					<path class="st2" d="M226.8,278.5h-7.7v-7.7h7.7V278.5z M220.8,277.1h4.5v-4.5h-4.5V277.1z"/>
				</g>
				<g>
					<path class="st2" d="M212.6,263.9l-7.7-0.5l0.5-7.7l7.7,0.5L212.6,263.9z M206.7,262.2l4.5,0.2l0.2-4.5l-4.5-0.2L206.7,262.2z"
						/>
				</g>
				<g>
					<path class="st2" d="M199.2,248.6l-7.4-0.7l0.7-7.4l7.4,0.7L199.2,248.6z M193.5,246.4l4.5,0.5l0.5-4.5l-4.5-0.5L193.5,246.4z"
						/>
				</g>
				<g>
					<path class="st2" d="M186.8,232.8l-7.4-1.2l1.2-7.4l7.4,1.2L186.8,232.8z M181,230.1l4.5,0.7l0.7-4.5l-4.5-0.7L181,230.1z"/>
				</g>
				<g>
					<path class="st2" d="M175,216l-7.4-1.7l1.7-7.4l7.4,1.7L175,216z M169.5,213.4l4.3,1l1-4.5l-4.3-1L169.5,213.4z"/>
				</g>
				<g>
					<path class="st2" d="M164.3,198.8l-7.4-1.9l1.9-7.2l7.4,1.9L164.3,198.8z M158.8,195.6l4.3,1.2l1.2-4.3l-4.3-1.2L158.8,195.6z"
						/>
				</g>
				<g>
					<path class="st2" d="M154.5,181l-7.2-2.4l2.4-7.2l7.2,2.4L154.5,181z M149.2,177.7l4.3,1.4l1.4-4.3l-4.3-1.4L149.2,177.7z"/>
				</g>
				<g>
					<path class="st2" d="M145.6,162.8l-7.2-2.6l2.9-7.2l7.2,2.6L145.6,162.8z M140.3,159.2l4.3,1.7l1.7-4.3l-4.3-1.7L140.3,159.2z"
						/>
				</g>
				<g>
					<path class="st2" d="M137.7,144.2l-6.9-3.1l3.1-6.9l6.9,3.1L137.7,144.2z M132.7,140.1l4.1,1.9l1.9-4.1l-4.1-1.9L132.7,140.1z"
						/>
				</g>
				<g>
					<path class="st2" d="M130.5,125l-6.7-3.6l3.6-6.7l6.7,3.6L130.5,125z M126,120.9l4.1,2.2l2.2-4.1l-4.1-2.2L126,120.9z"/>
				</g>
				<g>
					<path class="st2" d="M124.8,105.6l-6.5-3.8l3.8-6.5l6.5,3.8L124.8,105.6z M120.2,101.1l3.8,2.4l2.4-3.8l-3.8-2.4L120.2,101.1z"
						/>
				</g>
				<g>
					<path class="st2" d="M119.7,85.7l-6.2-4.1l4.1-6.2l6.2,4.1L119.7,85.7z M115.4,81.2l3.8,2.4l2.4-3.8l-3.8-2.4L115.4,81.2z"/>
				</g>
				<g>
					<path class="st2" d="M115.9,65.9l-6-4.5l4.5-6l6,4.5L115.9,65.9z M111.8,61.1l3.6,2.6l2.6-3.6l-3.6-2.6L111.8,61.1z"/>
				</g>
				<g>
					<path class="st2" d="M113,45.7l-6-4.8l4.8-6l6,4.8L113,45.7z M109.2,40.7l3.6,2.9l2.9-3.6l-3.6-2.9L109.2,40.7z"/>
				</g>
				<g>
					<path class="st2" d="M111.3,25.4l-5.5-5l5-5.5l5.5,5L111.3,25.4z M107.8,20.4l3.4,3.1l3.1-3.4l-3.4-3.1L107.8,20.4z"/>
				</g>
				<g>
					<path class="st2" d="M110.6,5.3L105.4,0l5.3-5.3l5.3,5.3L110.6,5.3z M107.3-0.2l3.1,3.4l3.1-3.1l-3.1-3.4L107.3-0.2z"/>
				</g>
				<g>
					<path class="st2" d="M110.9-15.1l-5-5.7l5.7-5l5,5.7L110.9-15.1z M108-20.6l3.1,3.4l3.4-3.1l-3.1-3.4L108-20.6z"/>
				</g>
				<g>
					<path class="st2" d="M112.3-35.4l-4.8-6l6-4.8l4.8,6L112.3-35.4z M109.7-41.2l2.9,3.6l3.6-2.9l-2.9-3.6L109.7-41.2z"/>
				</g>
				<g>
					<path class="st2" d="M114.7-55.6l-4.3-6.2l6.2-4.5l4.3,6.2L114.7-55.6z M112.5-61.5l2.6,3.6l3.6-2.6l-2.6-3.6L112.5-61.5z"/>
				</g>
				<g>
					<path class="st2" d="M118.3-75.7l-4.1-6.5l6.5-4.1l4.1,6.5L118.3-75.7z M116.4-81.7l2.4,3.8l3.8-2.4l-2.4-3.8L116.4-81.7z"/>
				</g>
				<g>
					<path class="st2" d="M122.8-95.5l-3.8-6.7l6.7-3.8l3.8,6.7L122.8-95.5z M121.2-101.5l2.2,4.1l4.1-2.2l-2.2-3.8L121.2-101.5z"/>
				</g>
				<g>
					<path class="st2" d="M128.6-114.9l-3.4-6.7l6.7-3.4l3.4,6.7L128.6-114.9z M127.2-121.2l1.9,4.1l4.1-2.2l-1.9-4.1L127.2-121.2z"
						/>
				</g>
				<g>
					<path class="st2" d="M135.1-134.1l-3.1-6.9l6.9-3.1l3.1,6.9L135.1-134.1z M134.1-140.3l1.9,4.1l4.1-1.9l-1.9-4.1L134.1-140.3z"
						/>
				</g>
				<g>
					<path class="st2" d="M142.7-153l-2.6-7.2l7.2-2.6l2.6,7.2L142.7-153z M142-159.2l1.7,4.3l4.3-1.7l-1.7-4.3L142-159.2z"/>
				</g>
				<g>
					<path class="st2" d="M151.3-171.5l-2.4-7.2l7.2-2.4l2.4,7.2L151.3-171.5z M150.9-177.7l1.4,4.3l4.3-1.4l-1.4-4.3L150.9-177.7z"
						/>
				</g>
				<g>
					<path class="st2" d="M160.9-189.4l-1.9-7.4l7.4-1.9l1.9,7.4L160.9-189.4z M160.9-195.6l1.2,4.3l4.3-1.2l-1.2-4.3L160.9-195.6z"
						/>
				</g>
				<g>
					<path class="st2" d="M171.5-206.9l-1.4-7.4l7.4-1.4l1.4,7.4L171.5-206.9z M171.7-213.1l1,4.5l4.5-1l-1-4.5L171.7-213.1z"/>
				</g>
				<g>
					<path class="st2" d="M182.7-223.7l-1.2-7.4l7.4-1.2l1.2,7.4L182.7-223.7z M183.4-229.9l0.7,4.5l4.5-0.7l-0.7-4.5L183.4-229.9z"
						/>
				</g>
				<g>
					<path class="st2" d="M194.9-239.9l-0.7-7.4l7.7-0.7l0.7,7.4L194.9-239.9z M195.9-246.2l0.5,4.5l4.5-0.5l-0.5-4.5L195.9-246.2z"
						/>
				</g>
				<g>
					<path class="st2" d="M208.1-255.5l-0.5-7.7l7.7-0.2l0.5,7.7L208.1-255.5z M209.3-261.5l0.2,4.5l4.5-0.2l-0.2-4.5L209.3-261.5z"
						/>
				</g>
				<g>
					<path class="st2" d="M229.4-270.3h-7.7v-7.7h7.7V-270.3z M223.4-271.8h4.5v-4.5h-4.5V-271.8z"/>
				</g>
				<g>
					<path class="st2" d="M244-284l-7.7-0.5l0.5-7.7l7.7,0.5L244-284z M238.3-285.9l4.5,0.2l0.2-4.5l-4.5-0.2L238.3-285.9z"/>
				</g>
				<g>
					<path class="st2" d="M259.3-296.9l-7.4-1l0.7-7.4l7.4,1L259.3-296.9z M253.6-299.1l4.5,0.5l0.5-4.5l-4.5-0.5L253.6-299.1z"/>
				</g>
				<g>
					<path class="st2" d="M275.4-308.9l-7.4-1.2l1.2-7.4l7.4,1.2L275.4-308.9z M269.6-311.5l4.5,0.7l0.7-4.5l-4.5-0.7L269.6-311.5z"
						/>
				</g>
				<g>
					<path class="st2" d="M291.9-320.2l-7.4-1.7l1.7-7.4l7.4,1.7L291.9-320.2z M286.4-323l4.3,1l1-4.5l-4.3-1L286.4-323z"/>
				</g>
				<g>
					<path class="st2" d="M309.1-330.7l-7.4-1.9l1.9-7.4l7.4,1.9L309.1-330.7z M303.6-333.6l4.3,1.2l1.2-4.3l-4.3-1.2L303.6-333.6z"
						/>
				</g>
				<g>
					<path class="st2" d="M326.9-340l-7.2-2.4l2.4-7.2l7.2,2.4L326.9-340z M321.6-343.4l4.3,1.4l1.4-4.3l-4.3-1.4L321.6-343.4z"/>
				</g>
				<g>
					<path class="st2" d="M345.1-348.7l-6.9-2.6l2.6-6.9l6.9,2.6L345.1-348.7z M339.8-352.2l4.3,1.7l1.7-4.3l-4.3-1.7L339.8-352.2z"
						/>
				</g>
				<g>
					<path class="st2" d="M363.5-356.1l-6.9-3.1l3.1-6.9l6.9,3.1L363.5-356.1z M358.7-359.9l4.1,1.9l1.9-4.1l-4.1-1.9L358.7-359.9z"
						/>
				</g>
				<g>
					<path class="st2" d="M382.4-362.8l-6.7-3.4l3.4-6.7l6.7,3.4L382.4-362.8z M377.9-366.9l4.1,2.2l2.2-4.1l-4.1-2.2L377.9-366.9z"
						/>
				</g>
				<g>
					<path class="st2" d="M401.8-368.3l-6.7-3.8l3.8-6.5l6.5,3.8L401.8-368.3z M397.3-372.6l3.8,2.4l2.4-3.8l-3.8-2.4L397.3-372.6z"
						/>
				</g>
				<g>
					<path class="st2" d="M421.2-372.8l-6.2-4.1l4.1-6.2l6.2,4.1L421.2-372.8z M417.1-377.4l3.8,2.4l2.4-3.8l-3.8-2.4L417.1-377.4z"
						/>
				</g>
				<g>
					<path class="st2" d="M441.1-376.4l-6.2-4.5l4.5-6.2l6.2,4.5L441.1-376.4z M437-381.2l3.6,2.6l2.6-3.6l-3.6-2.6L437-381.2z"/>
				</g>
				<g>
					<path class="st2" d="M461-378.8l-5.7-4.8l4.8-5.7l5.7,4.8L461-378.8z M457.1-383.9l3.6,2.9l2.9-3.6l-3.6-2.9L457.1-383.9z"/>
				</g>
				<g>
					<path class="st2" d="M480.8-380.3l-5.5-5l5-5.5l5.5,5L480.8-380.3z M477.5-385.5l3.4,3.1l3.1-3.4l-3.4-3.1L477.5-385.5z"/>
				</g>
			</g>
			<g class="st1">
				<g>
					<circle class="st2" cx="498.3" cy="-348.2" r="3.1"/>
				</g>
				<g>
					<circle class="st2" cx="510.5" cy="-347.9" r="3.1"/>
				</g>
				<g>
					<circle class="st2" cx="522.7" cy="-347.5" r="3.1"/>
				</g>
				<g>
					<circle class="st2" cx="535" cy="-346.3" r="3.1"/>
				</g>
				<g>
					<circle class="st2" cx="547.2" cy="-344.8" r="3.1"/>
				</g>
				<g>
					<circle class="st2" cx="559.1" cy="-342.9" r="3.1"/>
				</g>
				<g>
					<circle class="st2" cx="571.1" cy="-340.5" r="3.1"/>
				</g>
				<g>
					<circle class="st2" cx="583.1" cy="-337.9" r="3.1"/>
				</g>
				<g>
					<circle class="st2" cx="594.8" cy="-334.5" r="3.1"/>
				</g>
				<g>
					<ellipse class="st2" cx="606.6" cy="-331.1" rx="3.1" ry="3.1"/>
				</g>
				<g>
					<circle class="st2" cx="618.1" cy="-327.1" r="3.1"/>
				</g>
				<g>
					<circle class="st2" cx="629.5" cy="-322.8" r="3.1"/>
				</g>
				<g>
					<circle class="st2" cx="640.8" cy="-318" r="3.1"/>
				</g>
				<g>
					<circle class="st2" cx="651.8" cy="-312.7" r="3.1"/>
				</g>
				<g>
					<circle class="st2" cx="662.6" cy="-307.2" r="3.1"/>
				</g>
				<g>
					<circle class="st2" cx="673.4" cy="-301.2" r="3.1"/>
				</g>
				<g>
					<circle class="st2" cx="683.9" cy="-295" r="3.1"/>
				</g>
				<g>
					<circle class="st2" cx="694" cy="-288.3" r="3.1"/>
				</g>
				<g>
					<circle class="st2" cx="704" cy="-281.4" r="3.1"/>
				</g>
				<g>
					<circle class="st2" cx="713.8" cy="-273.9" r="3.1"/>
				</g>
				<g>
					<circle class="st2" cx="723.4" cy="-266.3" r="3.1"/>
				</g>
				<g>
					<circle class="st2" cx="732.5" cy="-258.4" r="3.1"/>
				</g>
				<g>
					<circle class="st2" cx="741.4" cy="-250" r="3.1"/>
				</g>
				<g>
					<circle class="st2" cx="750" cy="-241.4" r="3.1"/>
				</g>
				<g>
					<circle class="st2" cx="758.4" cy="-232.3" r="3.1"/>
				</g>
				<g>
					<circle class="st2" cx="766.5" cy="-223.2" r="3.1"/>
				</g>
				<g>
					<circle class="st2" cx="774.2" cy="-213.6" r="3.1"/>
				</g>
				<g>
					<circle class="st2" cx="781.6" cy="-203.8" r="3.1"/>
				</g>
				<g>
					<circle class="st2" cx="788.5" cy="-194" r="3.1"/>
				</g>
				<g>
					<circle class="st2" cx="795.3" cy="-183.7" r="3.1"/>
				</g>
				<g>
					<circle class="st2" cx="801.5" cy="-173.1" r="3.1"/>
				</g>
				<g>
					<circle class="st2" cx="807.2" cy="-162.4" r="3.1"/>
				</g>
				<g>
					<circle class="st2" cx="813" cy="-151.6" r="3.1"/>
				</g>
				<g>
					<circle class="st2" cx="818" cy="-140.6" r="3.1"/>
				</g>
				<g>
					<circle class="st2" cx="822.8" cy="-129.3" r="3.1"/>
				</g>
				<g>
					<circle class="st2" cx="827.1" cy="-117.8" r="3.1"/>
				</g>
				<g>
					<circle class="st2" cx="831.2" cy="-106.3" r="3.1"/>
				</g>
				<g>
					<circle class="st2" cx="834.8" cy="-94.6" r="3.1"/>
				</g>
				<g>
					<circle class="st2" cx="837.9" cy="-82.9" r="3.1"/>
				</g>
				<g>
					<circle class="st2" cx="840.8" cy="-70.9" r="3.1"/>
				</g>
				<g>
					<circle class="st2" cx="842.9" cy="-58.9" r="3.1"/>
				</g>
				<g>
					<circle class="st2" cx="844.8" cy="-46.9" r="3.1"/>
				</g>
				<g>
					<circle class="st2" cx="846.3" cy="-34.7" r="3.1"/>
				</g>
				<g>
					<circle class="st2" cx="847.5" cy="-22.5" r="3.1"/>
				</g>
				<g>
					<circle class="st2" cx="847.9" cy="-10.3" r="3.1"/>
				</g>
				<g>
					<circle class="st2" cx="848.2" cy="1.9" r="3.1"/>
				</g>
				<g>
					<circle class="st2" cx="847.9" cy="14.1" r="3.1"/>
				</g>
				<g>
					<circle class="st2" cx="847.5" cy="26.3" r="3.1"/>
				</g>
				<g>
					<circle class="st2" cx="846.3" cy="38.3" r="3.1"/>
				</g>
				<g>
					<circle class="st2" cx="844.8" cy="50.5" r="3.1"/>
				</g>
				<g>
					<circle class="st2" cx="842.9" cy="62.7" r="3.1"/>
				</g>
				<g>
					<circle class="st2" cx="840.5" cy="74.7" r="3.1"/>
				</g>
				<g>
					<circle class="st2" cx="837.9" cy="86.4" r="3.1"/>
				</g>
				<g>
					<circle class="st2" cx="834.8" cy="98.4" r="3.1"/>
				</g>
				<g>
					<circle class="st2" cx="831.2" cy="109.9" r="3.1"/>
				</g>
				<g>
					<circle class="st2" cx="827.1" cy="121.7" r="3.1"/>
				</g>
				<g>
					<circle class="st2" cx="822.8" cy="132.9" r="3.1"/>
				</g>
				<g>
					<circle class="st2" cx="818" cy="144.2" r="3.1"/>
				</g>
				<g>
					<circle class="st2" cx="812.7" cy="155.2" r="3.1"/>
				</g>
				<g>
					<circle class="st2" cx="807.2" cy="166.2" r="3.1"/>
				</g>
				<g>
					<circle class="st2" cx="801.2" cy="176.7" r="3.1"/>
				</g>
				<g>
					<circle class="st2" cx="795" cy="187.3" r="3.1"/>
				</g>
				<g>
					<circle class="st2" cx="788.3" cy="197.6" r="3.1"/>
				</g>
				<g>
					<circle class="st2" cx="781.4" cy="207.6" r="3.1"/>
				</g>
				<g>
					<circle class="st2" cx="773.9" cy="217.2" r="3.1"/>
				</g>
				<g>
					<circle class="st2" cx="766.3" cy="226.8" r="3.1"/>
				</g>
				<g>
					<circle class="st2" cx="758.4" cy="236.1" r="3.1"/>
				</g>
				<g>
					<circle class="st2" cx="750" cy="245" r="3.1"/>
				</g>
				<g>
					<circle class="st2" cx="741.4" cy="253.6" r="3.1"/>
				</g>
				<g>
					<circle class="st2" cx="732.3" cy="262" r="3.1"/>
				</g>
				<g>
					<circle class="st2" cx="723.2" cy="269.9" r="3.1"/>
				</g>
				<g>
					<circle class="st2" cx="713.6" cy="277.5" r="3.1"/>
				</g>
				<g>
					<circle class="st2" cx="703.8" cy="285" r="3.1"/>
				</g>
				<g>
					<circle class="st2" cx="694" cy="291.9" r="3.1"/>
				</g>
				<g>
					<circle class="st2" cx="683.7" cy="298.6" r="3.1"/>
				</g>
				<g>
					<circle class="st2" cx="673.1" cy="304.8" r="3.1"/>
				</g>
				<g>
					<circle class="st2" cx="662.4" cy="310.8" r="3.1"/>
				</g>
				<g>
					<circle class="st2" cx="651.6" cy="316.3" r="3.1"/>
				</g>
				<g>
					<circle class="st2" cx="640.6" cy="321.4" r="3.1"/>
				</g>
				<g>
					<circle class="st2" cx="629.3" cy="326.2" r="3.1"/>
				</g>
				<g>
					<circle class="st2" cx="617.8" cy="330.7" r="3.1"/>
				</g>
				<g>
					<circle class="st2" cx="606.3" cy="334.5" r="3.1"/>
				</g>
				<g>
					<circle class="st2" cx="594.6" cy="338.1" r="3.1"/>
				</g>
				<g>
					<circle class="st2" cx="582.9" cy="341.2" r="3.1"/>
				</g>
				<g>
					<circle class="st2" cx="570.9" cy="344.1" r="3.1"/>
				</g>
				<g>
					<circle class="st2" cx="558.9" cy="346.3" r="3.1"/>
				</g>
				<g>
					<circle class="st2" cx="546.9" cy="348.2" r="3.1"/>
				</g>
				<g>
					<circle class="st2" cx="534.7" cy="349.9" r="3.1"/>
				</g>
				<g>
					<circle class="st2" cx="522.5" cy="350.8" r="3.1"/>
				</g>
				<g>
					<circle class="st2" cx="510.3" cy="351.5" r="3.1"/>
				</g>
				<g>
					<circle class="st2" cx="498.1" cy="351.5" r="3.1"/>
				</g>
				<g>
					<circle class="st2" cx="485.9" cy="351.5" r="3.1"/>
				</g>
				<g>
					<circle class="st2" cx="473.7" cy="350.8" r="3.1"/>
				</g>
				<g>
					<circle class="st2" cx="461.4" cy="349.6" r="3.1"/>
				</g>
				<g>
					<circle class="st2" cx="449.5" cy="348.2" r="3.1"/>
				</g>
				<g>
					<circle class="st2" cx="437.3" cy="346.3" r="3.1"/>
				</g>
				<g>
					<circle class="st2" cx="425.3" cy="343.9" r="3.1"/>
				</g>
				<g>
					<circle class="st2" cx="413.6" cy="341.2" r="3.1"/>
				</g>
				<g>
					<circle class="st2" cx="401.6" cy="338.1" r="3.1"/>
				</g>
				<g>
					<circle class="st2" cx="390.1" cy="334.5" r="3.1"/>
				</g>
				<g>
					<circle class="st2" cx="378.3" cy="330.5" r="3.1"/>
				</g>
				<g>
					<circle class="st2" cx="367.1" cy="326.2" r="3.1"/>
				</g>
				<g>
					<circle class="st2" cx="355.8" cy="321.4" r="3.1"/>
				</g>
				<g>
					<circle class="st2" cx="344.8" cy="316.1" r="3.1"/>
				</g>
				<g>
					<circle class="st2" cx="333.8" cy="310.6" r="3.1"/>
				</g>
				<g>
					<circle class="st2" cx="323.3" cy="304.6" r="3.1"/>
				</g>
				<g>
					<circle class="st2" cx="312.7" cy="298.4" r="3.1"/>
				</g>
				<g>
					
						<ellipse transform="matrix(7.088734e-02 -0.9975 0.9975 7.088734e-02 -9.8724 572.6831)" class="st2" cx="302.5" cy="291.6" rx="3.1" ry="3.1"/>
				</g>
				<g>
					<circle class="st2" cx="292.4" cy="284.7" r="3.1"/>
				</g>
				<g>
					<circle class="st2" cx="282.8" cy="277.3" r="3.1"/>
				</g>
				<g>
					<circle class="st2" cx="273.2" cy="269.6" r="3.1"/>
				</g>
				<g>
					<circle class="st2" cx="263.9" cy="261.5" r="3.1"/>
				</g>
				<g>
					<circle class="st2" cx="255" cy="253.1" r="3.1"/>
				</g>
				<g>
					<circle class="st2" cx="246.4" cy="244.5" r="3.1"/>
				</g>
				<g>
					<circle class="st2" cx="238" cy="235.6" r="3.1"/>
				</g>
				<g>
					<circle class="st2" cx="230.1" cy="226.5" r="3.1"/>
				</g>
				<g>
					<circle class="st2" cx="222.5" cy="217" r="3.1"/>
				</g>
				<g>
					<circle class="st2" cx="215" cy="207.1" r="3.1"/>
				</g>
				<g>
					<circle class="st2" cx="208.1" cy="197.1" r="3.1"/>
				</g>
				<g>
					<circle class="st2" cx="201.4" cy="186.8" r="3.1"/>
				</g>
				<g>
					<circle class="st2" cx="195.2" cy="176.5" r="3.1"/>
				</g>
				<g>
					<circle class="st2" cx="189.2" cy="165.7" r="3.1"/>
				</g>
				<g>
					<circle class="st2" cx="183.7" cy="154.9" r="3.1"/>
				</g>
				<g>
					<circle class="st2" cx="178.6" cy="143.7" r="3.1"/>
				</g>
				<g>
					<circle class="st2" cx="173.8" cy="132.4" r="3.1"/>
				</g>
				<g>
					<circle class="st2" cx="169.5" cy="121.2" r="3.1"/>
				</g>
				<g>
					<circle class="st2" cx="165.5" cy="109.4" r="3.1"/>
				</g>
				<g>
					<circle class="st2" cx="161.9" cy="97.9" r="3.1"/>
				</g>
				<g>
					<circle class="st2" cx="158.8" cy="86" r="3.1"/>
				</g>
				<g>
					<circle class="st2" cx="156.1" cy="74.2" r="3.1"/>
				</g>
				<g>
					<circle class="st2" cx="153.7" cy="62.3" r="3.1"/>
				</g>
				<g>
					<ellipse class="st2" cx="151.8" cy="50.1" rx="3.1" ry="3.1"/>
				</g>
				<g>
					
						<ellipse transform="matrix(0.9985 -5.529919e-02 5.529919e-02 0.9985 -1.8631 8.3738)" class="st2" cx="150.4" cy="37.9" rx="3.1" ry="3.1"/>
				</g>
				<g>
					<circle class="st2" cx="149.2" cy="25.9" r="3.1"/>
				</g>
				<g>
					
						<ellipse transform="matrix(0.9985 -5.529873e-02 5.529873e-02 0.9985 -0.5281 8.2446)" class="st2" cx="148.7" cy="13.7" rx="3.1" ry="3.1"/>
				</g>
				<g>
					
						<ellipse transform="matrix(0.9985 -5.529911e-02 5.529911e-02 0.9985 0.1468 8.2128)" class="st2" cx="148.5" cy="1.5" rx="3.1" ry="3.1"/>
				</g>
				<g>
					<circle class="st2" cx="148.7" cy="-10.8" r="3.1"/>
				</g>
				<g>
					
						<ellipse transform="matrix(0.9985 -5.529816e-02 5.529816e-02 0.9985 1.4992 8.2282)" class="st2" cx="149.4" cy="-23" rx="3.1" ry="3.1"/>
				</g>
				<g>
					
						<ellipse transform="matrix(0.9985 -5.529939e-02 5.529939e-02 0.9985 2.1757 8.2625)" class="st2" cx="150.4" cy="-35.2" rx="3.1" ry="3.1"/>
				</g>
				<g>
					<ellipse class="st2" cx="151.8" cy="-47.4" rx="3.1" ry="3.1"/>
				</g>
				<g>
					<circle class="st2" cx="153.7" cy="-59.4" r="3.1"/>
				</g>
				<g>
					<circle class="st2" cx="156.1" cy="-71.4" r="3.1"/>
				</g>
				<g>
					<circle class="st2" cx="159" cy="-83.3" r="3.1"/>
				</g>
				<g>
					<circle class="st2" cx="162.1" cy="-95.1" r="3.1"/>
				</g>
				<g>
					<circle class="st2" cx="165.7" cy="-106.8" r="3.1"/>
				</g>
				<g>
					<circle class="st2" cx="169.8" cy="-118.3" r="3.1"/>
				</g>
				<g>
					<circle class="st2" cx="174.1" cy="-129.8" r="3.1"/>
				</g>
				<g>
					<circle class="st2" cx="178.9" cy="-141" r="3.1"/>
				</g>
				<g>
					<circle class="st2" cx="183.9" cy="-152.1" r="3.1"/>
				</g>
				<g>
					<circle class="st2" cx="189.7" cy="-162.8" r="3.1"/>
				</g>
				<g>
					<circle class="st2" cx="195.6" cy="-173.6" r="3.1"/>
				</g>
				<g>
					<circle class="st2" cx="201.9" cy="-184.1" r="3.1"/>
				</g>
				<g>
					<circle class="st2" cx="208.6" cy="-194.2" r="3.1"/>
				</g>
				<g>
					<circle class="st2" cx="215.5" cy="-204.3" r="3.1"/>
				</g>
				<g>
					<circle class="st2" cx="222.9" cy="-214.1" r="3.1"/>
				</g>
				<g>
					<circle class="st2" cx="230.6" cy="-223.4" r="3.1"/>
				</g>
				<g>
					<circle class="st2" cx="238.5" cy="-232.8" r="3.1"/>
				</g>
				<g>
					<circle class="st2" cx="246.9" cy="-241.6" r="3.1"/>
				</g>
				<g>
					<circle class="st2" cx="255.5" cy="-250.2" r="3.1"/>
				</g>
				<g>
					<circle class="st2" cx="264.6" cy="-258.6" r="3.1"/>
				</g>
				<g>
					<circle class="st2" cx="273.7" cy="-266.5" r="3.1"/>
				</g>
				<g>
					<circle class="st2" cx="283.3" cy="-274.2" r="3.1"/>
				</g>
				<g>
					<circle class="st2" cx="293.1" cy="-281.6" r="3.1"/>
				</g>
				<g>
					<circle class="st2" cx="302.9" cy="-288.5" r="3.1"/>
				</g>
				<g>
					<circle class="st2" cx="313.2" cy="-295.3" r="3.1"/>
				</g>
				<g>
					<circle class="st2" cx="323.8" cy="-301.5" r="3.1"/>
				</g>
				<g>
					<circle class="st2" cx="334.5" cy="-307.5" r="3.1"/>
				</g>
				<g>
					<circle class="st2" cx="345.3" cy="-313" r="3.1"/>
				</g>
				<g>
					<circle class="st2" cx="356.6" cy="-318" r="3.1"/>
				</g>
				<g>
					<circle class="st2" cx="367.8" cy="-322.8" r="3.1"/>
				</g>
				<g>
					<circle class="st2" cx="379.1" cy="-327.3" r="3.1"/>
				</g>
				<g>
					<circle class="st2" cx="390.6" cy="-331.2" r="3.1"/>
				</g>
				<g>
					<circle class="st2" cx="402.3" cy="-334.8" r="3.1"/>
				</g>
				<g>
					<circle class="st2" cx="414.3" cy="-337.9" r="3.1"/>
				</g>
				<g>
					<circle class="st2" cx="426" cy="-340.5" r="3.1"/>
				</g>
				<g>
					<circle class="st2" cx="438" cy="-342.9" r="3.1"/>
				</g>
				<g>
					<circle class="st2" cx="450.2" cy="-344.8" r="3.1"/>
				</g>
				<g>
					<circle class="st2" cx="462.2" cy="-346.3" r="3.1"/>
				</g>
				<g>
					<circle class="st2" cx="474.4" cy="-347.5" r="3.1"/>
				</g>
				<g>
					<circle class="st2" cx="486.6" cy="-347.9" r="3.1"/>
				</g>
			</g>
		</g>
	</g>
</g>
</svg>
