
<svg fill="none" xmlns:xlink="http://www.w3.org/1999/xlink" xmlns="http://www.w3.org/2000/svg" height="56" width="39" viewBox="0 0 39 56">
    <!--Created with Nila (0.3.7-beta.2)-->
    <defs>
        <linearGradient id="linearGradient1" x1="79.93227%" y1="-7.4780583%" y2="92.19661%" x2="20.167332%">
            <stop stop-opacity="1.0" stop-color="#00CCAC" offset="0.0%"></stop>
            <stop stop-opacity="1.0" stop-color="#00B0BA" offset="49.0%"></stop>
            <stop stop-opacity="1.0" stop-color="#0063F0" offset="92.0%"></stop>
        </linearGradient>
        <linearGradient id="linearGradient2" x1="103.31478%" y1="-73.9919%" y2="244.78937%" x2="-59.861797%">
            <stop stop-opacity="1.0" stop-color="#00CCAC" offset="0.0%"></stop>
            <stop stop-opacity="1.0" stop-color="#00B0BA" offset="49.0%"></stop>
            <stop stop-opacity="1.0" stop-color="#0063F0" offset="92.0%"></stop>
        </linearGradient>
        <linearGradient y2="106.11576%" id="linearGradient3" y1="3.3476596%" x2="49.994816%" x1="49.994816%">
            <stop stop-opacity="1.0" stop-color="#00CCAC" offset="0.0%"></stop>
            <stop stop-opacity="1.0" stop-color="#00B0BA" offset="49.0%"></stop>
            <stop stop-opacity="1.0" stop-color="#0063F0" offset="92.0%"></stop>
        </linearGradient>
        <linearGradient y2="39.31565%" id="linearGradient4" y1="74.552444%" x2="112.90003%" x1="10.922544%">
            <stop stop-opacity="0.0" offset="0.0%" stop-color="#007B9A"></stop>
            <stop stop-opacity="1.0" offset="100.0%" stop-color="#007B9A"></stop>
        </linearGradient>
        <linearGradient y2="50.022675%" id="linearGradient5" y1="50.022675%" x2="100.0%" x1="0.0%">
            <stop stop-opacity="1.0" offset="14.0%" stop-color="#0091AC"></stop>
            <stop stop-opacity="1.0" offset="100.0%" stop-color="#00A8BA"></stop>
        </linearGradient>
    </defs>
    <g opacity="1.0">
        <g opacity="1.0">
            <g opacity="1.0">
                <g opacity="1.0">
                    <path d="M 28.58 15.94 L 26.49 15.94 C 26.48 15.87 26.47 15.8 26.46 15.74 C 26.45 15.63 26.43 15.49 26.4 15.32 C 26.23 14.32 25.78 12.2 24.7 9.84 C 24 8.32 23.03 6.66 21.68 5.05 C 20.81 4.06 19.7 3.18 19.56 3.07 C 18.44 2.25 17.2 1.59 15.81 1.07 C 13.97 0.37 12.05 0.02 10.07 0 C 9.11 -0.02 8.19 0.04 7.29 0.18 L 7.29 0.18 C 6.92 0.23 6.5 0.32 6.03 0.45 C 5.05 0.72 4.37 1.18 3.97 1.84 C 3.95 1.88 3.93 1.91 3.91 1.95 C 3.9 1.96 3.9 1.96 3.89 1.97 C 3.89 1.98 3.88 1.99 3.88 2 C 3.6 2.5 3.49 3.02 3.55 3.55 C 3.66 5.01 4.9 6.16 6.42 6.16 C 6.76 6.16 7.08 6.11 7.38 6 C 8.02 5.86 8.83 5.76 9.31 5.72 C 10.24 5.64 13.71 5.57 16.9 8.09 C 19.26 9.95 20.82 12.75 20.99 15.94 L 15.32 15.94 C 14.96 15.92 14.61 15.92 14.27 15.92 C 14.24 15.92 14.2 15.92 14.16 15.92 C 13.74 15.92 13.33 15.92 12.94 15.94 L 12.71 15.94 C 10.79 16.04 9.12 16.42 8.77 16.5 C 7.24 16.88 5.91 17.46 4.77 18.24 L 4.75 18.25 C 3.21 19.29 2.01 20.66 1.16 22.37 C 0.5 23.66 0.13 25 0.03 26.38 C -0 26.82 -0.01 27.27 0.01 27.72 C 0.1 29.57 0.67 31.29 1.73 32.9 L 1.71 32.92 C 2.75 34.53 4.1 35.77 5.74 36.66 C 7.83 37.8 10.2 38.2 12.84 37.86 C 13.11 37.83 13.38 37.79 13.65 37.74 C 15.07 37.48 16.46 36.89 17.48 36.37 C 18.16 35.98 18.92 35.49 19.68 34.87 C 25.75 29.31 26.44 21.67 26.44 21.67 L 26.51 21.67 L 26.51 21.67 L 28.58 21.67 L 28.58 15.94 ZM 20.88 21.76 L 20.86 21.86 C 20.86 21.9 20.85 21.94 20.85 21.98 C 20.76 22.41 20.67 22.85 20.56 23.28 C 20.28 24.39 19.91 25.42 19.46 26.38 C 19.25 26.82 19.02 27.23 18.79 27.63 C 18.77 27.63 18.76 27.64 18.76 27.66 C 18.31 28.39 17.82 29.06 17.27 29.65 C 16.84 30.1 16.38 30.5 15.89 30.88 C 14.75 31.7 13.49 32.19 12.09 32.37 C 10.75 32.54 9.54 32.35 8.45 31.8 L 8.41 31.8 C 7.62 31.36 6.98 30.74 6.48 29.96 C 5.96 29.17 5.68 28.33 5.65 27.43 L 5.63 27.45 C 5.62 27.09 5.64 26.73 5.7 26.38 C 5.79 25.85 5.96 25.33 6.2 24.82 L 6.2 24.86 C 6.62 24.04 7.21 23.36 7.96 22.83 C 8.82 22.26 9.87 21.87 11.12 21.67 L 11.14 21.67 C 11.16 21.67 11.18 21.67 11.19 21.66 C 11.37 21.64 11.81 21.6 12.21 21.61 C 12.26 21.61 12.3 21.61 12.34 21.61 L 20.91 21.61 L 20.88 21.76 ZM 26.51 21.65 C 26.51 21.65 26.51 21.64 26.51 21.65 L 26.51 21.65 Z" fill-rule="nonzero" fill="url(#linearGradient1)"></path>
                    <path d="M 36.13 15.94 L 34.28 15.94 L 34.28 21.61 L 36.13 21.61 C 37.72 21.61 39 20.34 39 18.78 L 39 18.76 C 39 17.2 37.72 15.93 36.13 15.93 Z" fill-rule="nonzero" fill="url(#linearGradient2)"></path>
                </g>
                <path d="M 34.28 9.08 C 34.28 7.53 33 6.28 31.43 6.28 C 29.86 6.28 28.58 7.53 28.58 9.08 L 28.58 35.17 C 28.55 36.72 29.83 37.98 31.41 37.98 L 31.41 37.98 C 31.41 37.98 31.42 37.98 31.42 37.98 C 31.42 37.98 31.42 37.98 31.43 37.98 C 33 37.98 34.27 36.73 34.27 35.18 L 34.27 35.18 C 34.28 35.17 34.28 35.16 34.28 35.16 L 34.28 9.08 Z" fill-rule="nonzero" fill="url(#linearGradient3)"></path>
            </g>
            <g opacity="1.0">
                <path d="M 20.99 15.94 L 19.41 15.94 C 18.71 18.13 17.43 20.07 15.76 21.61 L 20.91 21.61 C 21.03 20.61 21.14 19.47 21.12 18.35 C 21.11 17.41 21.08 16.72 20.99 15.94 Z" fill-rule="nonzero" fill="url(#linearGradient4)"></path>
                <path d="M 27.78 15.94 L 26.49 15.94 C 26.49 15.98 26.49 16.02 26.49 16.06 C 26.59 17.03 26.75 19.23 26.45 21.67 L 28.58 21.67 L 28.58 15.94 L 27.78 15.94 Z" fill="#006F95"></path>
                <path d="M 36.13 15.94 L 34.28 15.94 L 34.28 21.61 L 36.13 21.61 C 37.72 21.61 39 20.34 39 18.78 L 39 18.76 C 39 17.2 37.72 15.93 36.13 15.93 Z" fill-rule="nonzero" fill="url(#linearGradient5)"></path>
            </g>
        </g>
        <g opacity="1.0">
            <polygon points="6.76 46.77  6.76 55.84  4.64 55.84  4.64 43.92  7.42 43.92  12.68 52.44  12.68 43.92  14.79 43.92  14.79 55.84  12.37 55.84  6.76 46.77" fill="#FFF"></polygon>
            <path d="M 19.18 45.63 C 19.04 45.69 18.87 45.72 18.7 45.72 C 18.52 45.72 18.36 45.69 18.21 45.63 C 18.06 45.57 17.93 45.49 17.81 45.38 C 17.7 45.28 17.61 45.15 17.54 45 C 17.47 44.86 17.44 44.7 17.44 44.53 C 17.44 44.36 17.47 44.2 17.54 44.05 C 17.61 43.91 17.69 43.79 17.81 43.68 C 17.92 43.58 18.05 43.5 18.2 43.44 C 18.36 43.38 18.52 43.35 18.7 43.35 C 18.87 43.35 19.03 43.38 19.18 43.44 C 19.33 43.5 19.46 43.58 19.57 43.68 C 19.68 43.79 19.77 43.91 19.83 44.05 C 19.9 44.2 19.93 44.36 19.93 44.53 C 19.93 44.7 19.9 44.86 19.83 45.01 C 19.77 45.16 19.68 45.28 19.57 45.39 C 19.46 45.5 19.33 45.58 19.18 45.63 ZM 19.77 47.12 L 19.77 55.84 L 17.65 55.84 L 17.65 47.12 L 19.77 47.12 Z" fill="#FFF"></path>
            <polygon points="24.63 42.68  24.63 55.84  22.52 55.84  22.52 43.59  24.63 42.68" fill="#FFF"></polygon>
            <path d="M 31.16 55.72 C 30.7 55.91 30.19 56 29.64 56 C 29.22 56 28.83 55.95 28.47 55.84 C 28.1 55.74 27.79 55.58 27.53 55.36 C 27.26 55.15 27.05 54.88 26.9 54.56 C 26.75 54.24 26.68 53.86 26.68 53.42 C 26.68 52.95 26.77 52.55 26.95 52.24 C 27.14 51.92 27.38 51.66 27.69 51.45 C 28 51.25 28.35 51.09 28.75 50.98 C 29.14 50.87 29.55 50.79 29.97 50.74 C 30.39 50.69 30.81 50.67 31.22 50.66 C 31.63 50.66 32.01 50.65 32.35 50.65 L 32.35 50.52 C 32.35 50.26 32.33 50 32.3 49.75 C 32.27 49.51 32.19 49.29 32.07 49.09 C 31.95 48.9 31.77 48.75 31.54 48.65 C 31.31 48.54 31.01 48.49 30.63 48.49 C 30.41 48.49 30.21 48.51 30 48.57 C 29.8 48.62 29.61 48.7 29.44 48.81 C 29.27 48.91 29.12 49.04 28.98 49.2 C 28.85 49.35 28.75 49.53 28.67 49.73 L 27.02 49.03 C 27.17 48.65 27.38 48.32 27.65 48.06 C 27.91 47.79 28.22 47.57 28.56 47.41 C 28.9 47.24 29.26 47.12 29.65 47.05 C 30.04 46.97 30.43 46.93 30.82 46.93 C 31.35 46.93 31.83 46.99 32.28 47.12 C 32.72 47.24 33.1 47.44 33.43 47.7 C 33.75 47.96 34 48.3 34.18 48.7 C 34.36 49.11 34.45 49.59 34.45 50.14 L 34.45 55.84 L 32.36 55.84 L 32.36 54.77 C 32.03 55.21 31.63 55.53 31.16 55.72 ZM 29.62 54.45 C 29.79 54.5 29.98 54.52 30.18 54.52 C 30.45 54.52 30.72 54.48 30.97 54.41 C 31.23 54.34 31.46 54.24 31.67 54.09 C 31.87 53.95 32.04 53.77 32.16 53.55 C 32.28 53.33 32.35 53.08 32.35 52.79 L 32.35 51.94 L 31.29 51.94 C 31.05 51.94 30.78 51.95 30.49 51.98 C 30.19 52 29.92 52.06 29.66 52.16 C 29.41 52.25 29.19 52.39 29.02 52.58 C 28.84 52.77 28.76 53.02 28.76 53.34 C 28.76 53.56 28.79 53.74 28.86 53.89 C 28.94 54.04 29.04 54.16 29.16 54.25 C 29.29 54.35 29.44 54.41 29.62 54.46 Z" fill="#FFF"></path>
        </g>
    </g>
</svg>