<?xml version="1.0" encoding="utf-8"?>
<!-- Generator: Adobe Illustrator 26.5.0, SVG Export Plug-In . SVG Version: 6.00 Build 0)  -->
<svg version="1.1" id="Layer_1" xmlns="http://www.w3.org/2000/svg" xmlns:xlink="http://www.w3.org/1999/xlink" x="0px" y="0px"
	 viewBox="0 0 7680 4732" style="enable-background:new 0 0 7680 4732;" xml:space="preserve">
<style type="text/css">
	.st0{fill:none;}
	.st1{fill:#403B4C;}
	.st2{fill-rule:evenodd;clip-rule:evenodd;fill:url(#SVGID_1_);}
</style>
<pattern  width="500" height="500" patternUnits="userSpaceOnUse" id="New_Pattern_Swatch_2" viewBox="0 -500 500 500" style="overflow:visible;">
	<g>
		<rect y="-500" class="st0" width="500" height="500"/>
		<path class="st0" d="M389.7-333.1l-33.8,24.6c-2.1,1.5-3,4.3-2.2,6.8l12.9,39.8c0.8,2.5,3.1,4.2,5.8,4.2h41.8
			c2.6,0,4.9-1.7,5.8-4.2l12.9-39.8c0.8-2.5-0.1-5.2-2.2-6.8l-33.8-24.6C394.7-334.6,391.9-334.6,389.7-333.1z"/>
		<path class="st0" d="M351.7-389.7l74.9,28.9c0.8,0.3,1.6,0.2,2.3-0.4c0.7-0.5,1-1.3,0.8-2.2l-12.4-79.4c-0.1-0.8-0.7-1.5-1.5-1.8
			c-0.3-0.1-0.6-0.2-0.8-0.2c-0.5,0-1,0.2-1.4,0.5L351-393.6c-0.7,0.5-1,1.3-0.8,2.2C350.3-390.7,350.9-390,351.7-389.7z"/>
		<path class="st0" d="M245.6-351.1H319c2.2,0,3.9-1.8,3.9-3.9v-73.4c0-2.2-1.8-3.9-3.9-3.9h-73.5c-2.2,0-3.9,1.8-3.9,3.9v73.4
			C241.6-352.9,243.4-351.1,245.6-351.1z"/>
		<path class="st0" d="M301.5-233.3c0.6,0.6,1.5,0.9,2.4,0.6c0.9-0.2,1.5-0.9,1.7-1.7l22-81.8c0.2-0.9,0-1.8-0.6-2.4
			c-0.6-0.6-1.5-0.9-2.4-0.6l-81.8,22c-0.9,0.2-1.5,0.9-1.7,1.7c-0.2,0.9,0,1.8,0.6,2.4L301.5-233.3z"/>
		<path class="st0" d="M174.7-379.3c15,0,27.2-12.2,27.2-27.2s-12.2-27.2-27.2-27.2s-27.2,12.2-27.2,27.2S159.7-379.3,174.7-379.3z"
			/>
		<path class="st0" d="M178.7-143.3c0.4-0.8,0.3-1.7-0.2-2.5l-46.8-70.6c-0.5-0.7-1.2-1.1-2.1-1.1c-0.1,0-0.1,0-0.2,0
			c-0.9,0.1-1.7,0.6-2.1,1.4l-37.7,75.9c-0.4,0.8-0.3,1.7,0.2,2.5s1.3,1.2,2.2,1.1l84.5-5.3C177.5-142,178.3-142.5,178.7-143.3z"/>
		<path class="st0" d="M193.9-111.8h-59.5c-1.7,0-3.1,1.4-3.1,3.1v59.4c0,1.7,1.4,3.1,3.1,3.1h59.5c1.7,0,3.1-1.4,3.1-3.1v-59.4
			C197-110.4,195.6-111.8,193.9-111.8z"/>
		<path class="st0" d="M91-235.3l54.5-26.4c1.6-0.8,2.2-2.6,1.5-4.2l-26.3-54.4c-0.4-0.8-1-1.3-1.8-1.6c-0.3-0.1-0.7-0.2-1-0.2
			c-0.5,0-0.9,0.1-1.4,0.3l-54.5,26.4c-0.8,0.4-1.3,1-1.6,1.8s-0.2,1.6,0.1,2.4l26.3,54.4C87.6-235.2,89.5-234.6,91-235.3z"/>
		<path class="st0" d="M288.3-146.1l-26.3-54.4c-0.4-0.8-1-1.3-1.8-1.6c-0.3-0.1-0.7-0.2-1-0.2c-0.5,0-0.9,0.1-1.4,0.3l-54.5,26.4
			c-0.8,0.4-1.3,1-1.6,1.8c-0.3,0.8-0.2,1.6,0.1,2.4l26.3,54.4c0.8,1.6,2.6,2.2,4.2,1.5l54.5-26.4
			C288.4-142.6,289-144.5,288.3-146.1z"/>
		<path class="st0" d="M341.5-216.8c-16.5,0-30,13.5-30,30s13.4,30,30,30c16.5,0,30-13.5,30-30S358-216.8,341.5-216.8z"/>
		<path class="st0" d="M130-354.3c0.4-0.8,0.4-1.7,0-2.5l-42.3-73.4c-0.4-0.8-1.2-1.2-2.1-1.2c-0.9,0-1.7,0.5-2.1,1.2v0l-42.3,73.4
			c-0.4,0.8-0.4,1.7,0,2.5c0.4,0.8,1.2,1.2,2.1,1.2h84.7C128.8-353.1,129.6-353.5,130-354.3z"/>
		<path class="st0" d="M186-346.1c-0.8,0-1.7,0.3-2.4,0.8l-23.2,16.9c-1.4,1-2,2.8-1.5,4.5l8.9,27.4c0.5,1.7,2.1,2.8,3.8,2.8h28.7
			c1.7,0,3.3-1.1,3.8-2.8l8.9-27.4c0.5-1.7,0-3.5-1.5-4.5l-23.2-16.9C187.7-345.8,186.9-346.1,186-346.1z"/>
		<path class="st0" d="M179.5-236.8c0,15,12.2,27.2,27.2,27.2s27.2-12.2,27.2-27.2S221.7-264,206.7-264S179.5-251.8,179.5-236.8z"/>
		<path class="st0" d="M37.7-152.3h28.7c1.7,0,3.3-1.1,3.8-2.8l8.9-27.4c0.5-1.7,0-3.5-1.5-4.5l-23.2-16.9c-0.7-0.5-1.5-0.8-2.4-0.8
			c-0.8,0-1.7,0.3-2.4,0.8l-23.2,16.9c-1.4,1-2,2.8-1.5,4.5l8.9,27.4C34.5-153.4,36-152.3,37.7-152.3z"/>
		<path class="st0" d="M76.1-108c-0.1-0.5-0.4-0.8-0.8-1c-0.4-0.2-0.9-0.1-1.3,0.2L34-76.5c-0.4,0.3-0.5,0.8-0.5,1.2s0.4,0.8,0.8,1
			l47.9,18.5c0.4,0.2,0.9,0.1,1.3-0.2c0.4-0.3,0.5-0.7,0.5-1.2L76.1-108z"/>
		<path class="st0" d="M333.9-95.9l-29.8-21.7c-0.9-0.7-2-1-3.1-1s-2.2,0.3-3.1,1l-29.8,21.7c-1.9,1.3-2.6,3.7-1.9,5.9l11.4,35.1
			c0.7,2.2,2.7,3.6,5,3.6h36.8c2.3,0,4.3-1.5,5-3.6L335.9-90C336.6-92.2,335.8-94.5,333.9-95.9z"/>
		<path class="st0" d="M192.5-466.8c0.4,0.8,1.2,1.2,2.1,1.2h84.7c0.9,0,1.7-0.5,2.1-1.2c0.4-0.8,0.4-1.7,0-2.5L263.7-500h-53.5
			l-17.7,30.7C192.1-468.5,192.1-467.6,192.5-466.8z"/>
		<path class="st0" d="M137.9-13.2l-23.2-16.9c-0.7-0.5-1.5-0.8-2.4-0.8c-0.8,0-1.7,0.3-2.4,0.8L86.7-13.2c-1.4,1-2,2.8-1.5,4.5
			L88.1,0h48.4l2.8-8.7C139.9-10.4,139.3-12.2,137.9-13.2z"/>
		<path class="st0" d="M362.3-465.6c18.3,0,33.2-14.9,33.2-33.2c0-0.4,0-0.8,0-1.2h-66.3c0,0.4,0,0.8,0,1.2
			C329.1-480.5,344-465.6,362.3-465.6z"/>
		<path class="st0" d="M464.8-444H500v-56h-39.1v52.1C460.9-445.7,462.6-444,464.8-444z"/>
		<path class="st0" d="M237-43.9L237-43.9c-0.9,0-1.7,0.5-2.1,1.2h0L210.2,0h53.5l-24.6-42.7C238.7-43.5,237.9-43.9,237-43.9z"/>
		<path class="st0" d="M97.9-478.6h28.7c1.7,0,3.3-1.1,3.8-2.8l6-18.6H88.1l6,18.6C94.7-479.7,96.2-478.6,97.9-478.6z"/>
		<path class="st0" d="M16.4-381.2L0-403.7v49.8l16.4-22.5C17.4-377.9,17.4-379.8,16.4-381.2z"/>
		<path class="st0" d="M16-134.8c0-11-6.6-20.5-16-24.7v49.5C9.4-114.4,16-123.8,16-134.8z"/>
		<path class="st0" d="M474.5-216.4l25.5-14.7v70.4c-3.5-1.5-7.3-2.3-11.3-2.3c-15.6,0-28.2,12.6-28.2,28.2s12.7,28.2,28.2,28.2
			c4,0,7.8-0.8,11.3-2.3v56.6h-35.2c-2.7,0-4.9,2.2-4.9,4.9V0h-63.5c-0.6-18.3-15.7-33-34.1-33s-33.5,14.7-34.1,33h-63.3L240-43.2
			c-0.6-1.1-1.8-1.7-3-1.7c0,0,0,0,0,0c-1.3,0-2.4,0.6-3,1.7L209.1,0h-71.5l2.7-8.4c0.7-2.1-0.1-4.3-1.8-5.6l-23.2-16.9
			c-1.8-1.3-4.1-1.3-5.9,0L86.1-14c-1.8,1.3-2.5,3.5-1.8,5.6L87,0H43.2v-47.4c0-2.7-2.2-4.9-4.9-4.9H0V-109c10-4.4,17-14.3,17-25.8
			s-7-21.5-17-25.8v-70.4l47.9-27.6c1.1-0.6,1.7-1.8,1.7-3s-0.6-2.4-1.7-3L0-292.4v-59.9c0.1-0.1,0.2-0.2,0.3-0.4l16.9-23.2
			c1.3-1.8,1.3-4.1,0-5.9L0.3-405c-0.1-0.1-0.2-0.2-0.3-0.3V-443h38.3c2.7,0,4.9-2.2,4.9-4.9V-500H87l6.1,18.9
			c0.7,2.1,2.6,3.5,4.8,3.5h28.7c2.2,0,4.1-1.4,4.8-3.5l6.1-18.9h71.5l-17.4,30.2c-0.6,1.1-0.6,2.4,0,3.5c0.6,1.1,1.8,1.7,3,1.7
			h84.7c1.3,0,2.4-0.6,3-1.7s0.6-2.4,0-3.5L264.9-500h63.3c0,0.4,0,0.8,0,1.2c0,18.9,15.3,34.2,34.2,34.2s34.2-15.3,34.2-34.2
			c0-0.4,0-0.8,0-1.2h63.5v52.1c0,2.7,2.2,4.9,4.9,4.9H500v37.6c-1.3-1.5-3.4-2.1-5.3-1.5l-27.4,8.9c-2.1,0.7-3.5,2.6-3.5,4.8v28.7
			c0,2.2,1.4,4.1,3.5,4.8l27.4,8.9c0.5,0.2,1,0.2,1.6,0.2c1.4,0,2.8-0.6,3.7-1.7v59.9l-25.5-14.7c-1.1-0.6-2.4-0.6-3.5,0
			c-1.1,0.6-1.7,1.8-1.7,3v84.7c0,1.3,0.6,2.4,1.7,3c0.5,0.3,1.1,0.5,1.7,0.5C473.4-215.9,474-216.1,474.5-216.4z M437.3-215.7
			l-28.1-5.9c-2.1-0.5-4.3,0.5-5.4,2.4l-14.4,24.9c-1.1,1.9-0.8,4.2,0.6,5.9l19.2,21.3c1,1.1,2.3,1.7,3.7,1.7c0.7,0,1.4-0.1,2-0.4
			l26.3-11.7c2-0.9,3.2-2.9,2.9-5.1l-3-28.6C441-213.5,439.5-215.3,437.3-215.7z M431.3-309.3l-33.8-24.6c-2.5-1.8-5.8-1.8-8.3,0
			l-33.8,24.6c-2.5,1.8-3.5,5-2.6,7.9l12.9,39.8c0.9,2.9,3.6,4.9,6.7,4.9h41.8c3.1,0,5.8-2,6.7-4.9l12.9-39.8
			C434.8-304.3,433.7-307.5,431.3-309.3z M349.2-391.3c0.2,1.2,1,2.1,2.1,2.6l74.9,28.9c0.4,0.2,0.8,0.2,1.2,0.2
			c0.7,0,1.5-0.3,2.1-0.7c0.9-0.8,1.4-1.9,1.2-3.1l-12.4-79.4c-0.2-1.2-1-2.2-2.1-2.6c-1.1-0.4-2.3-0.2-3.3,0.5l-62.5,50.5
			C349.5-393.7,349-392.5,349.2-391.3z M240.6-355c0,2.7,2.2,4.9,4.9,4.9H319c2.7,0,4.9-2.2,4.9-4.9v-73.4c0-2.7-2.2-4.9-4.9-4.9
			h-73.5c-2.7,0-4.9,2.2-4.9,4.9V-355z M240.9-292.5l59.9,59.9c0.7,0.7,1.5,1,2.4,1c0.3,0,0.6,0,0.9-0.1c1.2-0.3,2.1-1.2,2.5-2.5
			l22-81.8c0.3-1.2,0-2.5-0.9-3.4s-2.1-1.2-3.4-0.9l-81.8,22c-1.2,0.3-2.1,1.2-2.5,2.5C239.7-294.6,240-293.4,240.9-292.5z
			 M206.7-265c-15.5,0-28.2,12.7-28.2,28.2s12.6,28.2,28.2,28.2s28.2-12.7,28.2-28.2S222.2-265,206.7-265z M212.2-329.2L189-346.1
			c-1.8-1.3-4.1-1.3-5.9,0l-23.2,16.9c-1.8,1.3-2.5,3.5-1.8,5.6l8.9,27.4c0.7,2.1,2.6,3.5,4.8,3.5h28.7c2.2,0,4.1-1.4,4.8-3.5
			l8.9-27.4C214.7-325.7,214-327.9,212.2-329.2z M146.5-406.5c0,15.6,12.6,28.2,28.2,28.2s28.2-12.7,28.2-28.2s-12.6-28.2-28.2-28.2
			S146.5-422.1,146.5-406.5z M127.9-352.1c1.3,0,2.4-0.6,3-1.7s0.6-2.4,0-3.5l-42.3-73.4c-0.6-1.1-1.8-1.7-3-1.7
			c-1.3,0-2.4,0.6-3,1.7l-42.3,73.4c-0.6,1.1-0.6,2.4,0,3.5s1.8,1.7,3,1.7H127.9z M24.1-182.1l8.9,27.4c0.7,2.1,2.6,3.5,4.8,3.5
			h28.7c2.2,0,4.1-1.4,4.8-3.5l8.9-27.4c0.7-2.1-0.1-4.3-1.8-5.6l-23.2-16.9c-1.8-1.3-4.1-1.3-5.9,0l-23.2,16.9
			C24.2-186.4,23.4-184.2,24.1-182.1z M85-57.4l-7.9-50.8c-0.1-0.8-0.7-1.5-1.4-1.8c-0.8-0.3-1.6-0.2-2.3,0.4l-40,32.3
			c-0.6,0.5-1,1.3-0.8,2.1c0.1,0.8,0.7,1.5,1.4,1.8l47.9,18.5c0.3,0.1,0.6,0.2,0.8,0.2c0.5,0,1-0.2,1.4-0.5
			C84.8-55.7,85.1-56.5,85-57.4z M89.7-234c0.6,0,1.2-0.1,1.8-0.4l54.5-26.4c2.1-1,2.9-3.5,1.9-5.5l-26.3-54.4
			c-0.5-1-1.3-1.7-2.4-2.1c-1-0.4-2.2-0.3-3.2,0.2l-54.5,26.4c-1,0.5-1.7,1.3-2.1,2.4c-0.4,1-0.3,2.2,0.2,3.2l26.3,54.4
			C86.6-234.9,88.1-234,89.7-234z M176.7-140.9c1.3-0.1,2.3-0.8,2.9-1.9s0.5-2.4-0.2-3.5l-46.8-70.6c-0.7-1-1.8-1.6-3.1-1.5
			c-1.3,0.1-2.3,0.8-2.9,1.9l-37.7,75.9c-0.6,1.1-0.5,2.4,0.2,3.5c0.7,1,1.7,1.6,2.9,1.6c0.1,0,0.1,0,0.2,0L176.7-140.9z M198-108.7
			c0-2.2-1.8-4.1-4.1-4.1h-59.5c-2.2,0-4.1,1.8-4.1,4.1v59.4c0,2.2,1.8,4.1,4.1,4.1h59.5c2.2,0,4.1-1.8,4.1-4.1V-108.7z M287.2-141
			c2.1-1,2.9-3.5,1.9-5.5l-26.3-54.4c-0.5-1-1.3-1.7-2.4-2.1c-1-0.4-2.2-0.3-3.2,0.2l-54.5,26.4c-1,0.5-1.7,1.3-2.1,2.4
			c-0.4,1-0.3,2.2,0.2,3.2l26.3,54.4c0.7,1.5,2.2,2.3,3.7,2.3c0.6,0,1.2-0.1,1.8-0.4L287.2-141z M334.5-96.7l-29.8-21.7
			c-2.2-1.6-5.2-1.6-7.4,0l-29.8,21.7c-2.2,1.6-3.1,4.4-2.3,7l11.4,35.1c0.8,2.6,3.2,4.3,6,4.3h36.8c2.7,0,5.1-1.7,6-4.3l11.4-35.1
			C337.6-92.3,336.7-95.1,334.5-96.7z M372.5-186.8c0-17.1-13.9-31-31-31s-31,13.9-31,31s13.9,31,31,31S372.5-169.7,372.5-186.8z
			 M449.4-93.4L417-138c-1.2-1.7-3.6-2.1-5.3-0.8L367-106.3c-0.8,0.6-1.4,1.5-1.5,2.5s0.1,2,0.7,2.8l32.4,44.6
			c0.6,0.8,1.5,1.4,2.5,1.5c0.2,0,0.4,0,0.6,0c0.8,0,1.6-0.3,2.2-0.7L448.6-88c0.8-0.6,1.4-1.5,1.5-2.5
			C450.3-91.5,450-92.5,449.4-93.4z"/>
		<path class="st0" d="M42.2-447.9V-500H0v56h38.3C40.4-444,42.2-445.7,42.2-447.9z"/>
		<path class="st0" d="M48.6-261.7c0-0.9-0.5-1.7-1.2-2.1L0-291.2v59l47.4-27.3C48.2-260,48.6-260.8,48.6-261.7z"/>
		<path class="st0" d="M496.3-406.1c-0.4,0-0.8,0.1-1.2,0.2l-27.4,8.9c-1.7,0.5-2.8,2.1-2.8,3.8v28.7c0,1.7,1.1,3.3,2.8,3.8
			l27.4,8.9c1.7,0.5,3.5,0,4.5-1.5l0.5-0.7v-49.8l-0.5-0.7C498.7-405.5,497.5-406.1,496.3-406.1z"/>
		<path class="st0" d="M416.2-137.4c-0.6-0.8-1.4-1.2-2.3-1.2c-0.6,0-1.2,0.2-1.7,0.5l-44.7,32.5c-0.6,0.4-1,1.1-1.1,1.8
			c-0.1,0.7,0.1,1.5,0.5,2.1L399.4-57c0.4,0.6,1.1,1,1.8,1.1c0.7,0.1,1.5-0.1,2.1-0.5L448-88.8c0.6-0.4,1-1.1,1.1-1.8
			c0.1-0.7-0.1-1.5-0.5-2.1L416.2-137.4z"/>
		<path class="st0" d="M38.3-51.3H0V0h42.2v-47.4C42.2-49.6,40.4-51.3,38.3-51.3z"/>
		<path class="st0" d="M362.3-32c-17.9,0-32.5,14.2-33.1,32h66.3C394.8-17.7,380.2-32,362.3-32z"/>
		<path class="st0" d="M408.2-220.8c-1.4,0-2.7,0.7-3.5,2l-14.4,24.9c-0.9,1.5-0.7,3.4,0.5,4.7l19.2,21.3c1.2,1.3,3,1.7,4.6,1
			l26.3-11.7c1.6-0.7,2.5-2.3,2.4-4.1l-3-28.6c-0.2-1.7-1.5-3.1-3.2-3.5l-28.1-5.9C408.7-220.8,408.5-220.8,408.2-220.8z"/>
		<path class="st0" d="M460.9-47.4V0H500v-51.3h-35.2C462.6-51.3,460.9-49.6,460.9-47.4z"/>
		<path class="st0" d="M461.5-134.8c0,15,12.2,27.2,27.2,27.2c4,0,7.8-0.9,11.3-2.4v-49.5c-3.4-1.6-7.2-2.4-11.3-2.4
			C473.7-162,461.5-149.8,461.5-134.8z"/>
		<path class="st0" d="M472.8-306.5c-0.4,0-0.8,0.1-1.2,0.3c-0.8,0.4-1.2,1.2-1.2,2.1v84.7c0,0.9,0.5,1.7,1.2,2.1
			c0.8,0.4,1.7,0.4,2.5,0l26-15v-59l-26-15C473.6-306.4,473.2-306.5,472.8-306.5z"/>
		<path class="st1" d="M89.7-234c-1.5,0-3-0.9-3.7-2.3l-26.3-54.4c-0.5-1-0.5-2.1-0.2-3.2c0.4-1,1.1-1.9,2.1-2.4l54.5-26.4
			c1-0.5,2.1-0.5,3.2-0.2c1,0.4,1.9,1.1,2.4,2.1l26.3,54.4c1,2.1,0.1,4.5-1.9,5.5l-54.5,26.4C90.9-234.1,90.3-234,89.7-234z
			 M91-235.3l54.5-26.4c1.6-0.8,2.2-2.6,1.5-4.2l-26.3-54.4c-0.4-0.8-1-1.3-1.8-1.6c-0.3-0.1-0.7-0.2-1-0.2c-0.5,0-0.9,0.1-1.4,0.3
			l-54.5,26.4c-0.8,0.4-1.3,1-1.6,1.8s-0.2,1.6,0.1,2.4l26.3,54.4C87.6-235.2,89.5-234.6,91-235.3z"/>
		<path class="st1" d="M287.2-141l-54.5,26.4c-0.6,0.3-1.2,0.4-1.8,0.4c-1.5,0-3-0.9-3.7-2.3l-26.3-54.4c-0.5-1-0.5-2.1-0.2-3.2
			c0.4-1,1.1-1.9,2.1-2.4l54.5-26.4c1-0.5,2.1-0.5,3.2-0.2c1,0.4,1.9,1.1,2.4,2.1l26.3,54.4C290.2-144.4,289.3-142,287.2-141z
			 M286.8-141.9c1.6-0.8,2.2-2.6,1.5-4.2l-26.3-54.4c-0.4-0.8-1-1.3-1.8-1.6c-0.3-0.1-0.7-0.2-1-0.2c-0.5,0-0.9,0.1-1.4,0.3
			l-54.5,26.4c-0.8,0.4-1.3,1-1.6,1.8c-0.3,0.8-0.2,1.6,0.1,2.4l26.3,54.4c0.8,1.6,2.6,2.2,4.2,1.5L286.8-141.9z"/>
		<path class="st1" d="M198-108.7v59.4c0,2.2-1.8,4.1-4.1,4.1h-59.5c-2.2,0-4.1-1.8-4.1-4.1v-59.4c0-2.2,1.8-4.1,4.1-4.1h59.5
			C196.1-112.8,198-110.9,198-108.7z M197-108.7c0-1.7-1.4-3.1-3.1-3.1h-59.5c-1.7,0-3.1,1.4-3.1,3.1v59.4c0,1.7,1.4,3.1,3.1,3.1
			h59.5c1.7,0,3.1-1.4,3.1-3.1V-108.7z"/>
		<path class="st1" d="M449.4-93.4c0.6,0.8,0.8,1.8,0.7,2.8c-0.2,1-0.7,1.9-1.5,2.5L404-55.5c-0.7,0.5-1.4,0.7-2.2,0.7
			c-0.2,0-0.4,0-0.6,0c-1-0.2-1.9-0.7-2.5-1.5L366.2-101c-0.6-0.8-0.8-1.8-0.7-2.8s0.7-1.9,1.5-2.5l44.7-32.5
			c1.7-1.2,4.1-0.9,5.3,0.8L449.4-93.4z M448.6-92.8l-32.4-44.6c-0.6-0.8-1.4-1.2-2.3-1.2c-0.6,0-1.2,0.2-1.7,0.5l-44.7,32.5
			c-0.6,0.4-1,1.1-1.1,1.8c-0.1,0.7,0.1,1.5,0.5,2.1L399.4-57c0.4,0.6,1.1,1,1.8,1.1c0.7,0.1,1.5-0.1,2.1-0.5L448-88.8
			c0.6-0.4,1-1.1,1.1-1.8C449.3-91.4,449.1-92.2,448.6-92.8z"/>
		<path class="st1" d="M240.6-355v-73.4c0-2.7,2.2-4.9,4.9-4.9H319c2.7,0,4.9,2.2,4.9,4.9v73.4c0,2.7-2.2,4.9-4.9,4.9h-73.5
			C242.8-350.1,240.6-352.3,240.6-355z M241.6-355c0,2.2,1.8,3.9,3.9,3.9H319c2.2,0,3.9-1.8,3.9-3.9v-73.4c0-2.2-1.8-3.9-3.9-3.9
			h-73.5c-2.2,0-3.9,1.8-3.9,3.9V-355z"/>
		<path class="st1" d="M43.2-447.9V-500h-1v52.1c0,2.2-1.8,3.9-3.9,3.9H0v1h38.3C41-443,43.2-445.2,43.2-447.9z"/>
		<path class="st1" d="M38.3-52.3H0v1h38.3c2.2,0,3.9,1.8,3.9,3.9V0h1v-47.4C43.2-50.1,41-52.3,38.3-52.3z"/>
		<path class="st1" d="M49.6-261.7c0-1.3-0.6-2.4-1.7-3L0-292.4v1.2l47.4,27.3c0.8,0.4,1.2,1.2,1.2,2.1s-0.5,1.7-1.2,2.1L0-232.3
			v1.2l47.9-27.6C49-259.4,49.6-260.5,49.6-261.7z"/>
		<path class="st1" d="M17.2-375.9c1.3-1.8,1.3-4.1,0-5.9L0.3-405c-0.1-0.1-0.2-0.2-0.3-0.3v1.6l16.4,22.5c1,1.4,1,3.3,0,4.7
			L0-353.9v1.7c0.1-0.1,0.2-0.2,0.3-0.4L17.2-375.9z"/>
		<path class="st1" d="M17-134.8c0-11.5-7-21.5-17-25.8v1.1c9.4,4.3,16,13.8,16,24.7s-6.6,20.5-16,24.7v1.1
			C10-113.3,17-123.3,17-134.8z"/>
		<path class="st1" d="M464.8-443H500v-1h-35.2c-2.2,0-3.9-1.8-3.9-3.9V-500h-1v52.1C459.9-445.2,462.1-443,464.8-443z"/>
		<path class="st1" d="M459.9-47.4V0h1v-47.4c0-2.2,1.8-3.9,3.9-3.9H500v-1h-35.2C462.1-52.3,459.9-50.1,459.9-47.4z"/>
		<path class="st1" d="M474-217.3c-0.8,0.4-1.7,0.4-2.5,0c-0.8-0.4-1.2-1.2-1.2-2.1v-84.7c0-0.9,0.5-1.7,1.2-2.1
			c0.4-0.2,0.8-0.3,1.2-0.3c0.4,0,0.8,0.1,1.2,0.3l26,15v-1.2l-25.5-14.7c-1.1-0.6-2.4-0.6-3.5,0c-1.1,0.6-1.7,1.8-1.7,3v84.7
			c0,1.3,0.6,2.4,1.7,3c0.5,0.3,1.1,0.5,1.7,0.5c0.6,0,1.2-0.2,1.7-0.5l25.5-14.7v-1.2L474-217.3z"/>
		<path class="st1" d="M494.7-406.8l-27.4,8.9c-2.1,0.7-3.5,2.6-3.5,4.8v28.7c0,2.2,1.4,4.1,3.5,4.8l27.4,8.9c0.5,0.2,1,0.2,1.6,0.2
			c1.4,0,2.8-0.6,3.7-1.7v-1.7l-0.5,0.7c-1,1.4-2.8,2-4.5,1.5l-27.4-8.9c-1.7-0.5-2.8-2.1-2.8-3.8v-28.7c0-1.7,1.1-3.3,2.8-3.8
			l27.4-8.9c0.4-0.1,0.8-0.2,1.2-0.2c1.3,0,2.5,0.6,3.2,1.7l0.5,0.7v-1.6C498.7-406.9,496.6-407.5,494.7-406.8z"/>
		<path class="st1" d="M460.5-134.8c0,15.5,12.7,28.2,28.2,28.2c4,0,7.8-0.8,11.3-2.3v-1.1c-3.4,1.6-7.2,2.4-11.3,2.4
			c-15,0-27.2-12.2-27.2-27.2s12.2-27.2,27.2-27.2c4,0,7.8,0.9,11.3,2.4v-1.1c-3.5-1.5-7.3-2.3-11.3-2.3
			C473.2-163,460.5-150.4,460.5-134.8z"/>
		<path class="st1" d="M127.9-352.1H43.2c-1.3,0-2.4-0.6-3-1.7s-0.6-2.4,0-3.5l42.3-73.4c0.6-1.1,1.8-1.7,3-1.7c1.3,0,2.4,0.6,3,1.7
			l42.3,73.4c0.6,1.1,0.6,2.4,0,3.5S129.1-352.1,127.9-352.1z M43.2-353.1h84.7c0.9,0,1.7-0.5,2.1-1.2c0.4-0.8,0.4-1.7,0-2.5
			l-42.3-73.4c-0.4-0.8-1.2-1.2-2.1-1.2c-0.9,0-1.7,0.5-2.1,1.2v0l-42.3,73.4c-0.4,0.8-0.4,1.7,0,2.5
			C41.5-353.5,42.3-353.1,43.2-353.1z"/>
		<path class="st1" d="M176.7-140.9l-84.5,5.3c-0.1,0-0.1,0-0.2,0c-1.2,0-2.2-0.6-2.9-1.6c-0.7-1-0.8-2.3-0.2-3.5l37.7-75.9
			c0.6-1.1,1.6-1.8,2.9-1.9c1.3-0.1,2.4,0.5,3.1,1.5l46.8,70.6c0.7,1,0.8,2.3,0.2,3.5S177.9-141,176.7-140.9z M176.6-141.9
			c0.9-0.1,1.7-0.6,2.1-1.4c0.4-0.8,0.3-1.7-0.2-2.5l-46.8-70.6c-0.5-0.7-1.2-1.1-2.1-1.1c-0.1,0-0.1,0-0.2,0
			c-0.9,0.1-1.7,0.6-2.1,1.4l-37.7,75.9c-0.4,0.8-0.3,1.7,0.2,2.5s1.3,1.2,2.2,1.1L176.6-141.9z"/>
		<path class="st1" d="M240.9-292.5c-0.9-0.9-1.2-2.1-0.9-3.4c0.3-1.2,1.2-2.1,2.5-2.5l81.8-22c1.2-0.3,2.5,0,3.4,0.9
			s1.2,2.1,0.9,3.4l-22,81.8c-0.3,1.2-1.2,2.1-2.5,2.5c-0.3,0.1-0.6,0.1-0.9,0.1c-0.9,0-1.8-0.4-2.4-1L240.9-292.5z M241.6-293.2
			l59.9,59.9c0.6,0.6,1.5,0.9,2.4,0.6c0.9-0.2,1.5-0.9,1.7-1.7l22-81.8c0.2-0.9,0-1.8-0.6-2.4c-0.6-0.6-1.5-0.9-2.4-0.6l-81.8,22
			c-0.9,0.2-1.5,0.9-1.7,1.7C240.7-294.7,241-293.8,241.6-293.2z"/>
		<path class="st1" d="M85-57.4c0.1,0.8-0.2,1.6-0.8,2.1c-0.4,0.3-0.9,0.5-1.4,0.5c-0.3,0-0.6-0.1-0.8-0.2L34-73.3
			c-0.8-0.3-1.3-1-1.4-1.8c-0.1-0.8,0.2-1.6,0.8-2.1l40-32.3c0.6-0.5,1.5-0.7,2.3-0.4c0.8,0.3,1.3,1,1.4,1.8L85-57.4z M84-57.2
			L76.1-108c-0.1-0.5-0.4-0.8-0.8-1c-0.4-0.2-0.9-0.1-1.3,0.2L34-76.5c-0.4,0.3-0.5,0.8-0.5,1.2s0.4,0.8,0.8,1l47.9,18.5
			c0.4,0.2,0.9,0.1,1.3-0.2C83.9-56.3,84.1-56.7,84-57.2z"/>
		<path class="st1" d="M349.2-391.3c-0.2-1.2,0.3-2.3,1.2-3.1l62.5-50.5c0.9-0.8,2.2-0.9,3.3-0.5c1.1,0.4,1.9,1.4,2.1,2.6l12.4,79.4
			c0.2,1.2-0.3,2.3-1.2,3.1c-0.6,0.5-1.3,0.7-2.1,0.7c-0.4,0-0.8-0.1-1.2-0.2l-74.9-28.9C350.2-389.2,349.4-390.1,349.2-391.3z
			 M350.2-391.5c0.1,0.8,0.7,1.5,1.5,1.8l74.9,28.9c0.8,0.3,1.6,0.2,2.3-0.4c0.7-0.5,1-1.3,0.8-2.2l-12.4-79.4
			c-0.1-0.8-0.7-1.5-1.5-1.8c-0.3-0.1-0.6-0.2-0.8-0.2c-0.5,0-1,0.2-1.4,0.5L351-393.6C350.4-393.1,350.1-392.3,350.2-391.5z"/>
		<path class="st1" d="M189-346.1l23.2,16.9c1.8,1.3,2.5,3.5,1.8,5.6l-8.9,27.4c-0.7,2.1-2.6,3.5-4.8,3.5h-28.7
			c-2.2,0-4.1-1.4-4.8-3.5l-8.9-27.4c-0.7-2.1,0.1-4.3,1.8-5.6l23.2-16.9C184.8-347.4,187.2-347.4,189-346.1z M211.6-328.4
			l-23.2-16.9c-0.7-0.5-1.5-0.8-2.4-0.8c-0.8,0-1.7,0.3-2.4,0.8l-23.2,16.9c-1.4,1-2,2.8-1.5,4.5l8.9,27.4c0.5,1.7,2.1,2.8,3.8,2.8
			h28.7c1.7,0,3.3-1.1,3.8-2.8l8.9-27.4C213.6-325.6,213-327.4,211.6-328.4z"/>
		<path class="st1" d="M409.2-221.7l28.1,5.9c2.1,0.5,3.7,2.2,3.9,4.4l3,28.6c0.2,2.2-1,4.2-2.9,5.1L415.1-166
			c-0.7,0.3-1.4,0.4-2,0.4c-1.4,0-2.7-0.6-3.7-1.7l-19.2-21.3c-1.5-1.6-1.7-4-0.6-5.9l14.4-24.9
			C404.9-221.2,407.1-222.1,409.2-221.7z M437.1-214.8l-28.1-5.9c-0.3-0.1-0.6-0.1-0.8-0.1c-1.4,0-2.7,0.7-3.5,2l-14.4,24.9
			c-0.9,1.5-0.7,3.4,0.5,4.7l19.2,21.3c1.2,1.3,3,1.7,4.6,1l26.3-11.7c1.6-0.7,2.5-2.3,2.4-4.1l-3-28.6
			C440.1-213,438.8-214.4,437.1-214.8z"/>
		<path class="st1" d="M397.4-333.9l33.8,24.6c2.5,1.8,3.5,5,2.6,7.9l-12.9,39.8c-0.9,2.9-3.6,4.9-6.7,4.9h-41.8
			c-3.1,0-5.8-2-6.7-4.9l-12.9-39.8c-0.9-2.9,0.1-6.1,2.6-7.9l33.8-24.6C391.6-335.7,395-335.7,397.4-333.9z M430.7-308.5
			l-33.8-24.6c-2.1-1.6-5-1.5-7.1,0l-33.8,24.6c-2.1,1.5-3,4.3-2.2,6.8l12.9,39.8c0.8,2.5,3.1,4.2,5.8,4.2h41.8
			c2.6,0,4.9-1.7,5.8-4.2l12.9-39.8C433.7-304.2,432.8-306.9,430.7-308.5z"/>
		<path class="st1" d="M336.8-89.7l-11.4,35.1c-0.8,2.6-3.2,4.3-6,4.3h-36.8c-2.7,0-5.1-1.7-6-4.3l-11.4-35.1
			c-0.8-2.6,0.1-5.4,2.3-7l29.8-21.7c2.2-1.6,5.2-1.6,7.4,0l29.8,21.7C336.7-95.1,337.6-92.3,336.8-89.7z M333.9-95.9l-29.8-21.7
			c-0.9-0.7-2-1-3.1-1s-2.2,0.3-3.1,1l-29.8,21.7c-1.9,1.3-2.6,3.7-1.9,5.9l11.4,35.1c0.7,2.2,2.7,3.6,5,3.6h36.8
			c2.3,0,4.3-1.5,5-3.6L335.9-90C336.6-92.2,335.8-94.5,333.9-95.9z"/>
		<path class="st1" d="M33-154.7l-8.9-27.4c-0.7-2.1,0.1-4.3,1.8-5.6l23.2-16.9c1.8-1.3,4.1-1.3,5.9,0l23.2,16.9
			c1.8,1.3,2.5,3.5,1.8,5.6l-8.9,27.4c-0.7,2.1-2.6,3.5-4.8,3.5H37.7C35.6-151.3,33.7-152.7,33-154.7z M25.1-182.4l8.9,27.4
			c0.5,1.7,2.1,2.8,3.8,2.8h28.7c1.7,0,3.3-1.1,3.8-2.8l8.9-27.4c0.5-1.7,0-3.5-1.5-4.5l-23.2-16.9c-0.7-0.5-1.5-0.8-2.4-0.8
			c-0.8,0-1.7,0.3-2.4,0.8l-23.2,16.9C25.1-185.9,24.5-184.1,25.1-182.4z"/>
		<path class="st1" d="M237-44.9C237-44.9,237-44.9,237-44.9c-1.3,0-2.4,0.6-3,1.7L209.1,0h1.2l24.6-42.7h0c0.4-0.8,1.2-1.2,2.1-1.2
			h0c0.9,0,1.7,0.5,2.1,1.2L263.7,0h1.2L240-43.2C239.4-44.3,238.2-44.9,237-44.9z"/>
		<path class="st1" d="M138.5-14l-23.2-16.9c-1.8-1.3-4.1-1.3-5.9,0L86.1-14c-1.8,1.3-2.5,3.5-1.8,5.6L87,0h1.1l-2.8-8.7
			c-0.5-1.7,0-3.5,1.5-4.5l23.2-16.9c0.7-0.5,1.5-0.8,2.4-0.8c0.8,0,1.7,0.3,2.4,0.8l23.2,16.9c1.4,1,2,2.8,1.5,4.5L136.5,0h1.1
			l2.7-8.4C141-10.5,140.2-12.7,138.5-14z"/>
		<path class="st1" d="M362.3-33c-18.4,0-33.5,14.7-34.1,33h1c0.6-17.7,15.3-32,33.1-32s32.5,14.2,33.1,32h1
			C395.8-18.3,380.7-33,362.3-33z"/>
		<path class="st1" d="M191.6-466.3c0.6,1.1,1.8,1.7,3,1.7h84.7c1.3,0,2.4-0.6,3-1.7s0.6-2.4,0-3.5L264.9-500h-1.2l17.7,30.7
			c0.4,0.8,0.4,1.7,0,2.5c-0.4,0.8-1.2,1.2-2.1,1.2h-84.7c-0.9,0-1.7-0.5-2.1-1.2c-0.4-0.8-0.4-1.7,0-2.5l17.7-30.7h-1.2l-17.4,30.2
			C191-468.7,191-467.4,191.6-466.3z"/>
		<path class="st1" d="M97.9-477.6h28.7c2.2,0,4.1-1.4,4.8-3.5l6.1-18.9h-1.1l-6,18.6c-0.5,1.7-2.1,2.8-3.8,2.8H97.9
			c-1.7,0-3.3-1.1-3.8-2.8l-6-18.6H87l6.1,18.9C93.8-479,95.8-477.6,97.9-477.6z"/>
		<path class="st1" d="M362.3-464.6c18.8,0,34.2-15.3,34.2-34.2c0-0.4,0-0.8,0-1.2h-1c0,0.4,0,0.8,0,1.2c0,18.3-14.9,33.2-33.2,33.2
			s-33.2-14.9-33.2-33.2c0-0.4,0-0.8,0-1.2h-1c0,0.4,0,0.8,0,1.2C328.1-479.9,343.4-464.6,362.3-464.6z"/>
		<path class="st1" d="M146.5-406.5c0-15.6,12.6-28.2,28.2-28.2s28.2,12.7,28.2,28.2s-12.6,28.2-28.2,28.2S146.5-391,146.5-406.5z
			 M147.5-406.5c0,15,12.2,27.2,27.2,27.2s27.2-12.2,27.2-27.2s-12.2-27.2-27.2-27.2S147.5-421.5,147.5-406.5z"/>
		<path class="st1" d="M206.7-265c15.5,0,28.2,12.7,28.2,28.2s-12.6,28.2-28.2,28.2s-28.2-12.7-28.2-28.2S191.1-265,206.7-265z
			 M206.7-264c-15,0-27.2,12.2-27.2,27.2s12.2,27.2,27.2,27.2s27.2-12.2,27.2-27.2S221.7-264,206.7-264z"/>
		<path class="st1" d="M372.5-186.8c0,17.1-13.9,31-31,31s-31-13.9-31-31s13.9-31,31-31S372.5-203.9,372.5-186.8z M371.5-186.8
			c0-16.5-13.4-30-30-30c-16.5,0-30,13.5-30,30s13.4,30,30,30C358-156.8,371.5-170.3,371.5-186.8z"/>
	</g>
</pattern>
<pattern  id="SVGID_1_" xlink:href="#New_Pattern_Swatch_2" patternTransform="matrix(1.0191 0 0 1.0191 -448.1957 5.2128)">
</pattern>
<rect x="-73.2" y="4.5" class="st2" width="7826.4" height="4723"/>
</svg>
