
<svg fill="none" xmlns="http://www.w3.org/2000/svg" xmlns:xlink="http://www.w3.org/1999/xlink" height="54.02" width="54.07" viewBox="0 0 54.07 54.02">
    <!--Created with Nila (0.3.7-beta.2)-->
    <defs>
        <linearGradient x1="842.0517%" id="linearGradient1" y2="1557.8807%" y1="-664.8404%" x2="-1613.1321%">
            <stop offset="0.0%" stop-opacity="1.0" stop-color="#00D0B0"></stop>
            <stop offset="100.0%" stop-opacity="1.0" stop-color="#0063F4"></stop>
        </linearGradient>
        <linearGradient x1="2283.6846%" id="linearGradient2" y2="1151.6294%" y1="-421.10843%" x2="-5138.5796%">
            <stop offset="0.0%" stop-opacity="1.0" stop-color="#00D0B0"></stop>
            <stop offset="100.0%" stop-opacity="1.0" stop-color="#0063F4"></stop>
        </linearGradient>
        <linearGradient x1="1837.9968%" id="linearGradient3" y2="1206.6844%" y1="-426.59396%" x2="-4281.673%">
            <stop offset="0.0%" stop-opacity="1.0" stop-color="#00D0B0"></stop>
            <stop offset="100.0%" stop-opacity="1.0" stop-color="#0063F4"></stop>
        </linearGradient>
        <linearGradient x1="718.8541%" id="linearGradient4" y2="1643.6896%" y1="-576.8451%" x2="-1648.9888%">
            <stop offset="0.0%" stop-opacity="1.0" stop-color="#00D0B0"></stop>
            <stop offset="100.0%" stop-opacity="1.0" stop-color="#0063F4"></stop>
        </linearGradient>
        <linearGradient x1="612.8195%" id="linearGradient5" y2="1076.0138%" y1="-309.30585%" x2="-1525.2518%">
            <stop offset="0.0%" stop-opacity="1.0" stop-color="#00D0B0"></stop>
            <stop offset="100.0%" stop-opacity="1.0" stop-color="#0063F4"></stop>
        </linearGradient>
        <linearGradient x1="830.59485%" x2="-2316.281%" y1="-406.90985%" y2="1423.9713%" id="linearGradient6">
            <stop offset="0.0%" stop-opacity="1.0" stop-color="#00D0B0"></stop>
            <stop offset="100.0%" stop-opacity="1.0" stop-color="#0063F4"></stop>
        </linearGradient>
        <linearGradient x1="599.28564%" x2="-1650.8717%" y1="-489.80713%" y2="1720.0494%" id="linearGradient7">
            <stop offset="0.0%" stop-opacity="1.0" stop-color="#00D0B0"></stop>
            <stop offset="100.0%" stop-opacity="1.0" stop-color="#0063F4"></stop>
        </linearGradient>
        <linearGradient x1="439.11862%" x2="-1152.7444%" y1="-384.55203%" y2="1478.3275%" id="linearGradient8">
            <stop offset="0.0%" stop-opacity="1.0" stop-color="#00D0B0"></stop>
            <stop offset="100.0%" stop-opacity="1.0" stop-color="#0063F4"></stop>
        </linearGradient>
        <linearGradient x1="496.18777%" x2="-1457.8221%" y1="-59.710003%" y2="1657.0587%" id="linearGradient9">
            <stop offset="0.0%" stop-opacity="1.0" stop-color="#00D0B0"></stop>
            <stop offset="100.0%" stop-opacity="1.0" stop-color="#0063F4"></stop>
        </linearGradient>
        <linearGradient x1="565.53735%" x2="-1610.2192%" y1="-438.46136%" y2="1597.4564%" id="linearGradient10">
            <stop offset="0.0%" stop-opacity="1.0" stop-color="#00D0B0"></stop>
            <stop offset="100.0%" stop-opacity="1.0" stop-color="#0063F4"></stop>
        </linearGradient>
        <linearGradient x1="424.9048%" x2="-1094.2065%" y1="-448.9156%" y2="1690.4958%" id="linearGradient11">
            <stop stop-opacity="1.0" offset="0.0%" stop-color="#00D0B0"></stop>
            <stop stop-opacity="1.0" offset="100.0%" stop-color="#0063F4"></stop>
        </linearGradient>
        <linearGradient x1="641.22815%" x2="-1583.9998%" y1="-564.81366%" y2="1750.1093%" id="linearGradient12">
            <stop stop-opacity="1.0" offset="0.0%" stop-color="#00D0B0"></stop>
            <stop stop-opacity="1.0" offset="100.0%" stop-color="#0063F4"></stop>
        </linearGradient>
        <linearGradient x1="477.99768%" x2="-1102.6176%" y1="-1158.8706%" y2="3297.8354%" id="linearGradient13">
            <stop stop-opacity="1.0" offset="0.0%" stop-color="#00D0B0"></stop>
            <stop stop-opacity="1.0" offset="100.0%" stop-color="#0063F4"></stop>
        </linearGradient>
        <linearGradient x1="514.35034%" x2="-1149.8119%" y1="-1336.6212%" y2="3626.8604%" id="linearGradient14">
            <stop stop-opacity="1.0" offset="0.0%" stop-color="#00D0B0"></stop>
            <stop stop-opacity="1.0" offset="100.0%" stop-color="#0063F4"></stop>
        </linearGradient>
        <linearGradient x1="721.6013%" x2="-1523.412%" y1="-662.56256%" y2="1723.769%" id="linearGradient15">
            <stop stop-opacity="1.0" offset="0.0%" stop-color="#00D0B0"></stop>
            <stop stop-opacity="1.0" offset="100.0%" stop-color="#0063F4"></stop>
        </linearGradient>
        <linearGradient x1="538.6679%" x2="-1033.0403%" y1="-822.2594%" y2="1891.8772%" id="linearGradient16">
            <stop stop-opacity="1.0" offset="0.0%" stop-color="#00D0B0"></stop>
            <stop stop-opacity="1.0" offset="100.0%" stop-color="#0063F4"></stop>
        </linearGradient>
        <linearGradient x1="669.86414%" x2="-1121.1388%" y1="-1328.1748%" id="linearGradient17" y2="2658.8962%">
            <stop stop-opacity="1.0" offset="0.0%" stop-color="#00D0B0"></stop>
            <stop stop-opacity="1.0" offset="100.0%" stop-color="#0063F4"></stop>
        </linearGradient>
        <linearGradient x1="880.5432%" x2="-1363.462%" y1="-788.96387%" id="linearGradient18" y2="1478.0842%">
            <stop stop-opacity="1.0" offset="0.0%" stop-color="#00D0B0"></stop>
            <stop stop-opacity="1.0" offset="100.0%" stop-color="#0063F4"></stop>
        </linearGradient>
        <linearGradient x1="768.6077%" x2="-997.965%" y1="-682.51855%" id="linearGradient19" y2="1086.7676%">
            <stop stop-opacity="1.0" offset="0.0%" stop-color="#00D0B0"></stop>
            <stop stop-opacity="1.0" offset="100.0%" stop-color="#0063F4"></stop>
        </linearGradient>
        <linearGradient x1="823.19507%" x2="-949.7921%" y1="-1114.5819%" id="linearGradient20" y2="1565.6293%">
            <stop stop-opacity="1.0" offset="0.0%" stop-color="#00D0B0"></stop>
            <stop stop-opacity="1.0" offset="100.0%" stop-color="#0063F4"></stop>
        </linearGradient>
        <linearGradient x1="980.35223%" x2="-1036.2584%" y1="-986.52466%" id="linearGradient21" y2="1276.5597%">
            <stop stop-opacity="1.0" offset="0.0%" stop-color="#00D0B0"></stop>
            <stop stop-opacity="1.0" offset="100.0%" stop-color="#0063F4"></stop>
        </linearGradient>
        <linearGradient x1="914.1035%" x2="-875.1326%" y1="-749.3728%" id="linearGradient22" y2="872.26544%">
            <stop offset="0.0%" stop-opacity="1.0" stop-color="#00D0B0"></stop>
            <stop offset="100.0%" stop-opacity="1.0" stop-color="#0063F4"></stop>
        </linearGradient>
        <linearGradient x1="1346.4043%" x2="-944.4675%" y1="-1195.3005%" id="linearGradient23" y2="1005.631%">
            <stop offset="0.0%" stop-opacity="1.0" stop-color="#00D0B0"></stop>
            <stop offset="100.0%" stop-opacity="1.0" stop-color="#0063F4"></stop>
        </linearGradient>
        <linearGradient x1="1584.9845%" x2="-1014.2985%" y1="-955.4553%" id="linearGradient24" y2="746.26324%">
            <stop stop-color="#00D0B0" offset="0.0%" stop-opacity="1.0"></stop>
            <stop stop-color="#0063F4" offset="100.0%" stop-opacity="1.0"></stop>
        </linearGradient>
        <linearGradient x1="1732.4805%" x2="-1054.8385%" y1="-1023.71246%" id="linearGradient25" y2="756.5387%">
            <stop stop-color="#00D0B0" offset="0.0%" stop-opacity="1.0"></stop>
            <stop stop-color="#0063F4" offset="100.0%" stop-opacity="1.0"></stop>
        </linearGradient>
        <linearGradient x1="1501.1893%" x2="-818.9662%" y1="-1325.8264%" id="linearGradient26" y2="873.452%">
            <stop stop-color="#00D0B0" offset="0.0%" stop-opacity="1.0"></stop>
            <stop stop-color="#0063F4" offset="100.0%" stop-opacity="1.0"></stop>
        </linearGradient>
        <linearGradient x1="1272.1171%" x2="-581.6904%" y1="-983.41455%" id="linearGradient27" y2="594.46674%">
            <stop stop-color="#00D0B0" offset="0.0%" stop-opacity="1.0"></stop>
            <stop stop-color="#0063F4" offset="100.0%" stop-opacity="1.0"></stop>
        </linearGradient>
        <linearGradient y2="612.1436%" id="linearGradient28" x1="2203.101%" y1="-1205.55%" x2="-930.2245%">
            <stop stop-color="#00D0B0" offset="0.0%" stop-opacity="1.0"></stop>
            <stop stop-color="#0063F4" offset="100.0%" stop-opacity="1.0"></stop>
        </linearGradient>
        <linearGradient y2="699.3273%" id="linearGradient29" x1="1680.3253%" y1="-1524.6593%" x2="-622.4528%">
            <stop stop-color="#00D0B0" offset="0.0%" stop-opacity="1.0"></stop>
            <stop stop-color="#0063F4" offset="100.0%" stop-opacity="1.0"></stop>
        </linearGradient>
        <linearGradient y2="501.29343%" id="linearGradient30" x1="1686.2163%" y1="-1192.959%" x2="-513.25903%">
            <stop stop-color="#00D0B0" offset="0.0%" stop-opacity="1.0"></stop>
            <stop stop-color="#0063F4" offset="100.0%" stop-opacity="1.0"></stop>
        </linearGradient>
        <linearGradient y2="425.42844%" id="linearGradient31" x1="4098.037%" y1="-1165.4604%" x2="-1206.4635%">
            <stop stop-color="#00D0B0" offset="0.0%" stop-opacity="1.0"></stop>
            <stop stop-color="#0063F4" offset="100.0%" stop-opacity="1.0"></stop>
        </linearGradient>
        <linearGradient y2="528.30524%" id="linearGradient32" x1="1991.8562%" y1="-1562.094%" x2="-536.279%">
            <stop stop-color="#00D0B0" offset="0.0%" stop-opacity="1.0"></stop>
            <stop stop-color="#0063F4" offset="100.0%" stop-opacity="1.0"></stop>
        </linearGradient>
        <linearGradient y2="416.6982%" id="linearGradient33" x1="1632.9719%" y1="-1228.4424%" x2="-365.04074%">
            <stop stop-color="#00D0B0" offset="0.0%" stop-opacity="1.0"></stop>
            <stop stop-color="#0063F4" offset="100.0%" stop-opacity="1.0"></stop>
        </linearGradient>
        <linearGradient y2="477.5237%" id="linearGradient34" x1="1878.4403%" y1="-1748.4135%" x2="-383.1214%">
            <stop stop-color="#00D0B0" offset="0.0%" stop-opacity="1.0"></stop>
            <stop stop-color="#0063F4" offset="100.0%" stop-opacity="1.0"></stop>
        </linearGradient>
        <linearGradient y2="406.07886%" id="linearGradient35" x1="1784.4744%" y1="-1541.1969%" x2="-335.02487%">
            <stop stop-color="#00D0B0" offset="0.0%" stop-opacity="1.0"></stop>
            <stop stop-color="#0063F4" offset="100.0%" stop-opacity="1.0"></stop>
        </linearGradient>
        <linearGradient y2="421.32587%" id="linearGradient36" x1="1835.7792%" y1="-1612.1323%" x2="-347.12543%">
            <stop stop-color="#00D0B0" offset="0.0%" stop-opacity="1.0"></stop>
            <stop stop-color="#0063F4" offset="100.0%" stop-opacity="1.0"></stop>
        </linearGradient>
        <linearGradient y2="472.2385%" id="linearGradient37" x1="1864.6499%" y1="-1768.9325%" x2="-367.91327%">
            <stop stop-color="#00D0B0" offset="0.0%" stop-opacity="1.0"></stop>
            <stop stop-color="#0063F4" offset="100.0%" stop-opacity="1.0"></stop>
        </linearGradient>
        <linearGradient y2="325.76996%" id="linearGradient38" x1="1494.1992%" y1="-1159.797%" x2="-290.1325%">
            <stop stop-color="#00D0B0" offset="0.0%" stop-opacity="1.0"></stop>
            <stop stop-color="#0063F4" offset="100.0%" stop-opacity="1.0"></stop>
        </linearGradient>
        <linearGradient y2="510.0025%" y1="-1840.4844%" x2="-347.65436%" id="linearGradient39" x1="1688.212%">
            <stop stop-color="#00D0B0" offset="0.0%" stop-opacity="1.0"></stop>
            <stop stop-color="#0063F4" offset="100.0%" stop-opacity="1.0"></stop>
        </linearGradient>
        <linearGradient y2="515.3002%" y1="-1727.6888%" x2="-410.82703%" id="linearGradient40" x1="1809.9451%">
            <stop stop-color="#00D0B0" offset="0.0%" stop-opacity="1.0"></stop>
            <stop stop-color="#0063F4" offset="100.0%" stop-opacity="1.0"></stop>
        </linearGradient>
        <linearGradient y2="533.58905%" y1="-1550.7452%" x2="-318.9541%" id="linearGradient41" x1="1267.0685%">
            <stop stop-color="#00D0B0" offset="0.0%" stop-opacity="1.0"></stop>
            <stop stop-color="#0063F4" offset="100.0%" stop-opacity="1.0"></stop>
        </linearGradient>
        <linearGradient y2="1413.1833%" y1="-4330.128%" x2="-322.60144%" id="linearGradient42" x1="1249.1047%">
            <stop stop-color="#00D0B0" offset="0.0%" stop-opacity="1.0"></stop>
            <stop stop-color="#0063F4" offset="100.0%" stop-opacity="1.0"></stop>
        </linearGradient>
        <linearGradient y2="745.8399%" y1="-1949.3425%" x2="-520.23%" id="linearGradient43" x1="1702.5118%">
            <stop stop-color="#00D0B0" offset="0.0%" stop-opacity="1.0"></stop>
            <stop stop-color="#0063F4" offset="100.0%" stop-opacity="1.0"></stop>
        </linearGradient>
        <linearGradient x1="1278.7488%" y1="-1693.1643%" id="linearGradient44" y2="731.14325%" x2="-436.59314%">
            <stop stop-color="#00D0B0" offset="0.0%" stop-opacity="1.0"></stop>
            <stop stop-color="#0063F4" offset="100.0%" stop-opacity="1.0"></stop>
        </linearGradient>
        <linearGradient x1="1532.3186%" y1="-1473.6393%" id="linearGradient45" y2="836.684%" x2="-715.9628%">
            <stop stop-color="#00D0B0" offset="0.0%" stop-opacity="1.0"></stop>
            <stop stop-color="#0063F4" offset="100.0%" stop-opacity="1.0"></stop>
        </linearGradient>
        <linearGradient x1="1144.3287%" y1="-1961.9514%" id="linearGradient46" y2="1175.8512%" x2="-566.503%">
            <stop stop-color="#00D0B0" offset="0.0%" stop-opacity="1.0"></stop>
            <stop stop-color="#0063F4" offset="100.0%" stop-opacity="1.0"></stop>
        </linearGradient>
        <linearGradient y2="1193.3864%" y1="-1879.4653%" x2="-601.78845%" x1="1148.9374%" id="linearGradient47">
            <stop stop-opacity="1.0" offset="0.0%" stop-color="#00D0B0"></stop>
            <stop stop-opacity="1.0" offset="100.0%" stop-color="#0063F4"></stop>
        </linearGradient>
        <linearGradient id="linearGradient48" x2="-844.78577%" y2="956.7132%" y1="-1319.5635%" x1="1402.5669%">
            <stop stop-opacity="1.0" offset="0.0%" stop-color="#00D0B0"></stop>
            <stop stop-opacity="1.0" offset="100.0%" stop-color="#0063F4"></stop>
        </linearGradient>
        <linearGradient id="linearGradient49" x2="-539.75287%" y2="833.7016%" y1="-1012.9496%" x1="838.82%">
            <stop stop-opacity="1.0" offset="0.0%" stop-color="#00D0B0"></stop>
            <stop stop-opacity="1.0" offset="100.0%" stop-color="#0063F4"></stop>
        </linearGradient>
        <linearGradient x2="-887.9188%" y2="1200.9603%" id="linearGradient50" x1="1116.2473%" y1="-1272.3417%">
            <stop stop-opacity="1.0" offset="0.0%" stop-color="#00D0B0"></stop>
            <stop stop-opacity="1.0" offset="100.0%" stop-color="#0063F4"></stop>
        </linearGradient>
        <linearGradient x2="-1056.6238%" y2="1135.3274%" id="linearGradient51" x1="1189.2465%" y1="-1066.8817%">
            <stop stop-opacity="1.0" offset="0.0%" stop-color="#00D0B0"></stop>
            <stop stop-opacity="1.0" offset="100.0%" stop-color="#0063F4"></stop>
        </linearGradient>
        <linearGradient x2="-982.87585%" y2="859.6756%" id="linearGradient52" x1="948.9151%" y1="-657.78033%">
            <stop stop-opacity="1.0" offset="0.0%" stop-color="#00D0B0"></stop>
            <stop stop-opacity="1.0" offset="100.0%" stop-color="#0063F4"></stop>
        </linearGradient>
        <linearGradient x2="-1602.2589%" y2="983.746%" id="linearGradient53" x1="1311.2632%" y1="-659.99304%">
            <stop stop-opacity="1.0" offset="0.0%" stop-color="#00D0B0"></stop>
            <stop stop-opacity="1.0" offset="100.0%" stop-color="#0063F4"></stop>
        </linearGradient>
        <linearGradient x2="-1266.5416%" y2="1310.8282%" id="linearGradient54" x1="977.2078%" y1="-835.8461%">
            <stop stop-opacity="1.0" offset="0.0%" stop-color="#00D0B0"></stop>
            <stop stop-opacity="1.0" offset="100.0%" stop-color="#0063F4"></stop>
        </linearGradient>
        <linearGradient x2="-1502.852%" y2="986.2722%" id="linearGradient55" x1="1052.201%" y1="-551.3768%">
            <stop stop-opacity="1.0" offset="0.0%" stop-color="#00D0B0"></stop>
            <stop stop-opacity="1.0" offset="100.0%" stop-color="#0063F4"></stop>
        </linearGradient>
        <linearGradient y2="99.969055%" x2="51.412785%" x1="51.412785%" y1="-0.0060171145%" id="linearGradient56">
            <stop offset="0.0%" stop-color="#00D0B0" stop-opacity="1.0"></stop>
            <stop offset="100.0%" stop-color="#0063F4" stop-opacity="1.0"></stop>
        </linearGradient>
    </defs>
    <g>
        <g opacity="1.0">
            <path d="M 28.02 2.96 C 27.98 3.1 27.92 3.22 27.84 3.32 C 27.76 3.42 27.67 3.5 27.57 3.57 C 27.47 3.64 27.36 3.69 27.23 3.73 C 27.11 3.76 26.98 3.78 26.84 3.78 C 26.64 3.79 26.46 3.75 26.3 3.69 C 26.14 3.62 26.01 3.53 25.89 3.41 C 25.79 3.29 25.7 3.14 25.64 2.98 C 25.58 2.81 25.55 2.63 25.55 2.43 C 25.54 2.24 25.57 2.06 25.63 1.9 C 25.7 1.74 25.78 1.6 25.89 1.47 C 26.01 1.35 26.14 1.26 26.31 1.18 C 26.47 1.11 26.64 1.07 26.84 1.07 C 26.96 1.07 27.09 1.08 27.2 1.11 C 27.32 1.14 27.42 1.18 27.52 1.24 C 27.62 1.3 27.71 1.37 27.79 1.46 C 27.87 1.56 27.94 1.66 27.99 1.78 L 27.55 1.97 C 27.52 1.9 27.49 1.83 27.44 1.77 C 27.39 1.71 27.33 1.66 27.27 1.62 C 27.2 1.58 27.13 1.55 27.05 1.52 C 26.97 1.5 26.89 1.49 26.81 1.49 C 26.68 1.49 26.57 1.52 26.47 1.58 C 26.38 1.63 26.3 1.71 26.24 1.8 C 26.18 1.89 26.14 1.99 26.11 2.11 C 26.08 2.22 26.07 2.34 26.08 2.46 C 26.08 2.59 26.09 2.7 26.13 2.81 C 26.16 2.92 26.21 3.02 26.27 3.1 C 26.34 3.18 26.42 3.25 26.52 3.29 C 26.62 3.34 26.74 3.36 26.87 3.36 C 26.96 3.36 27.05 3.35 27.12 3.31 C 27.2 3.29 27.27 3.25 27.33 3.2 C 27.39 3.15 27.45 3.09 27.49 3.01 C 27.54 2.95 27.57 2.87 27.6 2.79 L 28.02 2.96 Z" fill="url(#linearGradient1)" fill-rule="nonzero"></path>
            <polygon points="28.78 0.19  29.31 0  29.01 3.83  28.5 3.79  28.78 0.19" fill="url(#linearGradient2)" fill-rule="nonzero"></polygon>
            <path d="M 29.92 1.31 L 30.43 1.37 L 30.1 3.96 L 29.6 3.89 L 29.92 1.31 ZM 29.95 0.54 C 29.95 0.5 29.97 0.46 29.99 0.42 C 30.01 0.39 30.04 0.36 30.07 0.33 C 30.1 0.31 30.14 0.29 30.18 0.28 C 30.22 0.27 30.26 0.27 30.31 0.27 C 30.35 0.27 30.39 0.29 30.43 0.31 C 30.46 0.33 30.5 0.36 30.52 0.39 C 30.55 0.42 30.56 0.46 30.58 0.5 C 30.59 0.54 30.59 0.58 30.59 0.62 C 30.58 0.67 30.57 0.71 30.55 0.74 C 30.52 0.78 30.5 0.81 30.46 0.83 C 30.43 0.86 30.4 0.88 30.36 0.89 C 30.32 0.9 30.27 0.9 30.23 0.9 C 30.18 0.89 30.14 0.88 30.11 0.86 C 30.07 0.83 30.04 0.81 30.02 0.78 C 29.99 0.75 29.97 0.71 29.96 0.67 C 29.95 0.63 29.94 0.59 29.95 0.54 Z" fill="url(#linearGradient3)" fill-rule="nonzero"></path>
            <path d="M 33.15 3.78 C 33.08 3.9 33 4 32.9 4.08 C 32.8 4.16 32.69 4.22 32.58 4.27 C 32.46 4.31 32.34 4.34 32.22 4.34 C 32.09 4.35 31.95 4.34 31.82 4.31 C 31.62 4.27 31.45 4.2 31.31 4.1 C 31.17 4 31.06 3.88 30.98 3.73 C 30.9 3.59 30.85 3.43 30.83 3.25 C 30.81 3.08 30.83 2.9 30.87 2.7 C 30.91 2.52 30.97 2.35 31.07 2.21 C 31.16 2.06 31.28 1.94 31.42 1.85 C 31.55 1.75 31.71 1.69 31.88 1.66 C 32.06 1.62 32.24 1.62 32.43 1.67 C 32.55 1.69 32.67 1.73 32.77 1.79 C 32.88 1.84 32.98 1.91 33.06 1.99 C 33.14 2.06 33.21 2.16 33.26 2.26 C 33.32 2.37 33.36 2.49 33.39 2.62 L 32.92 2.71 C 32.91 2.63 32.89 2.55 32.85 2.48 C 32.82 2.41 32.78 2.35 32.72 2.3 C 32.66 2.24 32.6 2.19 32.53 2.16 C 32.46 2.11 32.39 2.09 32.31 2.07 C 32.18 2.04 32.06 2.05 31.96 2.08 C 31.86 2.11 31.76 2.17 31.68 2.25 C 31.61 2.32 31.54 2.41 31.49 2.52 C 31.44 2.62 31.4 2.74 31.37 2.85 C 31.35 2.97 31.34 3.09 31.34 3.2 C 31.35 3.32 31.38 3.42 31.42 3.52 C 31.47 3.61 31.53 3.69 31.62 3.76 C 31.71 3.83 31.82 3.88 31.95 3.9 C 32.04 3.92 32.12 3.93 32.2 3.92 C 32.28 3.91 32.36 3.88 32.43 3.85 C 32.51 3.81 32.57 3.77 32.63 3.71 C 32.69 3.65 32.74 3.59 32.79 3.51 L 33.15 3.78 Z" fill="url(#linearGradient4)" fill-rule="nonzero"></path>
            <polygon points="34.6 0.99  35.09 1.16  34.34 3.43  35.68 2.65  36.23 2.83  34.82 3.63  35.49 5.34  34.91 5.15  34.3 3.55  33.88 4.8  33.39 4.64  34.6 0.99" fill="url(#linearGradient5)" fill-rule="nonzero"></polygon>
            <path d="M 37.7 6.36 C 37.58 6.34 37.45 6.3 37.33 6.24 C 37.11 6.14 36.97 6 36.91 5.84 C 36.85 5.68 36.87 5.48 36.98 5.26 L 37.64 3.89 L 37.31 3.74 L 37.49 3.37 L 37.82 3.53 L 38.04 3.07 L 38.6 3.09 L 38.28 3.76 L 38.8 4.01 L 38.63 4.38 L 38.1 4.12 L 37.46 5.44 C 37.42 5.54 37.4 5.63 37.42 5.71 C 37.43 5.79 37.49 5.86 37.6 5.91 C 37.68 5.95 37.78 5.98 37.89 5.99 L 37.7 6.36 Z" fill="url(#linearGradient6)" fill-rule="nonzero"></path>
            <path d="M 38.96 7.17 C 38.79 7.06 38.65 6.94 38.55 6.8 C 38.45 6.65 38.38 6.5 38.35 6.34 C 38.32 6.17 38.32 6 38.35 5.83 C 38.39 5.65 38.46 5.48 38.56 5.31 C 38.66 5.15 38.78 5.01 38.92 4.91 C 39.06 4.8 39.21 4.73 39.37 4.69 C 39.54 4.65 39.7 4.64 39.88 4.67 C 40.05 4.7 40.22 4.76 40.39 4.87 C 40.56 4.97 40.69 5.09 40.79 5.23 C 40.9 5.38 40.96 5.53 41 5.69 C 41.03 5.86 41.04 6.03 41 6.2 C 40.97 6.37 40.9 6.54 40.8 6.71 C 40.7 6.87 40.58 7.02 40.43 7.12 C 40.29 7.23 40.14 7.31 39.98 7.35 C 39.81 7.39 39.64 7.39 39.47 7.37 C 39.3 7.34 39.13 7.27 38.96 7.17 ZM 39.19 6.82 C 39.31 6.89 39.42 6.93 39.54 6.94 C 39.65 6.95 39.75 6.93 39.85 6.89 C 39.95 6.85 40.04 6.79 40.13 6.71 C 40.21 6.62 40.29 6.53 40.35 6.43 C 40.41 6.32 40.46 6.21 40.49 6.09 C 40.53 5.98 40.54 5.87 40.53 5.76 C 40.51 5.65 40.48 5.55 40.42 5.45 C 40.36 5.36 40.27 5.28 40.15 5.2 C 40.03 5.13 39.92 5.09 39.8 5.08 C 39.69 5.08 39.59 5.09 39.49 5.13 C 39.39 5.18 39.3 5.24 39.22 5.32 C 39.13 5.4 39.06 5.49 38.99 5.6 C 38.93 5.71 38.88 5.83 38.85 5.94 C 38.81 6.05 38.8 6.17 38.81 6.27 C 38.83 6.38 38.86 6.48 38.92 6.57 C 38.98 6.67 39.07 6.75 39.19 6.82 Z" fill="url(#linearGradient7)" fill-rule="nonzero"></path>
            <path d="M 42.88 6.62 L 43.28 6.96 L 42.99 7.29 C 43.08 7.26 43.16 7.24 43.25 7.24 C 43.34 7.24 43.43 7.25 43.52 7.27 C 43.6 7.3 43.69 7.33 43.77 7.37 C 43.85 7.41 43.93 7.46 43.99 7.51 C 44.14 7.64 44.25 7.78 44.31 7.94 C 44.38 8.09 44.41 8.24 44.4 8.4 C 44.4 8.56 44.35 8.71 44.29 8.87 C 44.22 9.02 44.12 9.17 44.01 9.3 C 43.89 9.45 43.76 9.56 43.61 9.65 C 43.46 9.75 43.32 9.81 43.16 9.84 C 43 9.87 42.84 9.86 42.68 9.82 C 42.53 9.78 42.37 9.7 42.23 9.57 C 42.16 9.52 42.1 9.45 42.05 9.38 C 41.99 9.31 41.95 9.23 41.91 9.15 C 41.87 9.06 41.85 8.98 41.83 8.89 C 41.82 8.8 41.83 8.71 41.84 8.62 L 40.98 9.63 L 40.59 9.29 L 42.88 6.62 ZM 42.42 9.18 C 42.53 9.27 42.64 9.33 42.74 9.36 C 42.85 9.38 42.95 9.38 43.05 9.35 C 43.16 9.33 43.25 9.28 43.35 9.21 C 43.44 9.14 43.53 9.05 43.61 8.95 C 43.69 8.86 43.75 8.77 43.8 8.66 C 43.85 8.56 43.88 8.46 43.89 8.35 C 43.89 8.24 43.88 8.14 43.84 8.03 C 43.79 7.93 43.72 7.83 43.61 7.74 C 43.51 7.65 43.41 7.6 43.3 7.57 C 43.19 7.55 43.08 7.54 42.98 7.57 C 42.87 7.59 42.77 7.64 42.67 7.7 C 42.58 7.77 42.49 7.85 42.41 7.94 C 42.32 8.04 42.25 8.15 42.2 8.26 C 42.16 8.36 42.13 8.47 42.13 8.58 C 42.12 8.69 42.15 8.79 42.19 8.9 C 42.24 9 42.31 9.09 42.42 9.18 Z" fill="url(#linearGradient8)" fill-rule="nonzero"></path>
            <polygon points="46.04 8.14  46.57 8.36  43.82 11.03  43.46 10.66  46.04 8.14" fill="url(#linearGradient9)" fill-rule="nonzero"></polygon>
            <path d="M 45.47 12.45 C 45.31 12.46 45.16 12.43 45.03 12.35 C 44.89 12.28 44.77 12.18 44.67 12.06 C 44.6 11.97 44.54 11.87 44.5 11.77 C 44.45 11.67 44.43 11.57 44.44 11.46 C 44.44 11.36 44.46 11.26 44.5 11.16 C 44.55 11.07 44.62 10.98 44.72 10.9 C 44.81 10.82 44.9 10.77 44.99 10.75 C 45.08 10.73 45.17 10.72 45.26 10.73 C 45.35 10.74 45.44 10.77 45.52 10.82 C 45.61 10.86 45.69 10.91 45.77 10.98 C 45.85 11.04 45.93 11.11 46 11.19 C 46.07 11.27 46.14 11.34 46.21 11.42 L 46.41 11.67 C 46.49 11.6 46.56 11.53 46.62 11.47 C 46.68 11.41 46.73 11.34 46.75 11.27 C 46.77 11.2 46.77 11.13 46.75 11.04 C 46.73 10.97 46.68 10.88 46.61 10.79 C 46.57 10.74 46.52 10.69 46.46 10.65 C 46.4 10.62 46.35 10.59 46.29 10.57 C 46.23 10.55 46.16 10.54 46.09 10.54 C 46.03 10.54 45.96 10.55 45.9 10.57 L 45.77 10.13 C 45.89 10.1 46 10.08 46.11 10.09 C 46.22 10.1 46.32 10.12 46.42 10.16 C 46.52 10.2 46.61 10.25 46.7 10.33 C 46.79 10.39 46.87 10.47 46.94 10.56 C 47.04 10.68 47.11 10.8 47.16 10.92 C 47.21 11.04 47.23 11.17 47.23 11.29 C 47.22 11.41 47.19 11.52 47.13 11.64 C 47.07 11.75 46.98 11.86 46.86 11.96 L 45.54 13.05 L 45.22 12.65 L 45.47 12.45 ZM 45.93 11.63 C 45.89 11.57 45.83 11.51 45.76 11.44 C 45.69 11.37 45.61 11.31 45.54 11.27 C 45.46 11.23 45.37 11.2 45.29 11.2 C 45.21 11.2 45.12 11.23 45.04 11.3 C 44.93 11.39 44.89 11.48 44.89 11.58 C 44.9 11.68 44.95 11.79 45.03 11.89 C 45.09 11.96 45.15 12.02 45.22 12.07 C 45.29 12.12 45.37 12.15 45.44 12.18 C 45.52 12.2 45.6 12.2 45.69 12.18 C 45.77 12.17 45.84 12.13 45.92 12.07 L 46.14 11.89 L 45.93 11.63 Z" fill="url(#linearGradient10)" fill-rule="nonzero"></path>
            <polygon points="46.47 13.92  47.86 11.78  48.17 12.24  47.09 13.83  48.94 13.42  49.22 13.85  45.51 14.59  45.23 14.16  46.47 13.92" fill="url(#linearGradient11)" fill-rule="nonzero"></polygon>
            <path d="M 50.15 20.73 C 50.01 20.73 49.88 20.71 49.76 20.66 C 49.64 20.62 49.53 20.56 49.44 20.48 C 49.34 20.41 49.26 20.31 49.19 20.21 C 49.11 20.1 49.06 19.98 49.01 19.85 C 48.95 19.65 48.93 19.47 48.94 19.3 C 48.96 19.13 49.01 18.97 49.09 18.83 C 49.17 18.69 49.28 18.56 49.42 18.46 C 49.56 18.35 49.73 18.27 49.91 18.2 C 50.09 18.14 50.27 18.12 50.44 18.13 C 50.62 18.14 50.78 18.18 50.93 18.25 C 51.08 18.32 51.21 18.43 51.33 18.56 C 51.44 18.69 51.53 18.85 51.59 19.03 C 51.63 19.15 51.66 19.27 51.67 19.39 C 51.67 19.51 51.67 19.62 51.64 19.74 C 51.61 19.85 51.57 19.96 51.51 20.06 C 51.45 20.16 51.36 20.26 51.26 20.35 L 50.95 19.99 C 51.01 19.94 51.06 19.88 51.11 19.82 C 51.15 19.75 51.18 19.68 51.2 19.61 C 51.22 19.53 51.23 19.45 51.23 19.37 C 51.22 19.29 51.21 19.21 51.19 19.13 C 51.15 19.01 51.08 18.91 51 18.83 C 50.92 18.76 50.83 18.71 50.72 18.68 C 50.61 18.65 50.5 18.64 50.39 18.65 C 50.27 18.66 50.15 18.68 50.04 18.72 C 49.92 18.76 49.81 18.81 49.72 18.88 C 49.63 18.94 49.55 19.02 49.49 19.1 C 49.43 19.19 49.39 19.29 49.38 19.4 C 49.37 19.51 49.38 19.62 49.42 19.75 C 49.45 19.84 49.49 19.91 49.54 19.98 C 49.59 20.04 49.65 20.1 49.72 20.14 C 49.78 20.19 49.86 20.22 49.94 20.24 C 50.01 20.27 50.1 20.28 50.18 20.28 L 50.15 20.73 Z" fill="url(#linearGradient12)" fill-rule="nonzero"></path>
            <polygon points="53.02 20.56  53.36 21.01  49.64 21.91  49.52 21.41  53.02 20.56" fill="url(#linearGradient13)" fill-rule="nonzero"></polygon>
            <path d="M 52.32 22 L 52.41 22.5 L 49.86 22.99 L 49.76 22.49 L 52.32 22 ZM 53.05 21.79 C 53.09 21.78 53.13 21.78 53.17 21.79 C 53.21 21.8 53.25 21.81 53.28 21.84 C 53.32 21.86 53.34 21.89 53.37 21.93 C 53.39 21.96 53.4 22 53.41 22.05 C 53.42 22.09 53.42 22.13 53.41 22.17 C 53.4 22.22 53.39 22.25 53.37 22.29 C 53.34 22.32 53.32 22.35 53.28 22.37 C 53.25 22.4 53.21 22.41 53.16 22.42 C 53.12 22.43 53.08 22.43 53.04 22.42 C 53 22.41 52.96 22.4 52.93 22.37 C 52.89 22.35 52.87 22.32 52.84 22.28 C 52.82 22.25 52.81 22.21 52.8 22.16 C 52.79 22.12 52.79 22.08 52.8 22.04 C 52.81 21.99 52.82 21.96 52.84 21.92 C 52.87 21.89 52.89 21.86 52.93 21.84 C 52.96 21.81 53 21.8 53.05 21.79 Z" fill="url(#linearGradient14)" fill-rule="nonzero"></path>
            <path d="M 50.97 25.86 C 50.84 25.82 50.72 25.77 50.61 25.71 C 50.5 25.64 50.41 25.56 50.33 25.46 C 50.25 25.36 50.19 25.26 50.14 25.13 C 50.1 25.01 50.07 24.88 50.05 24.75 C 50.03 24.54 50.05 24.36 50.1 24.2 C 50.15 24.03 50.23 23.89 50.34 23.77 C 50.45 23.65 50.59 23.55 50.75 23.48 C 50.91 23.4 51.08 23.36 51.28 23.34 C 51.47 23.32 51.64 23.33 51.81 23.38 C 51.98 23.43 52.13 23.5 52.26 23.6 C 52.39 23.7 52.5 23.83 52.58 23.99 C 52.67 24.14 52.72 24.32 52.74 24.51 C 52.75 24.63 52.75 24.76 52.74 24.88 C 52.72 24.99 52.68 25.1 52.63 25.21 C 52.58 25.31 52.52 25.41 52.44 25.49 C 52.36 25.58 52.26 25.66 52.14 25.72 L 51.91 25.3 C 51.98 25.27 52.04 25.23 52.1 25.17 C 52.16 25.12 52.2 25.06 52.24 24.99 C 52.27 24.92 52.3 24.84 52.31 24.77 C 52.33 24.69 52.33 24.61 52.32 24.52 C 52.31 24.39 52.27 24.28 52.2 24.19 C 52.14 24.1 52.06 24.03 51.96 23.98 C 51.87 23.93 51.76 23.9 51.65 23.88 C 51.53 23.86 51.41 23.86 51.29 23.87 C 51.17 23.89 51.06 23.91 50.95 23.95 C 50.84 23.99 50.75 24.05 50.68 24.13 C 50.6 24.2 50.55 24.28 50.5 24.39 C 50.47 24.49 50.45 24.61 50.47 24.75 C 50.48 24.84 50.5 24.92 50.54 24.99 C 50.57 25.07 50.62 25.13 50.67 25.19 C 50.73 25.25 50.79 25.3 50.87 25.34 C 50.94 25.38 51.02 25.41 51.1 25.43 L 50.97 25.86 Z" fill="url(#linearGradient15)" fill-rule="nonzero"></path>
            <polygon points="54.07 26.4  54.06 26.92  51.67 26.88  52.82 27.93  52.81 28.51  51.63 27.4  50.21 28.56  50.22 27.95  51.55 26.88  50.24 26.86  50.25 26.34  54.07 26.4" fill="url(#linearGradient16)" fill-rule="nonzero"></polygon>
            <path d="M 49.95 31 C 49.93 30.87 49.92 30.74 49.94 30.61 C 49.97 30.37 50.06 30.19 50.19 30.08 C 50.33 29.97 50.52 29.93 50.77 29.96 L 52.26 30.16 L 52.31 29.8 L 52.71 29.85 L 52.66 30.22 L 53.17 30.29 L 53.32 30.83 L 52.59 30.73 L 52.51 31.31 L 52.11 31.26 L 52.19 30.68 L 50.74 30.48 C 50.64 30.47 50.55 30.48 50.48 30.52 C 50.41 30.56 50.36 30.64 50.34 30.76 C 50.33 30.85 50.34 30.95 50.36 31.06 L 49.95 31 Z" fill="url(#linearGradient17)" fill-rule="nonzero"></path>
            <path d="M 49.58 32.45 C 49.62 32.26 49.7 32.09 49.8 31.95 C 49.9 31.81 50.03 31.69 50.17 31.61 C 50.32 31.53 50.48 31.48 50.66 31.45 C 50.83 31.43 51.02 31.44 51.21 31.48 C 51.4 31.53 51.56 31.6 51.71 31.7 C 51.85 31.8 51.97 31.92 52.05 32.07 C 52.14 32.21 52.2 32.37 52.23 32.54 C 52.26 32.72 52.25 32.9 52.21 33.09 C 52.17 33.28 52.09 33.45 51.99 33.59 C 51.89 33.73 51.76 33.84 51.62 33.93 C 51.48 34.01 51.32 34.06 51.14 34.09 C 50.97 34.11 50.79 34.1 50.6 34.06 C 50.41 34.01 50.24 33.94 50.09 33.84 C 49.94 33.73 49.83 33.61 49.74 33.47 C 49.65 33.32 49.59 33.16 49.56 32.99 C 49.53 32.82 49.54 32.64 49.58 32.45 ZM 49.98 32.56 C 49.95 32.7 49.94 32.82 49.97 32.93 C 50 33.04 50.05 33.13 50.12 33.22 C 50.19 33.3 50.27 33.37 50.38 33.42 C 50.48 33.48 50.59 33.52 50.71 33.55 C 50.83 33.57 50.95 33.59 51.07 33.58 C 51.19 33.57 51.3 33.55 51.4 33.51 C 51.5 33.46 51.58 33.4 51.65 33.31 C 51.72 33.22 51.78 33.11 51.81 32.98 C 51.84 32.84 51.84 32.72 51.81 32.61 C 51.79 32.5 51.74 32.41 51.67 32.32 C 51.6 32.24 51.51 32.18 51.41 32.12 C 51.3 32.07 51.19 32.02 51.07 32 C 50.94 31.97 50.82 31.96 50.7 31.96 C 50.59 31.97 50.48 31.99 50.38 32.04 C 50.28 32.08 50.2 32.15 50.13 32.23 C 50.06 32.32 50.01 32.42 49.98 32.56 Z" fill="url(#linearGradient18)" fill-rule="nonzero"></path>
            <path d="M 51.33 36.02 L 51.13 36.5 L 50.73 36.34 C 50.78 36.4 50.82 36.48 50.85 36.57 C 50.88 36.66 50.9 36.74 50.91 36.83 C 50.91 36.93 50.91 37.02 50.9 37.11 C 50.88 37.2 50.86 37.28 50.83 37.36 C 50.75 37.54 50.65 37.69 50.53 37.8 C 50.4 37.91 50.27 37.98 50.11 38.03 C 49.96 38.07 49.8 38.08 49.63 38.07 C 49.47 38.05 49.3 38 49.14 37.93 C 48.97 37.86 48.82 37.78 48.68 37.66 C 48.55 37.55 48.44 37.43 48.37 37.29 C 48.29 37.15 48.25 37 48.24 36.83 C 48.22 36.67 48.26 36.5 48.33 36.32 C 48.36 36.24 48.4 36.16 48.46 36.09 C 48.51 36.01 48.57 35.94 48.64 35.88 C 48.7 35.82 48.78 35.77 48.86 35.73 C 48.94 35.69 49.02 35.67 49.11 35.66 L 47.89 35.15 L 48.09 34.67 L 51.33 36.02 ZM 48.76 36.37 C 48.7 36.51 48.68 36.63 48.69 36.74 C 48.7 36.85 48.73 36.95 48.79 37.03 C 48.84 37.12 48.92 37.2 49.02 37.27 C 49.11 37.34 49.22 37.39 49.34 37.44 C 49.45 37.49 49.56 37.52 49.67 37.53 C 49.79 37.55 49.9 37.54 50 37.52 C 50.1 37.49 50.19 37.44 50.28 37.37 C 50.36 37.29 50.44 37.19 50.49 37.07 C 50.54 36.94 50.56 36.82 50.55 36.71 C 50.55 36.6 50.51 36.5 50.46 36.4 C 50.4 36.31 50.33 36.23 50.24 36.16 C 50.14 36.09 50.04 36.03 49.93 35.98 C 49.8 35.93 49.68 35.89 49.57 35.88 C 49.45 35.87 49.34 35.88 49.24 35.91 C 49.13 35.94 49.04 35.99 48.96 36.07 C 48.88 36.14 48.81 36.25 48.76 36.37 Z" fill="url(#linearGradient19)" fill-rule="nonzero"></path>
            <polygon points="50.87 39.51  50.83 40.08  47.44 38.29  47.68 37.83  50.87 39.51" fill="url(#linearGradient20)" fill-rule="nonzero"></polygon>
            <path d="M 46.61 40.31 C 46.55 40.15 46.54 40 46.56 39.85 C 46.59 39.7 46.64 39.56 46.73 39.42 C 46.79 39.32 46.86 39.24 46.95 39.17 C 47.03 39.09 47.12 39.04 47.22 39.01 C 47.31 38.98 47.42 38.97 47.52 38.98 C 47.63 38.99 47.73 39.03 47.84 39.1 C 47.94 39.17 48.02 39.24 48.07 39.31 C 48.12 39.39 48.15 39.48 48.17 39.57 C 48.18 39.66 48.18 39.75 48.17 39.84 C 48.15 39.94 48.12 40.03 48.09 40.13 C 48.06 40.23 48.01 40.32 47.96 40.41 C 47.91 40.51 47.86 40.6 47.81 40.68 L 47.63 40.95 C 47.72 41.01 47.81 41.06 47.89 41.1 C 47.96 41.13 48.04 41.15 48.12 41.15 C 48.19 41.15 48.26 41.13 48.33 41.09 C 48.4 41.05 48.47 40.97 48.53 40.87 C 48.57 40.81 48.59 40.75 48.61 40.69 C 48.63 40.63 48.64 40.56 48.64 40.5 C 48.63 40.44 48.63 40.37 48.6 40.31 C 48.58 40.25 48.55 40.19 48.51 40.13 L 48.89 39.87 C 48.96 39.97 49.01 40.08 49.03 40.18 C 49.06 40.29 49.07 40.4 49.06 40.5 C 49.06 40.61 49.03 40.71 48.99 40.82 C 48.96 40.93 48.91 41.03 48.84 41.12 C 48.76 41.25 48.67 41.36 48.57 41.44 C 48.47 41.53 48.36 41.59 48.24 41.62 C 48.13 41.65 48.01 41.66 47.88 41.64 C 47.75 41.62 47.62 41.56 47.49 41.48 L 46.05 40.56 L 46.33 40.13 L 46.61 40.31 ZM 47.53 40.5 C 47.57 40.43 47.61 40.35 47.66 40.27 C 47.7 40.18 47.74 40.09 47.75 40.01 C 47.77 39.92 47.76 39.83 47.74 39.75 C 47.72 39.67 47.66 39.6 47.57 39.54 C 47.46 39.46 47.35 39.45 47.26 39.49 C 47.16 39.52 47.08 39.6 47.01 39.71 C 46.96 39.79 46.92 39.86 46.9 39.95 C 46.87 40.03 46.87 40.11 46.87 40.2 C 46.87 40.28 46.89 40.36 46.93 40.43 C 46.97 40.51 47.03 40.57 47.11 40.62 L 47.36 40.77 L 47.53 40.5 Z" fill="url(#linearGradient21)" fill-rule="nonzero"></path>
            <polygon points="45.53 41.71  47.99 42.37  47.64 42.81  45.81 42.28  46.77 43.91  46.45 44.32  44.59 41  44.91 40.6  45.53 41.71" fill="url(#linearGradient22)" fill-rule="nonzero"></polygon>
            <path d="M 40.22 47.35 C 40.18 47.21 40.16 47.08 40.16 46.95 C 40.17 46.82 40.19 46.7 40.24 46.59 C 40.28 46.47 40.34 46.36 40.42 46.26 C 40.5 46.16 40.59 46.07 40.71 45.99 C 40.87 45.87 41.03 45.79 41.2 45.75 C 41.37 45.71 41.53 45.71 41.69 45.74 C 41.85 45.78 42 45.85 42.15 45.95 C 42.3 46.05 42.43 46.18 42.54 46.33 C 42.65 46.49 42.73 46.65 42.78 46.81 C 42.82 46.98 42.84 47.15 42.81 47.31 C 42.79 47.48 42.74 47.64 42.65 47.79 C 42.56 47.95 42.44 48.08 42.28 48.19 C 42.18 48.27 42.07 48.33 41.96 48.37 C 41.85 48.42 41.74 48.44 41.63 48.45 C 41.51 48.46 41.4 48.45 41.28 48.43 C 41.16 48.4 41.05 48.35 40.94 48.29 L 41.18 47.87 C 41.24 47.92 41.32 47.95 41.39 47.97 C 41.46 48 41.54 48 41.62 48 C 41.69 47.99 41.77 47.98 41.85 47.95 C 41.92 47.92 41.99 47.89 42.06 47.84 C 42.17 47.76 42.24 47.67 42.29 47.57 C 42.33 47.47 42.35 47.36 42.34 47.25 C 42.34 47.14 42.32 47.03 42.27 46.92 C 42.23 46.81 42.17 46.71 42.1 46.61 C 42.02 46.51 41.94 46.43 41.85 46.36 C 41.76 46.29 41.66 46.24 41.56 46.21 C 41.46 46.18 41.36 46.18 41.25 46.2 C 41.14 46.22 41.03 46.27 40.93 46.35 C 40.85 46.4 40.8 46.46 40.75 46.53 C 40.7 46.6 40.67 46.67 40.65 46.75 C 40.62 46.83 40.62 46.91 40.62 46.99 C 40.62 47.07 40.64 47.16 40.67 47.24 L 40.22 47.35 Z" fill="url(#linearGradient23)" fill-rule="nonzero"></path>
            <polygon points="41.28 50.03  40.96 50.49  38.95 47.23  39.39 46.95  41.28 50.03" fill="url(#linearGradient24)" fill-rule="nonzero"></polygon>
            <path d="M 39.7 49.81 L 39.26 50.06 L 37.99 47.78 L 38.44 47.53 L 39.7 49.81 ZM 40.13 50.44 C 40.15 50.48 40.17 50.52 40.17 50.56 C 40.17 50.6 40.17 50.64 40.16 50.68 C 40.15 50.72 40.13 50.75 40.1 50.79 C 40.08 50.82 40.04 50.85 40.01 50.87 C 39.97 50.89 39.93 50.9 39.89 50.91 C 39.85 50.92 39.81 50.91 39.77 50.9 C 39.73 50.89 39.69 50.87 39.66 50.85 C 39.62 50.82 39.59 50.79 39.57 50.75 C 39.55 50.71 39.54 50.67 39.54 50.63 C 39.53 50.59 39.54 50.55 39.55 50.51 C 39.56 50.47 39.58 50.43 39.6 50.4 C 39.63 50.37 39.66 50.34 39.7 50.32 C 39.74 50.3 39.78 50.28 39.82 50.28 C 39.86 50.28 39.9 50.28 39.94 50.29 C 39.98 50.3 40.02 50.32 40.05 50.34 C 40.09 50.37 40.11 50.4 40.13 50.44 Z" fill="url(#linearGradient25)" fill-rule="nonzero"></path>
            <path d="M 35.64 49.73 C 35.63 49.59 35.64 49.46 35.67 49.34 C 35.7 49.21 35.75 49.1 35.82 49 C 35.88 48.89 35.96 48.8 36.06 48.72 C 36.16 48.64 36.28 48.57 36.4 48.51 C 36.59 48.43 36.77 48.39 36.94 48.38 C 37.11 48.38 37.27 48.41 37.42 48.48 C 37.57 48.55 37.7 48.64 37.82 48.78 C 37.94 48.9 38.04 49.06 38.12 49.24 C 38.2 49.41 38.24 49.58 38.25 49.76 C 38.26 49.93 38.24 50.1 38.19 50.25 C 38.13 50.41 38.04 50.55 37.92 50.68 C 37.81 50.82 37.66 50.92 37.48 51 C 37.36 51.05 37.25 51.09 37.13 51.11 C 37.01 51.12 36.9 51.13 36.79 51.12 C 36.67 51.1 36.56 51.07 36.45 51.02 C 36.34 50.96 36.24 50.89 36.15 50.8 L 36.47 50.45 C 36.52 50.51 36.59 50.56 36.66 50.59 C 36.72 50.63 36.8 50.65 36.87 50.67 C 36.95 50.68 37.03 50.68 37.11 50.67 C 37.19 50.66 37.26 50.64 37.34 50.6 C 37.46 50.55 37.55 50.48 37.61 50.39 C 37.68 50.3 37.72 50.2 37.74 50.09 C 37.76 49.98 37.76 49.87 37.73 49.75 C 37.71 49.64 37.68 49.52 37.63 49.41 C 37.58 49.3 37.52 49.2 37.45 49.11 C 37.37 49.03 37.29 48.96 37.2 48.91 C 37.1 48.86 37 48.83 36.89 48.83 C 36.78 48.83 36.66 48.85 36.54 48.91 C 36.46 48.94 36.39 48.99 36.33 49.05 C 36.27 49.1 36.22 49.17 36.19 49.24 C 36.15 49.31 36.12 49.39 36.11 49.47 C 36.09 49.55 36.09 49.63 36.1 49.72 L 35.64 49.73 Z" fill="url(#linearGradient26)" fill-rule="nonzero"></path>
            <polygon points="36.11 52.84  35.62 53  34.89 50.72  34.26 52.15  33.72 52.33  34.39 50.85  32.84 49.86  33.41 49.68  34.85 50.6  34.45 49.34  34.94 49.18  36.11 52.84" fill="url(#linearGradient27)" fill-rule="nonzero"></polygon>
            <path d="M 30.44 50.35 C 30.56 50.29 30.68 50.25 30.82 50.23 C 31.06 50.18 31.25 50.21 31.39 50.3 C 31.54 50.4 31.63 50.57 31.68 50.81 L 31.95 52.3 L 32.31 52.24 L 32.38 52.64 L 32.02 52.7 L 32.12 53.21 L 31.65 53.52 L 31.52 52.79 L 30.94 52.9 L 30.87 52.5 L 31.44 52.4 L 31.18 50.95 C 31.16 50.85 31.12 50.77 31.06 50.71 C 31 50.66 30.91 50.64 30.79 50.66 C 30.71 50.67 30.62 50.71 30.52 50.77 L 30.44 50.35 Z" fill="url(#linearGradient28)" fill-rule="nonzero"></path>
            <path d="M 28.96 50.45 C 29.15 50.43 29.34 50.45 29.5 50.51 C 29.67 50.56 29.81 50.64 29.94 50.76 C 30.06 50.87 30.16 51.01 30.24 51.17 C 30.31 51.33 30.36 51.51 30.38 51.71 C 30.39 51.9 30.38 52.08 30.32 52.25 C 30.27 52.41 30.19 52.56 30.09 52.69 C 29.98 52.82 29.85 52.93 29.69 53.01 C 29.53 53.09 29.36 53.14 29.17 53.16 C 28.97 53.17 28.79 53.15 28.62 53.1 C 28.46 53.04 28.31 52.96 28.19 52.85 C 28.06 52.74 27.96 52.6 27.89 52.44 C 27.81 52.28 27.77 52.11 27.75 51.92 C 27.74 51.72 27.75 51.54 27.8 51.37 C 27.85 51.19 27.93 51.04 28.04 50.91 C 28.14 50.78 28.28 50.67 28.44 50.59 C 28.59 50.52 28.77 50.47 28.96 50.45 ZM 28.98 50.87 C 28.84 50.88 28.72 50.92 28.63 50.97 C 28.53 51.03 28.45 51.11 28.4 51.2 C 28.35 51.29 28.31 51.4 28.29 51.52 C 28.27 51.63 28.27 51.75 28.27 51.87 C 28.29 52 28.31 52.12 28.35 52.23 C 28.39 52.34 28.45 52.44 28.52 52.51 C 28.59 52.59 28.69 52.66 28.79 52.7 C 28.89 52.74 29.01 52.76 29.15 52.74 C 29.29 52.73 29.41 52.69 29.5 52.63 C 29.6 52.57 29.67 52.5 29.73 52.41 C 29.78 52.31 29.82 52.21 29.84 52.09 C 29.86 51.98 29.86 51.86 29.85 51.73 C 29.84 51.6 29.81 51.48 29.77 51.37 C 29.73 51.26 29.68 51.17 29.6 51.09 C 29.53 51.01 29.44 50.95 29.34 50.91 C 29.23 50.87 29.11 50.85 28.98 50.87 Z" fill="url(#linearGradient29)" fill-rule="nonzero"></path>
            <path d="M 26.12 53.22 L 25.61 53.19 L 25.64 52.75 C 25.59 52.82 25.53 52.89 25.46 52.94 C 25.38 53 25.31 53.04 25.23 53.08 C 25.14 53.11 25.05 53.14 24.96 53.15 C 24.87 53.17 24.79 53.17 24.7 53.16 C 24.5 53.15 24.33 53.1 24.19 53.01 C 24.05 52.93 23.94 52.82 23.85 52.69 C 23.76 52.56 23.7 52.41 23.67 52.25 C 23.63 52.08 23.62 51.91 23.63 51.73 C 23.65 51.55 23.69 51.37 23.75 51.21 C 23.81 51.05 23.9 50.91 24 50.79 C 24.11 50.68 24.24 50.59 24.39 50.53 C 24.54 50.46 24.72 50.44 24.91 50.45 C 25 50.46 25.08 50.48 25.17 50.5 C 25.25 50.53 25.33 50.57 25.41 50.61 C 25.49 50.65 25.56 50.71 25.62 50.77 C 25.69 50.83 25.74 50.91 25.77 50.99 L 25.87 49.67 L 26.39 49.7 L 26.12 53.22 ZM 24.99 50.88 C 24.85 50.87 24.72 50.89 24.62 50.93 C 24.52 50.98 24.44 51.04 24.37 51.12 C 24.31 51.21 24.26 51.31 24.22 51.42 C 24.19 51.53 24.17 51.65 24.16 51.78 C 24.15 51.9 24.16 52.01 24.18 52.13 C 24.2 52.24 24.24 52.34 24.3 52.43 C 24.35 52.52 24.43 52.6 24.53 52.65 C 24.63 52.71 24.74 52.75 24.88 52.76 C 25.01 52.76 25.13 52.75 25.24 52.71 C 25.34 52.66 25.43 52.6 25.49 52.52 C 25.57 52.44 25.62 52.34 25.66 52.23 C 25.7 52.12 25.72 52 25.73 51.88 C 25.74 51.74 25.73 51.62 25.71 51.5 C 25.68 51.39 25.64 51.28 25.58 51.2 C 25.52 51.11 25.43 51.04 25.34 50.98 C 25.24 50.93 25.12 50.9 24.99 50.88 Z" fill="url(#linearGradient30)" fill-rule="nonzero"></path>
            <polygon points="22.68 53.88  22.13 54.02  22.77 50.23  23.28 50.32  22.68 53.88" fill="url(#linearGradient31)" fill-rule="nonzero"></polygon>
            <path d="M 20.6 50.07 C 20.73 49.97 20.86 49.9 21.01 49.88 C 21.16 49.86 21.32 49.87 21.47 49.91 C 21.58 49.93 21.69 49.98 21.78 50.04 C 21.88 50.09 21.95 50.17 22.02 50.25 C 22.07 50.33 22.12 50.42 22.14 50.53 C 22.16 50.63 22.15 50.75 22.12 50.87 C 22.09 50.98 22.05 51.08 21.99 51.15 C 21.93 51.22 21.86 51.28 21.79 51.33 C 21.71 51.37 21.62 51.4 21.52 51.42 C 21.43 51.43 21.33 51.44 21.23 51.43 C 21.13 51.43 21.02 51.42 20.92 51.4 C 20.82 51.38 20.72 51.36 20.62 51.34 L 20.31 51.26 C 20.28 51.37 20.26 51.46 20.25 51.55 C 20.25 51.63 20.25 51.71 20.27 51.78 C 20.3 51.86 20.34 51.91 20.4 51.97 C 20.46 52.02 20.55 52.06 20.67 52.09 C 20.73 52.11 20.8 52.11 20.86 52.11 C 20.93 52.11 21 52.09 21.06 52.07 C 21.12 52.05 21.18 52.02 21.23 51.98 C 21.28 51.94 21.33 51.9 21.37 51.84 L 21.73 52.12 C 21.65 52.22 21.57 52.3 21.48 52.36 C 21.39 52.41 21.29 52.46 21.19 52.48 C 21.09 52.51 20.98 52.52 20.87 52.52 C 20.76 52.51 20.64 52.5 20.53 52.47 C 20.39 52.43 20.26 52.38 20.15 52.31 C 20.04 52.24 19.95 52.15 19.88 52.05 C 19.81 51.95 19.77 51.84 19.75 51.71 C 19.73 51.58 19.74 51.44 19.78 51.29 L 20.19 49.63 L 20.68 49.76 L 20.6 50.07 ZM 20.71 51.01 C 20.78 51.02 20.87 51.04 20.97 51.06 C 21.06 51.07 21.15 51.07 21.24 51.06 C 21.33 51.05 21.41 51.02 21.48 50.97 C 21.56 50.92 21.6 50.85 21.63 50.74 C 21.66 50.61 21.65 50.5 21.58 50.43 C 21.51 50.35 21.42 50.29 21.28 50.26 C 21.2 50.23 21.12 50.23 21.03 50.23 C 20.94 50.23 20.86 50.25 20.79 50.28 C 20.71 50.31 20.64 50.35 20.58 50.41 C 20.53 50.47 20.48 50.55 20.46 50.64 L 20.39 50.92 L 20.71 51.01 Z" fill="url(#linearGradient32)" fill-rule="nonzero"></path>
            <polygon points="18.93 49.48  19.07 52.03  18.55 51.84  18.48 49.92  17.23 51.35  16.75 51.17  19.3 48.37  19.79 48.54  18.93 49.48" fill="url(#linearGradient33)" fill-rule="nonzero"></polygon>
            <path d="M 11.95 46.17 C 12.07 46.09 12.19 46.03 12.31 45.99 C 12.43 45.96 12.55 45.94 12.67 45.94 C 12.8 45.95 12.92 45.97 13.04 46.02 C 13.16 46.06 13.28 46.12 13.39 46.21 C 13.56 46.32 13.68 46.46 13.77 46.61 C 13.86 46.75 13.91 46.91 13.93 47.07 C 13.95 47.23 13.93 47.4 13.88 47.57 C 13.83 47.74 13.75 47.9 13.63 48.06 C 13.53 48.22 13.4 48.34 13.25 48.44 C 13.11 48.54 12.95 48.6 12.79 48.63 C 12.63 48.66 12.46 48.66 12.28 48.62 C 12.11 48.58 11.95 48.51 11.79 48.39 C 11.68 48.32 11.6 48.24 11.52 48.14 C 11.44 48.05 11.38 47.95 11.34 47.85 C 11.3 47.74 11.27 47.63 11.26 47.51 C 11.25 47.39 11.25 47.27 11.28 47.14 L 11.75 47.24 C 11.72 47.32 11.71 47.4 11.72 47.47 C 11.72 47.55 11.74 47.62 11.77 47.7 C 11.8 47.77 11.84 47.84 11.88 47.9 C 11.93 47.96 11.99 48.02 12.06 48.07 C 12.16 48.14 12.27 48.19 12.38 48.2 C 12.49 48.21 12.6 48.19 12.7 48.15 C 12.8 48.12 12.89 48.06 12.98 47.98 C 13.07 47.9 13.15 47.82 13.22 47.72 C 13.3 47.62 13.35 47.51 13.39 47.41 C 13.43 47.3 13.45 47.19 13.44 47.09 C 13.44 46.99 13.41 46.88 13.36 46.79 C 13.31 46.69 13.22 46.6 13.12 46.52 C 13.04 46.47 12.97 46.43 12.89 46.41 C 12.81 46.39 12.73 46.38 12.65 46.38 C 12.57 46.39 12.49 46.4 12.41 46.43 C 12.33 46.46 12.26 46.5 12.19 46.56 L 11.95 46.17 Z" fill="url(#linearGradient34)" fill-rule="nonzero"></path>
            <polygon points="9.74 48.01  9.2 47.85  11.67 44.92  12.06 45.25  9.74 48.01" fill="url(#linearGradient35)" fill-rule="nonzero"></polygon>
            <path d="M 8.99 47.04 C 8.96 47.07 8.93 47.09 8.89 47.11 C 8.85 47.12 8.81 47.13 8.77 47.13 C 8.73 47.13 8.69 47.13 8.65 47.11 C 8.61 47.1 8.58 47.07 8.55 47.05 C 8.51 47.01 8.49 46.98 8.47 46.94 C 8.45 46.9 8.44 46.86 8.44 46.82 C 8.44 46.78 8.44 46.74 8.46 46.7 C 8.47 46.66 8.49 46.63 8.52 46.59 C 8.55 46.56 8.59 46.54 8.62 46.52 C 8.66 46.51 8.7 46.5 8.74 46.5 C 8.78 46.5 8.82 46.5 8.86 46.52 C 8.9 46.53 8.94 46.56 8.97 46.58 C 9 46.61 9.03 46.65 9.05 46.69 C 9.07 46.72 9.07 46.76 9.07 46.81 C 9.07 46.85 9.07 46.89 9.06 46.93 C 9.05 46.97 9.02 47 8.99 47.04 ZM 9.45 46.43 L 9.08 46.08 L 10.84 44.17 L 11.22 44.52 L 9.45 46.43 Z" fill="url(#linearGradient36)" fill-rule="nonzero"></path>
            <path d="M 8.26 42.53 C 8.39 42.47 8.51 42.44 8.64 42.43 C 8.77 42.42 8.89 42.44 9.01 42.47 C 9.13 42.5 9.24 42.55 9.35 42.62 C 9.46 42.69 9.56 42.78 9.65 42.88 C 9.79 43.03 9.89 43.18 9.94 43.35 C 10 43.51 10.02 43.68 10 43.84 C 9.98 44 9.93 44.16 9.84 44.32 C 9.76 44.47 9.64 44.62 9.5 44.75 C 9.36 44.87 9.21 44.97 9.05 45.03 C 8.88 45.09 8.72 45.12 8.55 45.12 C 8.39 45.12 8.23 45.07 8.07 45 C 7.91 44.93 7.76 44.82 7.63 44.67 C 7.54 44.58 7.48 44.48 7.42 44.38 C 7.36 44.27 7.33 44.16 7.3 44.05 C 7.28 43.94 7.28 43.82 7.29 43.7 C 7.31 43.58 7.34 43.47 7.4 43.34 L 7.83 43.54 C 7.8 43.62 7.77 43.69 7.76 43.77 C 7.74 43.84 7.74 43.92 7.76 44 C 7.77 44.08 7.79 44.15 7.83 44.22 C 7.86 44.29 7.91 44.36 7.96 44.42 C 8.05 44.52 8.14 44.59 8.25 44.62 C 8.36 44.66 8.46 44.66 8.57 44.65 C 8.68 44.63 8.78 44.6 8.88 44.54 C 8.99 44.48 9.08 44.42 9.17 44.33 C 9.26 44.25 9.34 44.16 9.4 44.06 C 9.46 43.97 9.5 43.87 9.52 43.76 C 9.54 43.66 9.53 43.55 9.5 43.45 C 9.47 43.34 9.41 43.24 9.32 43.14 C 9.26 43.07 9.19 43.02 9.12 42.98 C 9.05 42.94 8.97 42.91 8.89 42.9 C 8.82 42.89 8.74 42.89 8.65 42.9 C 8.57 42.91 8.49 42.93 8.41 42.97 L 8.26 42.53 Z" fill="url(#linearGradient37)" fill-rule="nonzero"></path>
            <polygon points="5.47 43.95  5.16 43.53  7.09 42.12  5.55 41.97  5.21 41.5  6.82 41.68  7.26 39.89  7.62 40.38  7.2 42.04  8.26 41.27  8.56 41.69  5.47 43.95" fill="url(#linearGradient38)" fill-rule="nonzero"></polygon>
            <path d="M 6.05 37.77 C 6.15 37.86 6.22 37.97 6.29 38.09 C 6.41 38.3 6.44 38.49 6.4 38.66 C 6.36 38.83 6.22 38.97 6 39.09 L 4.68 39.82 L 4.85 40.14 L 4.5 40.34 L 4.32 40.01 L 3.88 40.26 L 3.43 39.91 L 4.08 39.56 L 3.8 39.05 L 4.16 38.85 L 4.44 39.37 L 5.72 38.67 C 5.81 38.62 5.87 38.55 5.91 38.48 C 5.94 38.4 5.94 38.31 5.88 38.21 C 5.84 38.13 5.77 38.05 5.69 37.98 L 6.05 37.77 Z" fill="url(#linearGradient39)" fill-rule="nonzero"></path>
            <path d="M 5.49 36.38 C 5.57 36.56 5.61 36.74 5.61 36.92 C 5.61 37.09 5.58 37.26 5.51 37.41 C 5.44 37.57 5.34 37.7 5.21 37.83 C 5.08 37.95 4.93 38.05 4.75 38.13 C 4.57 38.2 4.4 38.24 4.22 38.25 C 4.05 38.25 3.88 38.22 3.72 38.16 C 3.57 38.1 3.43 38.01 3.3 37.88 C 3.17 37.76 3.07 37.61 3 37.43 C 2.92 37.24 2.88 37.06 2.88 36.89 C 2.88 36.71 2.91 36.55 2.98 36.39 C 3.04 36.24 3.14 36.1 3.27 35.98 C 3.39 35.86 3.54 35.76 3.72 35.69 C 3.9 35.61 4.08 35.57 4.26 35.56 C 4.44 35.55 4.61 35.58 4.77 35.64 C 4.92 35.71 5.06 35.8 5.19 35.92 C 5.32 36.05 5.42 36.2 5.49 36.38 ZM 5.11 36.53 C 5.05 36.4 4.98 36.3 4.89 36.23 C 4.81 36.15 4.71 36.11 4.61 36.08 C 4.5 36.06 4.39 36.05 4.28 36.07 C 4.16 36.09 4.05 36.12 3.94 36.17 C 3.82 36.22 3.71 36.28 3.62 36.36 C 3.53 36.43 3.46 36.52 3.4 36.61 C 3.34 36.7 3.32 36.81 3.31 36.92 C 3.3 37.03 3.33 37.15 3.38 37.28 C 3.44 37.41 3.51 37.51 3.6 37.58 C 3.68 37.65 3.78 37.7 3.88 37.72 C 3.99 37.74 4.1 37.75 4.21 37.73 C 4.33 37.72 4.44 37.68 4.55 37.63 C 4.68 37.58 4.78 37.52 4.87 37.44 C 4.96 37.37 5.04 37.29 5.09 37.19 C 5.14 37.1 5.17 37 5.18 36.89 C 5.19 36.78 5.16 36.66 5.11 36.53 Z" fill="url(#linearGradient40)" fill-rule="nonzero"></path>
            <path d="M 1.99 34.54 L 1.87 34.04 L 2.29 33.93 C 2.2 33.91 2.12 33.87 2.05 33.82 C 1.98 33.76 1.91 33.71 1.85 33.64 C 1.79 33.57 1.74 33.49 1.7 33.41 C 1.65 33.33 1.62 33.25 1.61 33.17 C 1.56 32.97 1.55 32.8 1.59 32.63 C 1.63 32.47 1.69 32.33 1.79 32.21 C 1.89 32.08 2.01 31.98 2.15 31.89 C 2.3 31.81 2.46 31.74 2.63 31.7 C 2.81 31.66 2.98 31.64 3.16 31.65 C 3.33 31.66 3.49 31.7 3.63 31.77 C 3.77 31.83 3.9 31.93 4 32.06 C 4.11 32.18 4.18 32.34 4.23 32.53 C 4.25 32.61 4.26 32.7 4.26 32.79 C 4.27 32.88 4.26 32.97 4.24 33.06 C 4.22 33.15 4.19 33.23 4.15 33.31 C 4.11 33.39 4.06 33.46 3.99 33.52 L 5.27 33.21 L 5.39 33.71 L 1.99 34.54 ZM 3.85 32.73 C 3.81 32.59 3.76 32.48 3.69 32.4 C 3.61 32.32 3.53 32.26 3.43 32.22 C 3.33 32.18 3.23 32.17 3.11 32.17 C 2.99 32.17 2.87 32.19 2.74 32.22 C 2.63 32.25 2.52 32.29 2.42 32.35 C 2.32 32.41 2.24 32.47 2.17 32.56 C 2.1 32.64 2.05 32.74 2.03 32.85 C 2 32.96 2.01 33.08 2.04 33.21 C 2.07 33.34 2.12 33.45 2.2 33.54 C 2.27 33.62 2.35 33.68 2.45 33.73 C 2.55 33.77 2.66 33.79 2.78 33.8 C 2.9 33.8 3.01 33.79 3.14 33.76 C 3.27 33.72 3.38 33.68 3.48 33.62 C 3.59 33.56 3.67 33.49 3.73 33.4 C 3.8 33.31 3.84 33.21 3.86 33.1 C 3.88 32.99 3.88 32.87 3.85 32.73 Z" fill="url(#linearGradient41)" fill-rule="nonzero"></path>
            <polygon points="0.3 31.45  0 30.97  3.79 30.4  3.86 30.92  0.3 31.45" fill="url(#linearGradient42)" fill-rule="nonzero"></polygon>
            <path d="M 3.26 28.29 C 3.4 28.37 3.5 28.49 3.57 28.62 C 3.64 28.76 3.68 28.91 3.69 29.06 C 3.7 29.18 3.69 29.29 3.66 29.4 C 3.64 29.51 3.6 29.61 3.54 29.69 C 3.48 29.78 3.4 29.84 3.31 29.89 C 3.21 29.95 3.1 29.98 2.98 29.99 C 2.86 29.99 2.76 29.98 2.67 29.95 C 2.59 29.92 2.51 29.87 2.44 29.8 C 2.38 29.74 2.32 29.67 2.28 29.58 C 2.23 29.49 2.2 29.4 2.17 29.3 C 2.14 29.21 2.12 29.1 2.1 29 C 2.09 28.89 2.08 28.79 2.07 28.69 L 2.05 28.37 C 1.94 28.37 1.85 28.39 1.76 28.4 C 1.67 28.42 1.6 28.45 1.54 28.5 C 1.48 28.54 1.43 28.6 1.4 28.67 C 1.37 28.75 1.36 28.85 1.37 28.97 C 1.37 29.04 1.39 29.1 1.41 29.16 C 1.44 29.22 1.47 29.28 1.51 29.33 C 1.54 29.39 1.59 29.43 1.64 29.47 C 1.7 29.51 1.75 29.54 1.82 29.56 L 1.67 29.99 C 1.55 29.95 1.45 29.9 1.37 29.83 C 1.28 29.76 1.21 29.68 1.16 29.59 C 1.1 29.5 1.05 29.4 1.02 29.29 C 0.99 29.19 0.97 29.07 0.96 28.96 C 0.96 28.81 0.96 28.67 1 28.54 C 1.03 28.41 1.08 28.3 1.16 28.2 C 1.23 28.11 1.33 28.03 1.44 27.97 C 1.56 27.92 1.69 27.88 1.85 27.87 L 3.55 27.76 L 3.58 28.26 L 3.26 28.29 ZM 2.41 28.68 C 2.42 28.76 2.43 28.85 2.44 28.94 C 2.46 29.04 2.49 29.12 2.52 29.2 C 2.56 29.29 2.62 29.35 2.68 29.4 C 2.75 29.46 2.84 29.48 2.95 29.47 C 3.08 29.46 3.18 29.42 3.23 29.33 C 3.28 29.24 3.31 29.13 3.3 29 C 3.29 28.91 3.28 28.83 3.24 28.74 C 3.22 28.66 3.18 28.59 3.12 28.52 C 3.07 28.46 3.01 28.41 2.93 28.37 C 2.86 28.34 2.77 28.32 2.68 28.33 L 2.39 28.35 L 2.41 28.68 Z" fill="url(#linearGradient43)" fill-rule="nonzero"></path>
            <polygon points="3.3 26.52  0.93 27.45  0.95 26.89  2.74 26.22  1 25.48  1.02 24.96  4.47 26.52  4.45 27.04  3.3 26.52" fill="url(#linearGradient44)" fill-rule="nonzero"></polygon>
            <path d="M 4.25 18.82 C 4.37 18.91 4.46 19 4.53 19.1 C 4.6 19.21 4.65 19.32 4.69 19.44 C 4.72 19.56 4.73 19.68 4.73 19.81 C 4.73 19.94 4.7 20.07 4.66 20.2 C 4.6 20.4 4.52 20.56 4.4 20.69 C 4.29 20.82 4.16 20.92 4.01 20.99 C 3.86 21.05 3.7 21.09 3.52 21.1 C 3.35 21.1 3.17 21.07 2.98 21.01 C 2.8 20.96 2.64 20.88 2.51 20.77 C 2.37 20.66 2.26 20.53 2.18 20.39 C 2.1 20.24 2.05 20.08 2.04 19.91 C 2.02 19.73 2.04 19.55 2.1 19.36 C 2.13 19.24 2.18 19.13 2.25 19.03 C 2.31 18.93 2.38 18.84 2.47 18.76 C 2.56 18.69 2.65 18.63 2.76 18.58 C 2.87 18.53 2.99 18.5 3.12 18.49 L 3.17 18.97 C 3.09 18.97 3.02 18.98 2.94 19.01 C 2.87 19.04 2.81 19.07 2.75 19.12 C 2.69 19.17 2.63 19.23 2.59 19.3 C 2.55 19.37 2.51 19.44 2.49 19.52 C 2.45 19.64 2.44 19.76 2.46 19.87 C 2.49 19.97 2.54 20.07 2.6 20.16 C 2.67 20.24 2.76 20.31 2.86 20.38 C 2.96 20.44 3.06 20.49 3.18 20.52 C 3.3 20.56 3.41 20.58 3.53 20.58 C 3.64 20.59 3.75 20.57 3.85 20.53 C 3.94 20.5 4.03 20.44 4.11 20.36 C 4.18 20.28 4.24 20.17 4.28 20.05 C 4.31 19.96 4.32 19.88 4.31 19.79 C 4.31 19.71 4.3 19.63 4.27 19.56 C 4.24 19.48 4.2 19.41 4.15 19.35 C 4.09 19.28 4.03 19.22 3.96 19.17 L 4.25 18.82 Z" fill="url(#linearGradient45)" fill-rule="nonzero"></path>
            <polygon points="1.82 17.28  1.8 16.71  5.35 18.15  5.16 18.63  1.82 17.28" fill="url(#linearGradient46)" fill-rule="nonzero"></polygon>
            <path d="M 2.51 16.27 C 2.47 16.25 2.44 16.22 2.41 16.19 C 2.38 16.16 2.36 16.13 2.35 16.09 C 2.34 16.05 2.33 16.01 2.33 15.96 C 2.33 15.92 2.34 15.88 2.36 15.84 C 2.38 15.8 2.4 15.77 2.43 15.74 C 2.46 15.71 2.5 15.69 2.54 15.67 C 2.57 15.66 2.61 15.65 2.65 15.65 C 2.69 15.65 2.74 15.66 2.78 15.68 C 2.82 15.7 2.85 15.72 2.88 15.75 C 2.91 15.79 2.92 15.82 2.94 15.86 C 2.95 15.9 2.96 15.94 2.96 15.98 C 2.96 16.02 2.95 16.07 2.93 16.1 C 2.91 16.15 2.88 16.18 2.85 16.21 C 2.82 16.24 2.79 16.26 2.75 16.27 C 2.71 16.29 2.67 16.3 2.63 16.3 C 2.59 16.3 2.55 16.29 2.51 16.27 ZM 3.23 16.52 L 3.44 16.05 L 5.8 17.14 L 5.58 17.61 L 3.23 16.52 Z" fill="url(#linearGradient47)" fill-rule="nonzero"></path>
            <path d="M 6.55 14.16 C 6.64 14.27 6.71 14.38 6.76 14.5 C 6.81 14.62 6.83 14.74 6.84 14.86 C 6.85 14.98 6.83 15.11 6.8 15.23 C 6.77 15.36 6.72 15.48 6.65 15.6 C 6.55 15.78 6.44 15.92 6.3 16.02 C 6.16 16.13 6.01 16.2 5.85 16.23 C 5.69 16.26 5.52 16.26 5.35 16.23 C 5.18 16.2 5.01 16.13 4.84 16.04 C 4.67 15.94 4.54 15.83 4.43 15.69 C 4.31 15.56 4.24 15.41 4.19 15.25 C 4.14 15.09 4.13 14.92 4.15 14.75 C 4.17 14.57 4.23 14.4 4.32 14.22 C 4.39 14.11 4.46 14.02 4.54 13.93 C 4.63 13.85 4.72 13.78 4.82 13.72 C 4.92 13.67 5.02 13.63 5.14 13.6 C 5.26 13.58 5.38 13.57 5.52 13.59 L 5.46 14.07 C 5.38 14.05 5.31 14.05 5.23 14.06 C 5.15 14.07 5.08 14.1 5.01 14.13 C 4.94 14.17 4.88 14.21 4.82 14.27 C 4.76 14.33 4.71 14.39 4.67 14.46 C 4.61 14.58 4.58 14.69 4.58 14.8 C 4.58 14.91 4.6 15.01 4.65 15.11 C 4.7 15.21 4.77 15.3 4.85 15.38 C 4.93 15.46 5.03 15.53 5.13 15.59 C 5.24 15.65 5.35 15.7 5.46 15.73 C 5.57 15.75 5.68 15.76 5.78 15.75 C 5.88 15.73 5.98 15.69 6.07 15.63 C 6.17 15.57 6.24 15.48 6.31 15.36 C 6.35 15.28 6.38 15.2 6.4 15.12 C 6.41 15.04 6.41 14.96 6.4 14.88 C 6.39 14.8 6.36 14.72 6.33 14.65 C 6.29 14.57 6.24 14.51 6.18 14.44 L 6.55 14.16 Z" fill="url(#linearGradient48)" fill-rule="nonzero"></path>
            <polygon points="4.34 11.94  4.64 11.52  6.58 12.93  6.24 11.41  6.58 10.94  6.91 12.53  8.74 12.4  8.38 12.89  6.68 13.01  7.74 13.78  7.43 14.2  4.34 11.94" fill="url(#linearGradient49)" fill-rule="nonzero"></polygon>
            <path d="M 10.37 10.59 C 10.31 10.7 10.24 10.81 10.14 10.91 C 9.98 11.09 9.81 11.18 9.63 11.19 C 9.46 11.2 9.28 11.12 9.1 10.95 L 8 9.91 L 7.76 10.18 L 7.46 9.9 L 7.71 9.64 L 7.34 9.28 L 7.53 8.76 L 8.06 9.26 L 8.46 8.83 L 8.76 9.11 L 8.36 9.54 L 9.42 10.54 C 9.5 10.62 9.58 10.66 9.66 10.67 C 9.74 10.68 9.82 10.64 9.9 10.55 C 9.96 10.49 10.02 10.4 10.06 10.3 L 10.37 10.59 Z" fill="url(#linearGradient50)" fill-rule="nonzero"></path>
            <path d="M 11.51 9.62 C 11.36 9.75 11.21 9.84 11.04 9.9 C 10.87 9.95 10.7 9.97 10.54 9.95 C 10.37 9.94 10.21 9.88 10.05 9.8 C 9.9 9.71 9.76 9.6 9.62 9.45 C 9.5 9.3 9.41 9.15 9.35 8.98 C 9.29 8.82 9.26 8.65 9.27 8.48 C 9.28 8.31 9.33 8.15 9.4 7.99 C 9.48 7.83 9.59 7.69 9.74 7.56 C 9.89 7.43 10.04 7.34 10.21 7.28 C 10.38 7.23 10.55 7.21 10.71 7.22 C 10.88 7.24 11.04 7.29 11.19 7.37 C 11.35 7.46 11.49 7.57 11.61 7.71 C 11.74 7.86 11.84 8.02 11.9 8.19 C 11.96 8.36 11.98 8.53 11.97 8.7 C 11.96 8.86 11.92 9.03 11.84 9.19 C 11.77 9.35 11.66 9.49 11.51 9.62 ZM 11.25 9.3 C 11.36 9.2 11.43 9.1 11.47 9 C 11.51 8.89 11.53 8.79 11.52 8.68 C 11.51 8.57 11.48 8.47 11.43 8.36 C 11.37 8.26 11.31 8.16 11.23 8.06 C 11.14 7.97 11.05 7.89 10.95 7.82 C 10.85 7.76 10.75 7.71 10.65 7.69 C 10.54 7.67 10.43 7.67 10.32 7.7 C 10.21 7.73 10.11 7.79 10 7.88 C 9.9 7.98 9.83 8.08 9.79 8.18 C 9.75 8.29 9.73 8.39 9.74 8.5 C 9.75 8.61 9.79 8.71 9.84 8.82 C 9.89 8.92 9.96 9.02 10.04 9.11 C 10.13 9.21 10.22 9.3 10.32 9.36 C 10.42 9.43 10.52 9.47 10.62 9.49 C 10.73 9.51 10.84 9.5 10.94 9.48 C 11.04 9.45 11.15 9.39 11.25 9.3 Z" fill="url(#linearGradient51)" fill-rule="nonzero"></path>
            <path d="M 12.16 5.7 L 12.6 5.43 L 12.83 5.79 C 12.82 5.71 12.84 5.62 12.86 5.53 C 12.89 5.44 12.92 5.36 12.97 5.28 C 13.02 5.21 13.07 5.13 13.13 5.07 C 13.2 5 13.26 4.95 13.34 4.9 C 13.5 4.8 13.67 4.74 13.83 4.72 C 14 4.7 14.15 4.72 14.3 4.78 C 14.45 4.83 14.59 4.91 14.71 5.03 C 14.84 5.14 14.95 5.27 15.04 5.42 C 15.14 5.58 15.21 5.74 15.25 5.91 C 15.3 6.08 15.31 6.24 15.29 6.39 C 15.27 6.55 15.22 6.7 15.14 6.84 C 15.05 6.98 14.93 7.1 14.76 7.21 C 14.69 7.25 14.61 7.29 14.53 7.32 C 14.44 7.35 14.36 7.37 14.27 7.38 C 14.18 7.39 14.09 7.39 14 7.37 C 13.91 7.36 13.83 7.33 13.75 7.29 L 14.45 8.41 L 14.01 8.69 L 12.16 5.7 ZM 14.45 6.91 C 14.57 6.83 14.66 6.75 14.72 6.65 C 14.77 6.55 14.8 6.46 14.81 6.35 C 14.81 6.24 14.8 6.14 14.75 6.03 C 14.71 5.91 14.66 5.8 14.59 5.69 C 14.53 5.59 14.46 5.5 14.37 5.43 C 14.29 5.35 14.19 5.29 14.1 5.25 C 14 5.21 13.89 5.2 13.78 5.21 C 13.67 5.22 13.55 5.26 13.44 5.33 C 13.32 5.4 13.23 5.49 13.18 5.58 C 13.12 5.68 13.09 5.78 13.08 5.89 C 13.07 6 13.08 6.11 13.12 6.22 C 13.15 6.33 13.2 6.44 13.27 6.55 C 13.34 6.66 13.42 6.76 13.5 6.84 C 13.59 6.92 13.69 6.97 13.79 7.01 C 13.89 7.04 14 7.05 14.11 7.04 C 14.22 7.02 14.33 6.98 14.45 6.91 Z" fill="url(#linearGradient52)" fill-rule="nonzero"></path>
            <polygon points="14.56 3.12  14.92 2.69  16.64 6.12  16.18 6.35  14.56 3.12" fill="url(#linearGradient53)" fill-rule="nonzero"></polygon>
            <path d="M 18.47 4.96 C 18.43 5.12 18.36 5.25 18.25 5.36 C 18.14 5.47 18.01 5.55 17.87 5.61 C 17.76 5.65 17.65 5.68 17.54 5.69 C 17.43 5.7 17.32 5.69 17.23 5.66 C 17.13 5.63 17.04 5.58 16.96 5.5 C 16.89 5.43 16.82 5.33 16.77 5.22 C 16.73 5.11 16.71 5.01 16.71 4.92 C 16.72 4.82 16.74 4.74 16.78 4.65 C 16.82 4.57 16.87 4.5 16.94 4.43 C 17.01 4.36 17.08 4.3 17.17 4.24 C 17.25 4.18 17.34 4.13 17.43 4.08 C 17.53 4.04 17.62 3.99 17.71 3.95 L 18.01 3.83 C 17.97 3.74 17.93 3.65 17.89 3.57 C 17.84 3.5 17.79 3.43 17.73 3.39 C 17.67 3.35 17.6 3.32 17.52 3.31 C 17.44 3.31 17.34 3.33 17.23 3.38 C 17.17 3.4 17.12 3.43 17.06 3.48 C 17.01 3.52 16.97 3.57 16.93 3.62 C 16.89 3.67 16.86 3.73 16.84 3.8 C 16.82 3.86 16.81 3.92 16.82 3.99 L 16.36 3.98 C 16.36 3.86 16.38 3.75 16.42 3.65 C 16.46 3.55 16.51 3.45 16.58 3.37 C 16.65 3.29 16.73 3.21 16.82 3.15 C 16.91 3.09 17.01 3.03 17.12 2.99 C 17.26 2.93 17.39 2.9 17.52 2.89 C 17.65 2.88 17.78 2.9 17.89 2.93 C 18 2.97 18.11 3.04 18.2 3.13 C 18.29 3.22 18.36 3.34 18.42 3.49 L 19.06 5.07 L 18.59 5.26 L 18.47 4.96 ZM 17.83 4.27 C 17.76 4.29 17.68 4.33 17.6 4.38 C 17.51 4.42 17.44 4.48 17.37 4.54 C 17.31 4.6 17.26 4.67 17.23 4.75 C 17.2 4.84 17.21 4.93 17.25 5.03 C 17.3 5.15 17.37 5.23 17.47 5.25 C 17.57 5.28 17.69 5.26 17.81 5.21 C 17.89 5.18 17.96 5.13 18.03 5.08 C 18.1 5.03 18.15 4.97 18.2 4.9 C 18.24 4.83 18.27 4.75 18.28 4.67 C 18.29 4.59 18.28 4.5 18.24 4.41 L 18.13 4.14 L 17.83 4.27 Z" fill="url(#linearGradient54)" fill-rule="nonzero"></path>
            <polygon points="20.16 4.44  18.54 2.47  19.08 2.32  20.26 3.82  20.43 1.93  20.92 1.79  20.51 5.57  20.02 5.71  20.16 4.44" fill="url(#linearGradient55)" fill-rule="nonzero"></polygon>
        </g>
        <path d="M 38.44 25.97 L 20.73 15.36 C 20 14.92 19.08 15.47 19.08 16.35 L 19.08 37.58 C 19.08 38.46 20 39.02 20.73 38.58 L 38.44 27.96 C 39.17 27.51 39.17 26.41 38.44 25.97 Z" fill="url(#linearGradient56)" fill-rule="nonzero"></path>
    </g>
</svg>