<?xml version="1.0" encoding="UTF-8"?><svg id="Layer_1" xmlns="http://www.w3.org/2000/svg" viewBox="0 0 20.14 16.13"><defs><style>.cls-1{fill:#636771;}</style></defs><path class="cls-1" d="M6.57,16.13h-.27c-.31,0-.62-.03-.97-.06-.57-.06-1.14-.16-1.69-.31-.64-.16-1.27-.38-1.86-.65-.5-.23-.98-.48-1.44-.77-.02,0-.05-.02-.07-.06l-.27-.32,.42,.04c2,.19,3.82-.26,5.44-1.35-.49-.06-.97-.22-1.42-.45-.3-.16-.59-.35-.85-.6-.42-.37-.75-.81-.99-1.33-.06-.13-.12-.27-.17-.42-.02-.04-.05-.13,.02-.21,.07-.08,.17-.06,.21-.06,.25,.04,.48,.06,.72,.06,.08,0,.17,0,.25,0-.1-.04-.2-.09-.3-.14-.32-.15-.62-.35-.9-.59-.42-.36-.76-.79-1.01-1.28-.2-.4-.33-.81-.4-1.26-.03-.21-.05-.41-.04-.6,0-.04,0-.14,.09-.19,.1-.05,.18,0,.22,.02,.35,.19,.72,.31,1.1,.39-.1-.09-.19-.18-.27-.27-.22-.24-.42-.51-.57-.8-.22-.39-.37-.8-.45-1.23-.06-.31-.09-.63-.07-.94,.02-.61,.18-1.19,.45-1.73,0-.02,.02-.06,.04-.08s.03-.05,.04-.07c.05-.1,.11-.12,.16-.13,.05,0,.12,0,.19,.09,.08,.09,.15,.18,.23,.27,.23,.26,.48,.52,.75,.77,.23,.21,.48,.42,.72,.61,.36,.28,.74,.55,1.14,.79,.31,.19,.62,.35,.93,.5,.4,.2,.83,.37,1.26,.52,.62,.21,1.26,.37,1.92,.47,.3,.05,.56,.08,.81,.1l.16,.02c-.03-.17-.05-.33-.06-.5-.04-.59,.06-1.17,.27-1.73,.17-.44,.42-.84,.73-1.2,.35-.41,.79-.74,1.27-.99,.44-.22,.91-.36,1.4-.42,.23-.03,.47-.04,.71-.02,.52,.02,1.02,.14,1.5,.35,.4,.18,.77,.41,1.09,.7l.04,.02c.06,.05,.11,.1,.16,.16,.41-.09,.81-.2,1.16-.34,.42-.15,.82-.34,1.19-.56,.11-.08,.21-.02,.23,0,.02,0,.12,.1,.06,.23-.16,.47-.4,.9-.72,1.29-.15,.19-.32,.35-.5,.51,.02,0,.05-.02,.07-.02,.27-.06,.51-.13,.74-.2,.23-.07,.46-.16,.72-.27l.23-.1c-.13,.34-.35,.8-.73,1.28-.44,.55-.91,.9-1.24,1.11,.02,.21,.02,.42,0,.64,0,.29-.02,.58-.05,.87-.06,.58-.17,1.17-.31,1.76-.19,.69-.43,1.36-.73,2.01-.29,.64-.64,1.24-1.04,1.82-.24,.34-.51,.69-.8,1.02-.24,.27-.51,.56-.8,.82-.4,.37-.82,.72-1.28,1.03-.48,.33-1,.62-1.53,.88-.58,.27-1.2,.5-1.85,.68-.5,.14-1.02,.23-1.54,.31-.1,.01-.21,.02-.33,.04-.18,.02-.32,.03-.38,.04-.37,.03-.82,.04-.98,.04Z"/></svg>