<?xml version="1.0" encoding="UTF-8"?><svg id="Layer_1" xmlns="http://www.w3.org/2000/svg" viewBox="0 0 35 35"><defs><style>.cls-1{fill:none;stroke:#636771;stroke-miterlimit:10;stroke-width:.56px;}.cls-2{fill:#636771;}</style></defs><circle class="cls-1" cx="17.5" cy="17.5" r="17.5"/><path class="cls-2" d="M15.05,23.14h-.19c-.21,0-.43-.02-.68-.05-.4-.04-.79-.11-1.18-.21-.45-.11-.88-.26-1.3-.45-.35-.16-.69-.34-1-.54-.02,0-.03-.02-.05-.04l-.19-.23,.29,.03c1.4,.14,2.67-.18,3.8-.94-.34-.05-.68-.15-.99-.32-.21-.11-.41-.25-.59-.42-.29-.26-.52-.57-.69-.93-.05-.09-.08-.19-.12-.29-.01-.03-.03-.09,.02-.15,.05-.06,.12-.05,.15-.04,.17,.03,.34,.04,.5,.04,.06,0,.12,0,.17,0-.07-.03-.14-.06-.21-.1-.23-.11-.43-.25-.63-.41-.29-.25-.53-.55-.7-.9-.14-.28-.23-.57-.28-.88-.02-.15-.03-.29-.03-.42,0-.03,0-.1,.06-.14,.07-.03,.12,0,.15,.01,.24,.13,.5,.22,.77,.27-.07-.06-.13-.12-.19-.19-.15-.17-.29-.35-.4-.56-.15-.27-.26-.56-.32-.86-.05-.22-.06-.44-.05-.65,.02-.43,.12-.83,.32-1.21,0-.02,.02-.04,.03-.06s.02-.03,.03-.05c.03-.07,.08-.08,.11-.09,.03,0,.08,0,.13,.06,.06,.06,.11,.12,.16,.19,.16,.18,.33,.36,.52,.54,.16,.15,.33,.29,.5,.43,.25,.2,.52,.38,.79,.55,.21,.13,.43,.25,.65,.35,.28,.14,.58,.26,.88,.37,.43,.15,.88,.26,1.34,.33,.21,.03,.39,.06,.57,.07h.11c-.02-.11-.03-.22-.04-.34-.03-.41,.04-.82,.19-1.21,.12-.3,.29-.59,.51-.84,.25-.29,.55-.52,.89-.69,.3-.15,.64-.25,.98-.29,.16-.02,.33-.03,.5-.02,.36,.02,.72,.1,1.05,.24,.28,.12,.54,.29,.76,.49l.03,.02s.08,.07,.11,.11c.29-.06,.56-.14,.81-.24,.29-.11,.57-.24,.83-.39,.08-.06,.15-.02,.16,0,.02,0,.08,.07,.04,.16-.11,.33-.28,.63-.5,.9-.11,.13-.23,.25-.35,.35,.02,0,.03-.01,.05-.01,.19-.04,.35-.09,.52-.14,.16-.05,.32-.11,.5-.19l.16-.07c-.09,.24-.25,.56-.51,.9-.31,.39-.64,.63-.87,.78,.01,.15,.01,.29,0,.45,0,.2-.02,.41-.03,.61-.04,.41-.12,.82-.22,1.23-.13,.48-.3,.95-.51,1.4-.2,.45-.45,.87-.73,1.27-.17,.24-.36,.48-.56,.71-.17,.19-.36,.39-.56,.57-.28,.26-.57,.5-.9,.72-.34,.23-.7,.43-1.07,.61-.41,.19-.84,.35-1.29,.47-.35,.1-.71,.16-1.08,.21-.07,0-.15,.02-.23,.03-.12,.01-.22,.02-.26,.03-.26,.02-.57,.03-.68,.03Z"/></svg>