
<svg xmlns="http://www.w3.org/2000/svg" xmlns:xlink="http://www.w3.org/1999/xlink" fill="none" height="20.5" width="25.84" viewBox="0 0 25.84 20.5">
    <!--Created with Nila (0.3.7-beta.2)-->
    <g opacity="1.0">
        <path d="M 8.74 20.25 C 8.63 20.25 8.52 20.25 8.4 20.25 C 8.02 20.24 7.63 20.21 7.2 20.17 C 6.49 20.1 5.79 19.97 5.11 19.79 C 4.31 19.59 3.54 19.32 2.8 18.99 C 2.18 18.71 1.58 18.39 1.02 18.03 C 0.99 18.02 0.96 18 0.93 17.96 L 0.59 17.56 L 1.11 17.61 C 3.59 17.85 5.85 17.29 7.86 15.94 C 7.25 15.86 6.66 15.67 6.1 15.38 C 5.73 15.18 5.37 14.94 5.05 14.64 C 4.53 14.18 4.12 13.63 3.82 12.99 C 3.74 12.83 3.67 12.65 3.61 12.47 C 3.59 12.42 3.55 12.31 3.64 12.21 C 3.73 12.11 3.85 12.13 3.9 12.14 C 4.21 12.19 4.5 12.22 4.79 12.21 C 4.89 12.21 5 12.2 5.1 12.2 C 4.97 12.15 4.85 12.09 4.73 12.03 C 4.33 11.84 3.96 11.59 3.62 11.3 C 3.1 10.85 2.68 10.32 2.37 9.71 C 2.12 9.22 1.96 8.7 1.88 8.15 C 1.84 7.89 1.82 7.64 1.83 7.41 C 1.83 7.36 1.83 7.24 1.94 7.17 C 2.06 7.11 2.16 7.17 2.21 7.19 C 2.64 7.42 3.1 7.58 3.57 7.67 C 3.45 7.56 3.34 7.45 3.23 7.34 C 2.96 7.04 2.71 6.71 2.52 6.35 C 2.25 5.87 2.06 5.36 1.96 4.82 C 1.88 4.43 1.85 4.04 1.87 3.66 C 1.9 2.9 2.09 2.19 2.43 1.52 C 2.44 1.49 2.46 1.45 2.48 1.42 C 2.5 1.39 2.52 1.36 2.53 1.33 C 2.59 1.21 2.67 1.18 2.73 1.17 C 2.79 1.17 2.88 1.18 2.96 1.28 C 3.06 1.39 3.15 1.5 3.25 1.61 C 3.53 1.93 3.84 2.25 4.18 2.57 C 4.47 2.83 4.77 3.09 5.07 3.33 C 5.52 3.68 5.99 4.01 6.48 4.31 C 6.86 4.54 7.25 4.75 7.63 4.93 C 8.13 5.18 8.66 5.39 9.19 5.58 C 9.96 5.84 10.75 6.04 11.57 6.16 C 11.94 6.22 12.27 6.26 12.58 6.28 L 12.78 6.3 L 12.78 6.3 C 12.74 6.09 12.72 5.89 12.71 5.68 C 12.66 4.95 12.78 4.23 13.05 3.53 C 13.26 2.99 13.57 2.49 13.96 2.04 C 14.4 1.53 14.94 1.12 15.54 0.81 C 16.08 0.54 16.67 0.36 17.28 0.29 C 17.57 0.25 17.86 0.24 18.16 0.26 C 18.8 0.29 19.43 0.43 20.02 0.69 C 20.51 0.91 20.97 1.2 21.37 1.56 L 21.42 1.59 C 21.49 1.65 21.56 1.72 21.62 1.79 C 22.13 1.68 22.62 1.54 23.06 1.37 C 23.58 1.18 24.08 0.95 24.54 0.68 C 24.68 0.58 24.8 0.65 24.83 0.68 C 24.86 0.69 24.98 0.8 24.9 0.97 C 24.7 1.55 24.4 2.09 24.01 2.57 C 23.82 2.8 23.61 3.01 23.39 3.2 C 23.42 3.19 23.45 3.18 23.48 3.18 C 23.81 3.1 24.11 3.02 24.4 2.93 C 24.68 2.84 24.97 2.73 25.29 2.59 L 25.57 2.47 L 25.59 2.77 C 25.6 2.88 25.54 2.95 25.53 2.97 C 25.26 3.35 24.97 3.72 24.66 4.06 C 24.19 4.57 23.68 5.04 23.12 5.44 C 23.14 5.7 23.14 5.96 23.13 6.23 C 23.12 6.59 23.1 6.95 23.07 7.31 C 23 8.03 22.86 8.76 22.68 9.49 C 22.45 10.34 22.15 11.18 21.78 11.98 C 21.42 12.77 20.99 13.52 20.49 14.24 C 20.19 14.66 19.86 15.09 19.5 15.5 C 19.2 15.84 18.87 16.19 18.51 16.52 C 18.02 16.98 17.49 17.41 16.92 17.8 C 16.32 18.21 15.68 18.57 15.02 18.89 C 14.3 19.23 13.53 19.51 12.73 19.73 C 12.11 19.9 11.47 20.02 10.82 20.11 C 10.57 20.14 10.3 20.17 9.95 20.2 C 9.57 20.23 9.17 20.24 8.75 20.24 ZM 1.94 18.09 C 2.27 18.27 2.62 18.44 2.97 18.6 C 3.69 18.92 4.44 19.19 5.22 19.39 C 5.88 19.56 6.56 19.68 7.24 19.75 C 7.67 19.79 8.05 19.82 8.41 19.82 C 8.95 19.83 9.44 19.82 9.92 19.78 C 10.26 19.75 10.52 19.73 10.76 19.7 C 11.39 19.61 12.02 19.49 12.62 19.33 C 13.39 19.12 14.14 18.84 14.84 18.51 C 15.48 18.21 16.1 17.86 16.68 17.46 C 17.23 17.08 17.75 16.67 18.22 16.22 C 18.57 15.9 18.89 15.56 19.18 15.23 C 19.53 14.83 19.86 14.42 20.14 14 C 20.62 13.31 21.05 12.58 21.4 11.81 C 21.76 11.03 22.05 10.22 22.27 9.39 C 22.45 8.68 22.58 7.97 22.65 7.27 C 22.68 6.93 22.71 6.58 22.71 6.23 C 22.72 5.95 22.72 5.68 22.7 5.42 C 22.69 5.27 22.77 5.19 22.83 5.14 C 23.38 4.74 23.89 4.29 24.35 3.79 C 24.5 3.61 24.66 3.43 24.8 3.25 C 24.71 3.28 24.63 3.31 24.54 3.34 C 24.24 3.43 23.93 3.52 23.59 3.6 C 23.58 3.6 22.69 3.8 22.51 3.74 L 22.13 3.61 L 22.46 3.37 C 22.48 3.36 22.49 3.35 22.5 3.34 C 22.95 3.07 23.35 2.72 23.69 2.31 C 23.94 2 24.15 1.66 24.32 1.3 C 23.97 1.48 23.6 1.64 23.22 1.78 C 22.74 1.96 22.21 2.11 21.66 2.23 C 21.53 2.25 21.43 2.22 21.36 2.13 C 21.3 2.06 21.22 1.99 21.14 1.92 L 21.1 1.88 C 20.73 1.55 20.31 1.28 19.85 1.08 C 19.31 0.85 18.74 0.71 18.15 0.69 C 17.87 0.67 17.6 0.68 17.34 0.72 C 16.78 0.78 16.24 0.94 15.75 1.2 C 15.19 1.48 14.7 1.86 14.3 2.32 C 13.94 2.74 13.66 3.2 13.46 3.69 C 13.21 4.33 13.11 4.99 13.14 5.66 C 13.16 5.94 13.19 6.18 13.24 6.42 C 13.26 6.47 13.28 6.57 13.2 6.66 C 13.12 6.76 13.01 6.75 12.97 6.74 C 12.89 6.74 12.82 6.73 12.75 6.73 L 12.55 6.71 C 12.23 6.69 11.89 6.65 11.51 6.59 C 10.67 6.46 9.85 6.26 9.06 5.99 C 8.51 5.8 7.97 5.58 7.45 5.32 C 7.06 5.13 6.66 4.91 6.26 4.68 C 5.76 4.37 5.27 4.04 4.81 3.67 C 4.49 3.42 4.19 3.16 3.89 2.89 C 3.54 2.56 3.23 2.23 2.93 1.9 C 2.89 1.85 2.85 1.8 2.8 1.75 C 2.5 2.35 2.33 3 2.3 3.69 C 2.29 4.04 2.31 4.39 2.38 4.75 C 2.48 5.25 2.65 5.72 2.89 6.15 C 3.08 6.48 3.3 6.79 3.55 7.06 C 3.8 7.32 4.07 7.56 4.36 7.76 C 4.46 7.81 4.48 7.91 4.48 7.96 L 4.49 8.18 L 4.27 8.18 C 4.24 8.18 4.22 8.18 4.2 8.18 C 3.97 8.17 3.74 8.14 3.52 8.1 C 3.09 8.02 2.67 7.89 2.27 7.7 C 2.28 7.84 2.29 7.97 2.31 8.1 C 2.38 8.6 2.53 9.08 2.76 9.53 C 3.04 10.09 3.43 10.58 3.91 10.99 C 4.22 11.26 4.56 11.49 4.92 11.67 C 5.26 11.83 5.63 11.96 6 12.04 C 6.1 12.05 6.16 12.12 6.19 12.16 L 6.33 12.39 L 6.07 12.47 C 6.04 12.48 6.02 12.49 6.01 12.49 C 5.63 12.59 5.23 12.64 4.8 12.65 C 4.58 12.65 4.35 12.64 4.12 12.61 C 4.15 12.68 4.18 12.75 4.21 12.82 C 4.49 13.41 4.87 13.92 5.34 14.34 C 5.64 14.61 5.96 14.84 6.31 15.02 C 6.95 15.35 7.63 15.54 8.33 15.56 C 8.39 15.56 8.45 15.57 8.52 15.6 L 8.86 15.74 L 8.57 15.96 C 6.6 17.44 4.37 18.15 1.94 18.1 ZM 21.69 1.86 L 21.69 1.86 ZM 24.51 0.8 L 24.51 0.8 Z" fill="#636771" stroke="#636771" stroke-width="0.5"></path>
    </g>
</svg>