
<svg fill="none" xmlns:xlink="http://www.w3.org/1999/xlink" xmlns="http://www.w3.org/2000/svg" viewBox="0 0 28.5 20.5" width="28.5" height="20.5">
    <!--Created with Nila (0.3.7-beta.2)-->
    <g opacity="1.0">
        <path d="M 13.47 20.25 C 13.22 20.25 12.96 20.25 12.71 20.24 C 12.55 20.24 12.38 20.24 12.22 20.24 C 11.95 20.24 11.66 20.23 11.38 20.22 C 11.23 20.21 11.07 20.21 10.92 20.21 C 10.8 20.21 10.67 20.2 10.54 20.2 L 10.03 20.19 C 9.73 20.18 9.42 20.17 9.12 20.16 C 8.79 20.14 8.47 20.13 8.14 20.11 L 7.92 20.1 C 7.47 20.08 7.03 20.05 6.59 20.02 C 6 19.98 5.31 19.93 4.6 19.84 C 4.22 19.79 3.92 19.75 3.64 19.69 C 2.98 19.56 2.39 19.25 1.88 18.78 C 1.32 18.24 0.95 17.57 0.78 16.78 C 0.65 16.19 0.55 15.55 0.47 14.81 C 0.42 14.36 0.38 13.91 0.35 13.46 C 0.33 13.19 0.32 12.92 0.31 12.64 L 0.29 12.4 C 0.24 11.28 0.25 10.15 0.26 9.17 C 0.27 8.72 0.28 8.25 0.31 7.76 L 0.33 7.52 C 0.34 7.3 0.35 7.08 0.37 6.85 C 0.4 6.49 0.43 6.11 0.47 5.75 C 0.52 5.28 0.57 4.87 0.63 4.5 C 0.67 4.2 0.72 3.89 0.8 3.58 C 0.98 2.81 1.38 2.15 1.99 1.62 C 2.38 1.28 2.83 1.04 3.33 0.89 C 3.56 0.82 3.79 0.79 4.01 0.76 L 4.1 0.74 C 4.57 0.67 5.07 0.61 5.64 0.56 C 6.15 0.51 6.62 0.48 7.08 0.45 C 7.49 0.42 7.89 0.4 8.29 0.38 C 8.66 0.36 9.03 0.35 9.41 0.33 C 9.73 0.32 10.06 0.31 10.39 0.31 C 10.59 0.3 10.8 0.3 11 0.29 C 11.25 0.28 11.5 0.28 11.75 0.28 C 11.99 0.28 12.22 0.28 12.46 0.27 C 13.33 0.24 14.22 0.25 15.07 0.26 L 15.62 0.26 C 16.07 0.26 16.55 0.27 17.01 0.28 C 17.17 0.29 17.33 0.29 17.49 0.29 C 17.66 0.29 17.82 0.29 17.98 0.3 L 18.29 0.31 C 18.67 0.32 19.06 0.33 19.45 0.34 C 19.8 0.36 20.15 0.37 20.5 0.39 L 20.63 0.39 C 21.01 0.41 21.39 0.43 21.77 0.46 L 21.89 0.46 C 22.45 0.5 23.03 0.54 23.6 0.6 L 23.68 0.61 C 24.06 0.65 24.45 0.7 24.83 0.79 C 25.43 0.94 25.93 1.18 26.37 1.53 C 26.89 1.95 27.27 2.48 27.51 3.11 C 27.65 3.48 27.72 3.85 27.79 4.22 L 27.8 4.28 C 27.9 4.81 27.98 5.38 28.05 6.02 C 28.1 6.47 28.13 6.9 28.16 7.33 C 28.19 7.72 28.21 8.14 28.23 8.69 C 28.26 9.61 28.25 10.5 28.24 11.34 C 28.23 11.87 28.2 12.43 28.16 13 C 28.14 13.34 28.12 13.67 28.09 14 C 28.05 14.4 28.01 14.81 27.96 15.21 C 27.89 15.69 27.82 16.18 27.72 16.7 C 27.6 17.31 27.37 17.85 27.02 18.31 C 26.57 18.89 26 19.32 25.31 19.56 C 24.96 19.69 24.59 19.74 24.27 19.79 C 23.76 19.87 23.27 19.92 22.8 19.97 C 22.47 20 22.13 20.02 21.79 20.04 C 21.34 20.07 20.88 20.1 20.42 20.12 C 20.24 20.14 20.06 20.14 19.88 20.15 C 19.69 20.15 19.5 20.16 19.3 20.17 L 18.85 20.18 C 18.44 20.19 18.03 20.2 17.63 20.21 C 17.34 20.22 17.05 20.22 16.76 20.23 C 16.28 20.24 15.8 20.24 15.33 20.24 C 15.08 20.24 14.84 20.24 14.59 20.24 L 14.59 20.24 C 14.4 20.24 14.22 20.24 14.03 20.24 C 13.85 20.24 13.66 20.24 13.47 20.24 ZM 13.85 0.69 C 13.39 0.69 12.93 0.69 12.47 0.71 C 12.23 0.71 11.99 0.71 11.75 0.72 C 11.51 0.72 11.26 0.72 11.02 0.73 C 10.81 0.73 10.6 0.74 10.4 0.75 C 10.07 0.75 9.75 0.76 9.42 0.77 C 9.05 0.79 8.68 0.8 8.31 0.82 C 7.91 0.84 7.51 0.86 7.11 0.89 C 6.65 0.91 6.18 0.95 5.68 1 C 5.12 1.05 4.63 1.11 4.17 1.18 L 4.08 1.19 C 3.86 1.22 3.65 1.25 3.45 1.31 C 3.01 1.44 2.61 1.66 2.27 1.96 C 1.73 2.43 1.37 3.01 1.21 3.69 C 1.14 3.98 1.09 4.29 1.05 4.57 C 0.99 4.94 0.94 5.35 0.89 5.8 C 0.85 6.16 0.82 6.53 0.79 6.89 C 0.78 7.11 0.77 7.33 0.75 7.56 L 0.74 7.8 C 0.71 8.28 0.69 8.74 0.69 9.18 C 0.67 10.15 0.66 11.27 0.72 12.38 L 0.73 12.63 C 0.74 12.9 0.76 13.17 0.78 13.44 C 0.81 13.88 0.84 14.32 0.9 14.77 C 0.98 15.49 1.07 16.12 1.2 16.7 C 1.34 17.4 1.67 17.99 2.17 18.46 C 2.62 18.89 3.14 19.16 3.72 19.27 C 3.99 19.33 4.28 19.37 4.66 19.42 C 5.35 19.5 6.04 19.55 6.62 19.6 C 7.06 19.63 7.5 19.65 7.94 19.67 L 8.17 19.69 C 8.49 19.7 8.81 19.72 9.13 19.73 C 9.44 19.74 9.74 19.75 10.05 19.76 L 10.56 19.78 C 10.68 19.78 10.8 19.78 10.93 19.78 C 11.09 19.78 11.24 19.79 11.4 19.79 C 11.67 19.8 11.95 19.81 12.22 19.81 C 12.39 19.81 12.55 19.81 12.72 19.81 C 13.16 19.82 13.6 19.82 14.03 19.82 C 14.22 19.82 14.4 19.82 14.59 19.82 C 14.84 19.82 15.09 19.82 15.34 19.82 C 15.8 19.82 16.28 19.82 16.75 19.81 C 17.04 19.8 17.33 19.79 17.62 19.79 C 18.03 19.78 18.43 19.78 18.84 19.76 L 19.29 19.75 C 19.48 19.74 19.68 19.73 19.87 19.73 C 20.05 19.72 20.22 19.72 20.4 19.71 C 20.85 19.68 21.31 19.65 21.76 19.62 C 22.09 19.6 22.43 19.58 22.76 19.55 C 23.22 19.51 23.71 19.46 24.2 19.38 C 24.51 19.33 24.85 19.28 25.17 19.17 C 25.77 18.95 26.28 18.58 26.68 18.06 C 26.99 17.65 27.2 17.18 27.3 16.64 C 27.39 16.12 27.47 15.64 27.53 15.17 C 27.59 14.77 27.63 14.37 27.66 13.98 C 27.69 13.65 27.71 13.32 27.74 12.99 C 27.78 12.42 27.8 11.87 27.81 11.35 C 27.83 10.52 27.83 9.63 27.8 8.73 C 27.78 8.18 27.76 7.76 27.73 7.37 C 27.71 6.95 27.67 6.52 27.63 6.08 C 27.56 5.45 27.48 4.9 27.38 4.38 L 27.37 4.32 C 27.3 3.95 27.24 3.61 27.12 3.28 C 26.9 2.73 26.56 2.25 26.1 1.88 C 25.72 1.57 25.27 1.35 24.73 1.22 C 24.37 1.14 24.02 1.1 23.64 1.06 L 23.55 1.05 C 22.99 0.98 22.42 0.95 21.86 0.91 L 21.74 0.9 C 21.36 0.87 20.99 0.86 20.61 0.84 L 20.48 0.83 C 20.13 0.81 19.78 0.8 19.43 0.79 C 19.05 0.78 18.66 0.76 18.27 0.75 L 17.97 0.74 C 17.81 0.74 17.65 0.74 17.49 0.73 C 17.33 0.73 17.16 0.73 17 0.73 C 16.54 0.71 16.07 0.71 15.61 0.71 L 15.07 0.7 C 14.67 0.7 14.26 0.7 13.85 0.7 ZM 11.62 14.6 C 11.59 14.6 11.55 14.59 11.51 14.57 C 11.39 14.5 11.39 14.36 11.38 14.27 L 11.38 6.24 C 11.38 6.15 11.38 6.01 11.51 5.94 C 11.63 5.87 11.75 5.93 11.82 5.98 L 17.46 9.25 C 17.88 9.5 18.3 9.75 18.73 9.99 C 18.78 10.02 18.86 10.06 18.91 10.16 L 18.97 10.28 L 18.89 10.39 C 18.83 10.45 18.78 10.49 18.74 10.51 L 11.83 14.53 C 11.77 14.56 11.7 14.6 11.62 14.6 ZM 11.81 6.47 L 11.81 14.04 L 18.32 10.26 C 17.96 10.05 17.6 9.84 17.24 9.63 L 11.81 6.47 Z" fill="#636771" stroke="#636771" stroke-width="0.5"></path>
    </g>
</svg>