<?xml version="1.0" encoding="UTF-8"?><svg id="Layer_1" xmlns="http://www.w3.org/2000/svg" viewBox="0 0 21.29 15.2"><defs><style>.cls-1{fill:#636771;}</style></defs><path class="cls-1" d="M21.27,6.42c-.02-.42-.03-.74-.05-1.03-.02-.33-.05-.65-.08-1-.05-.49-.11-.92-.19-1.32v-.05c-.06-.28-.11-.56-.22-.84-.18-.48-.47-.88-.87-1.2-.33-.27-.71-.45-1.17-.56-.29-.07-.59-.11-.87-.14h-.06c-.43-.05-.87-.08-1.3-.11h-.09c-.29-.02-.58-.04-.87-.05h-.1c-.27-.02-.53-.02-.8-.04-.3,0-.59-.02-.88-.02h-.24c-.12-.02-.24-.02-.37-.02-.12,0-.24,0-.36,0-.35,0-.71-.02-1.06-.02h-.42C10.62,0,9.94,0,9.28,.02c-.18,0-.36,0-.54,0s-.38,0-.57,0c-.15,0-.31,0-.46,.02-.25,0-.5,0-.75,.02-.29,.02-.57,.02-.85,.04-.3,.02-.61,.03-.92,.05-.35,.02-.71,.05-1.09,.08-.43,.04-.81,.08-1.17,.14l-.07,.02c-.17,.02-.34,.05-.52,.1-.38,.11-.72,.3-1.02,.55-.46,.4-.77,.9-.9,1.49-.06,.24-.1,.47-.13,.7-.05,.28-.08,.59-.12,.95-.03,.27-.05,.56-.08,.84-.02,.17-.02,.34-.03,.51l-.02,.18c-.02,.37-.03,.73-.04,1.07,0,.75-.02,1.6,.02,2.46l.02,.18c0,.21,.02,.42,.03,.62,.02,.34,.05,.68,.09,1.03,.06,.56,.14,1.05,.24,1.5,.13,.6,.41,1.11,.84,1.52,.39,.36,.84,.59,1.34,.69,.21,.05,.44,.08,.73,.11,.54,.07,1.06,.11,1.51,.14,.33,.02,.67,.05,1.01,.06h.17c.25,.02,.49,.03,.75,.05,.23,0,.46,.02,.69,.02h.39c.1,0,.2,.02,.29,.02,.11,0,.24,0,.35,0,.21,0,.43,.02,.64,.02h.37c.19,0,.39,0,.58,0h1.41c.36,0,.72,0,1.09-.02,.22,0,.44,0,.66-.02,.3,0,.62-.02,.93-.02h.34c.15-.02,.3-.02,.44-.02,.14,0,.27,0,.41-.02,.35-.02,.7-.04,1.04-.06,.26-.02,.52-.03,.77-.05,.36-.04,.73-.08,1.12-.14,.24-.04,.52-.08,.79-.17,.52-.18,.96-.51,1.3-.95,.27-.35,.44-.76,.53-1.22,.08-.4,.13-.77,.18-1.13,.04-.3,.07-.62,.1-.92,.02-.25,.04-.5,.05-.76,.03-.43,.05-.86,.06-1.26,0-.64,.02-1.32,0-2.01Zm-7.1,1.29s-.08,.08-.11,.09l-5.25,3.06s-.1,.05-.16,.05c-.02,0-.05,0-.08-.02-.09-.05-.09-.16-.1-.23V4.55c0-.07,0-.17,.1-.23,.09-.05,.18,0,.24,.03l4.29,2.49c.32,.19,.64,.38,.97,.56,.04,.02,.1,.05,.14,.13l.05,.09-.06,.08Z"/></svg>