<?xml version="1.0" encoding="UTF-8"?><svg id="Layer_1" xmlns="http://www.w3.org/2000/svg" viewBox="0 0 35 35"><defs><style>.cls-1{fill:none;stroke:#636771;stroke-miterlimit:10;stroke-width:.56px;}.cls-2{fill:#636771;}</style></defs><circle class="cls-1" cx="17.5" cy="17.5" r="17.5"/><path class="cls-2" d="M25.53,16.6c-.01-.32-.02-.56-.04-.78-.02-.25-.03-.49-.06-.75-.04-.37-.09-.7-.14-1v-.03c-.05-.21-.09-.43-.17-.64-.14-.36-.36-.67-.65-.91-.25-.2-.54-.34-.88-.43-.22-.05-.44-.08-.66-.1h-.05c-.33-.04-.66-.06-.98-.09h-.07c-.22-.02-.44-.03-.65-.04h-.07c-.2-.01-.4-.02-.6-.03-.22,0-.45-.01-.67-.02h-.18c-.09-.01-.18-.01-.28-.01-.09,0-.18,0-.28,0-.26,0-.54-.01-.8-.01h-.32c-.49,0-1-.01-1.5,0-.14,0-.27,0-.41,0s-.29,0-.43,0c-.11,0-.24,0-.35,.01-.19,0-.38,0-.56,.01-.22,.01-.43,.02-.64,.03-.23,.01-.46,.02-.7,.04-.26,.02-.53,.03-.83,.06-.33,.03-.61,.06-.88,.1h-.05c-.13,.03-.26,.05-.39,.09-.29,.09-.55,.22-.77,.42-.35,.3-.58,.68-.68,1.13-.05,.18-.07,.36-.1,.53-.03,.21-.06,.45-.09,.72-.02,.21-.04,.43-.06,.63-.01,.13-.02,.26-.02,.38v.14c-.03,.28-.03,.55-.04,.81,0,.56-.01,1.21,.02,1.86v.14c.02,.16,.02,.32,.03,.47,.02,.26,.04,.52,.07,.78,.05,.43,.1,.79,.18,1.13,.1,.45,.31,.84,.63,1.15,.29,.27,.63,.45,1.01,.52,.16,.03,.33,.06,.55,.09,.41,.05,.8,.08,1.14,.1,.25,.02,.51,.03,.76,.05h.13c.19,.02,.37,.02,.56,.03,.17,0,.35,.01,.52,.02h.29c.07,0,.15,.01,.22,.01,.09,0,.18,0,.26,0,.16,0,.33,.01,.48,.01h.28c.14,0,.29,0,.44,0h1.07c.27,0,.55,0,.82-.01,.17,0,.33,0,.5-.01,.23,0,.47-.01,.7-.02h.26c.11-.01,.22-.02,.33-.02,.1,0,.21,0,.31-.02,.26-.01,.53-.03,.79-.05,.2-.01,.39-.02,.58-.04,.27-.03,.55-.06,.84-.1,.18-.03,.4-.06,.6-.13,.4-.14,.72-.38,.98-.72,.2-.26,.33-.57,.4-.92,.06-.3,.1-.58,.14-.86,.03-.23,.05-.47,.07-.7,.02-.19,.03-.38,.04-.57,.02-.33,.04-.65,.05-.95,0-.48,.01-.99,0-1.52Zm-5.37,.98s-.06,.06-.09,.07l-3.97,2.31s-.07,.04-.12,.04c-.02,0-.04,0-.06-.02-.07-.04-.07-.12-.07-.17v-4.61c0-.05,0-.13,.07-.17,.07-.04,.14,0,.18,.02l3.24,1.88c.24,.14,.48,.29,.73,.43,.03,.02,.07,.04,.1,.1l.03,.07-.05,.06Z"/></svg>