<?xml version="1.0" encoding="UTF-8"?><svg id="Layer_1" xmlns="http://www.w3.org/2000/svg" viewBox="0 0 36 36"><defs><style>.cls-1{fill:none;stroke:#636771;stroke-miterlimit:10;stroke-width:.56px;}.cls-2{fill:#f3f5f9;}.cls-3{fill:#636771;}</style></defs><circle class="cls-1" cx="18" cy="18" r="17.5"/><g><path class="cls-3" d="M17.55,23.74c-.14,0-.29,0-.44,0h-.28c-.16,0-.32,0-.48-.01-.09,0-.18,0-.26,0-.07,0-.14,0-.22,0h-.29c-.17-.01-.35-.02-.52-.02-.19-.01-.37-.02-.56-.03h-.13c-.26-.02-.51-.03-.76-.05-.34-.02-.74-.05-1.14-.1-.22-.03-.39-.05-.55-.09-.38-.07-.72-.25-1.01-.52-.32-.31-.53-.7-.63-1.15-.07-.34-.13-.71-.18-1.13-.03-.26-.05-.52-.07-.78-.01-.16-.02-.31-.02-.47v-.14c-.04-.64-.03-1.29-.03-1.86,0-.26,.01-.53,.03-.81v-.14c.02-.13,.02-.25,.03-.38,.02-.21,.03-.43,.06-.63,.03-.27,.06-.51,.09-.72,.02-.17,.05-.35,.1-.53,.1-.44,.33-.82,.68-1.13,.22-.2,.48-.33,.77-.42,.13-.04,.26-.06,.39-.07h.05c.27-.05,.56-.09,.88-.11,.29-.03,.56-.05,.83-.06,.24-.02,.47-.03,.7-.04,.21-.01,.43-.02,.64-.03,.18,0,.37-.01,.56-.01,.11,0,.24,0,.35-.01,.14,0,.29,0,.43,0s.27,0,.41,0c.5-.02,1.01-.01,1.5,0h.32c.26,0,.53,0,.8,.01,.09,0,.18,0,.28,0,.1,0,.19,0,.28,0h.18c.22,.01,.44,.02,.67,.02,.2,.01,.4,.02,.6,.03h.07c.22,.01,.44,.02,.65,.04h.07c.32,.02,.65,.05,.98,.08h.05c.22,.03,.44,.06,.66,.11,.34,.09,.63,.22,.88,.43,.3,.24,.52,.55,.65,.91,.08,.21,.12,.43,.16,.64v.03c.06,.3,.11,.63,.15,1,.03,.26,.05,.51,.06,.75,.02,.22,.03,.47,.04,.78,.02,.53,.01,1.04,0,1.52,0,.3-.02,.63-.05,.95-.01,.2-.02,.38-.04,.57-.02,.23-.05,.47-.07,.7-.04,.28-.08,.56-.14,.86-.07,.35-.2,.66-.4,.92-.26,.33-.59,.58-.98,.72-.2,.07-.41,.1-.6,.13-.29,.05-.57,.07-.84,.1-.19,.02-.38,.03-.58,.04-.26,.02-.52,.03-.79,.05-.1,.01-.21,.01-.31,.02-.11,0-.22,0-.33,.01h-.26c-.24,.01-.47,.02-.7,.02-.17,0-.33,0-.5,.01-.28,0-.55,0-.82,0h-1.07Z"/><path class="cls-2" d="M16.49,20.5s-.04,0-.06-.02c-.07-.04-.07-.12-.07-.17v-4.61c0-.05,0-.13,.07-.17,.07-.04,.14,0,.18,.02l3.24,1.88c.24,.14,.48,.29,.73,.43,.03,.02,.07,.04,.1,.1l.03,.07-.05,.06s-.06,.06-.09,.07l-3.97,2.31s-.07,.04-.12,.04Z"/></g></svg>