<?xml version="1.0" encoding="UTF-8"?><svg id="Layer_1" xmlns="http://www.w3.org/2000/svg" viewBox="0 0 482.18 454.54"><defs><style>.cls-1{fill:#00d0b0;}.cls-2{fill:#0063f4;}.cls-3{fill:#2d313c;}.cls-4{stroke:#3372d8;stroke-width:5px;}.cls-4,.cls-5,.cls-6,.cls-7{stroke-miterlimit:10;}.cls-4,.cls-5,.cls-7{fill:none;}.cls-5{stroke-dasharray:0 0 4.99 4.99;}.cls-5,.cls-6,.cls-7{stroke:#2d313c;}.cls-6{fill:#090d18;}</style></defs><rect class="cls-4" x="211.12" y="199.3" width="55.93" height="55.93" rx="13.2" ry="13.2"/><g><path class="cls-3" d="M236.04,454.54c-60.67,0-117.69-23.65-160.58-66.57C32.57,345.05,8.95,287.97,8.95,227.27S32.57,109.49,75.46,66.57C118.35,23.65,175.4,0,236.04,0s117.69,23.65,160.58,66.57c42.89,42.92,66.51,100,66.51,160.7s-23.62,117.78-66.51,160.7c-42.89,42.92-99.91,66.57-160.58,66.57ZM236.04,.68c-60.47,0-117.32,23.57-160.1,66.37C33.17,109.86,9.63,166.74,9.63,227.27s23.54,117.41,66.31,160.21c42.77,42.8,99.63,66.37,160.1,66.37s117.32-23.57,160.1-66.37c42.77-42.8,66.31-99.68,66.31-160.21s-23.54-117.41-66.31-160.21C353.4,24.25,296.52,.68,236.04,.68Z"/><path class="cls-5" d="M455.09,227.27c0,120.98-98.07,219.05-219.05,219.05-290.57-11.54-290.48-426.61,0-438.1,120.98,0,219.05,98.07,219.05,219.05h0Z"/><path class="cls-3" d="M131.18,356.86c-34.59-28.03-56.21-67.87-60.86-112.17-4.66-44.3,8.21-87.76,36.21-122.37,28.01-34.61,67.83-56.25,112.08-60.9,44.25-4.65,87.7,8.23,122.29,36.26,34.59,28.03,56.21,67.87,60.86,112.17s-8.21,87.76-36.21,122.37c-28.01,34.61-67.81,56.24-112.08,60.9-44.28,4.65-87.7-8.23-122.29-36.26Zm-24.26-234.23c-27.93,34.52-40.75,77.83-36.1,122,4.64,44.17,26.18,83.88,60.68,111.83,34.5,27.96,77.79,40.79,121.92,36.16,44.13-4.64,83.81-26.2,111.74-60.71,27.93-34.52,40.75-77.83,36.1-122-4.64-44.17-26.18-83.88-60.68-111.83-34.5-27.96-77.79-40.79-121.92-36.16s-83.83,26.2-111.74,60.71Z"/><path class="cls-3" d="M174.12,303.8c-20.43-16.55-33.19-40.08-35.94-66.24s4.85-51.83,21.39-72.27c16.54-20.44,40.06-33.22,66.19-35.96,26.13-2.75,51.79,4.86,72.22,21.42,20.43,16.55,33.19,40.08,35.94,66.24,2.75,26.16-4.85,51.83-21.39,72.27-16.54,20.44-40.04,33.22-66.19,35.96s-51.79-4.86-72.22-21.42Zm-14.33-138.32c-16.5,20.38-24.06,45.96-21.32,72.05,2.74,26.09,15.46,49.53,35.84,66.04,20.37,16.51,45.94,24.09,72,21.35s49.5-15.47,65.99-35.86c16.5-20.38,24.06-45.96,21.32-72.05-2.74-26.09-15.46-49.53-35.84-66.04-20.37-16.51-45.94-24.09-72-21.35-26.06,2.74-49.51,15.47-65.99,35.86Z"/><g><line class="cls-7" x1="243.54" y1="67.34" x2="243.54" y2="76.46"/><line class="cls-7" x1="257.45" y1="68.6" x2="256.65" y2="77.68"/><line class="cls-7" x1="271.2" y1="71.07" x2="269.61" y2="80.05"/><line class="cls-7" x1="284.68" y1="74.73" x2="282.32" y2="83.53"/><line class="cls-7" x1="297.79" y1="79.55" x2="294.67" y2="88.11"/><line class="cls-7" x1="310.43" y1="85.49" x2="306.57" y2="93.75"/><line class="cls-7" x1="322.5" y1="92.51" x2="317.94" y2="100.41"/><line class="cls-7" x1="333.92" y1="100.56" x2="328.69" y2="108.03"/><line class="cls-7" x1="344.59" y1="109.57" x2="338.73" y2="116.56"/><line class="cls-7" x1="354.43" y1="119.48" x2="347.98" y2="125.93"/><line class="cls-7" x1="363.38" y1="130.21" x2="356.39" y2="136.07"/><line class="cls-7" x1="371.35" y1="141.67" x2="363.88" y2="146.9"/><line class="cls-7" x1="378.3" y1="153.79" x2="370.4" y2="158.35"/><line class="cls-7" x1="384.16" y1="166.47" x2="375.89" y2="170.32"/><line class="cls-7" x1="388.89" y1="179.61" x2="380.33" y2="182.73"/><line class="cls-7" x1="392.47" y1="193.11" x2="383.66" y2="195.47"/><line class="cls-7" x1="394.85" y1="206.88" x2="385.87" y2="208.46"/><line class="cls-7" x1="396.02" y1="220.8" x2="386.94" y2="221.59"/><line class="cls-7" x1="395.98" y1="234.76" x2="386.86" y2="234.76"/><line class="cls-7" x1="394.71" y1="248.67" x2="385.63" y2="247.88"/><line class="cls-7" x1="392.24" y1="262.42" x2="383.26" y2="260.84"/><line class="cls-7" x1="388.59" y1="275.9" x2="379.78" y2="273.54"/><line class="cls-7" x1="383.77" y1="289.01" x2="375.2" y2="285.89"/><line class="cls-7" x1="377.82" y1="301.65" x2="369.56" y2="297.8"/><line class="cls-7" x1="370.8" y1="313.72" x2="362.9" y2="309.17"/><line class="cls-7" x1="362.75" y1="325.14" x2="355.28" y2="319.91"/><line class="cls-7" x1="353.74" y1="335.81" x2="346.76" y2="329.95"/><line class="cls-7" x1="343.83" y1="345.66" x2="337.38" y2="339.21"/><line class="cls-7" x1="333.1" y1="354.6" x2="327.24" y2="347.61"/><line class="cls-7" x1="321.64" y1="362.57" x2="316.41" y2="355.11"/><line class="cls-7" x1="309.52" y1="369.52" x2="304.96" y2="361.62"/><line class="cls-7" x1="296.84" y1="375.38" x2="292.99" y2="367.12"/><line class="cls-7" x1="283.7" y1="380.12" x2="280.58" y2="371.55"/><line class="cls-7" x1="270.2" y1="383.69" x2="267.84" y2="374.88"/><line class="cls-7" x1="256.43" y1="386.07" x2="254.85" y2="377.09"/><line class="cls-7" x1="242.52" y1="387.24" x2="241.72" y2="378.16"/><line class="cls-7" x1="228.55" y1="387.2" x2="228.55" y2="378.08"/><line class="cls-7" x1="214.64" y1="385.94" x2="215.43" y2="376.85"/><line class="cls-7" x1="200.89" y1="383.47" x2="202.47" y2="374.49"/><line class="cls-7" x1="187.41" y1="379.81" x2="189.77" y2="371"/><line class="cls-7" x1="174.3" y1="374.99" x2="177.42" y2="366.42"/><line class="cls-7" x1="161.66" y1="369.05" x2="165.51" y2="360.78"/><line class="cls-7" x1="149.59" y1="362.02" x2="154.15" y2="354.13"/><line class="cls-7" x1="138.17" y1="353.98" x2="143.4" y2="346.51"/><line class="cls-7" x1="127.5" y1="344.96" x2="133.36" y2="337.98"/><line class="cls-7" x1="117.66" y1="335.06" x2="124.1" y2="328.61"/><line class="cls-7" x1="108.71" y1="324.33" x2="115.7" y2="318.47"/><line class="cls-7" x1="100.74" y1="312.86" x2="108.21" y2="307.63"/><line class="cls-7" x1="93.79" y1="300.74" x2="101.69" y2="296.18"/><line class="cls-7" x1="87.93" y1="288.06" x2="96.19" y2="284.21"/><line class="cls-7" x1="83.19" y1="274.92" x2="91.76" y2="271.81"/><line class="cls-7" x1="79.62" y1="261.42" x2="88.43" y2="259.06"/><line class="cls-7" x1="77.24" y1="247.66" x2="86.22" y2="246.07"/><line class="cls-7" x1="76.07" y1="233.74" x2="85.15" y2="232.95"/><line class="cls-7" x1="76.11" y1="219.77" x2="85.23" y2="219.77"/><line class="cls-7" x1="77.37" y1="205.86" x2="86.46" y2="206.66"/><line class="cls-7" x1="79.84" y1="192.11" x2="88.82" y2="193.7"/><line class="cls-7" x1="83.5" y1="178.63" x2="92.31" y2="180.99"/><line class="cls-7" x1="88.32" y1="165.52" x2="96.89" y2="168.64"/><line class="cls-7" x1="94.26" y1="152.89" x2="102.53" y2="156.74"/><line class="cls-7" x1="101.29" y1="140.81" x2="109.18" y2="145.37"/><line class="cls-7" x1="109.34" y1="129.4" x2="116.8" y2="134.63"/><line class="cls-7" x1="118.35" y1="118.72" x2="125.33" y2="124.59"/><line class="cls-7" x1="128.26" y1="108.88" x2="134.7" y2="115.33"/><line class="cls-7" x1="138.98" y1="99.94" x2="144.85" y2="106.92"/><line class="cls-7" x1="150.45" y1="91.96" x2="155.68" y2="99.43"/><line class="cls-7" x1="162.57" y1="85.02" x2="167.13" y2="92.91"/><line class="cls-7" x1="175.25" y1="79.15" x2="179.1" y2="87.42"/><line class="cls-7" x1="188.39" y1="74.42" x2="191.51" y2="82.99"/><line class="cls-7" x1="201.89" y1="70.85" x2="204.25" y2="79.65"/><line class="cls-7" x1="215.65" y1="68.46" x2="217.24" y2="77.44"/><line class="cls-7" x1="229.57" y1="67.29" x2="230.37" y2="76.38"/></g><g><polygon class="cls-3" points="227.34 116.21 233.06 110.51 238.78 115.7 233.06 121.8 227.34 116.21"/><polygon class="cls-3" points="255.72 117.75 262.78 113.84 266.85 120.41 259.67 124.7 255.72 117.75"/><polygon class="cls-3" points="282.56 127.05 290.43 125.24 292.53 132.67 284.45 134.82 282.56 127.05"/><polygon class="cls-3" points="308.25 141.61 316.31 142.05 316.27 149.77 307.92 149.6 308.25 141.61"/><polygon class="cls-3" points="328.73 163.58 336.36 166.22 334.2 173.63 326.21 171.17 328.73 163.58"/><polygon class="cls-3" points="342.15 189.09 348.75 193.73 344.63 200.26 337.63 195.69 342.15 189.09"/><polygon class="cls-3" points="347.99 218.63 353.06 224.91 347.3 230.05 341.83 223.73 347.99 218.63"/><polygon class="cls-3" points="346.23 246.46 349.38 253.9 342.42 257.25 338.91 249.67 346.23 246.46"/><polygon class="cls-3" points="337.66 275.55 338.63 283.56 331.02 284.87 329.73 276.61 337.66 275.55"/><polygon class="cls-3" points="321.54 300.79 320.27 308.76 312.59 307.92 313.63 299.63 321.54 300.79"/><polygon class="cls-3" points="298.88 319.31 295.46 326.62 288.31 323.69 291.6 316.01 298.88 319.31"/><polygon class="cls-3" points="273.51 334.15 268.21 340.24 262.14 335.46 267.42 328.97 273.51 334.15"/><polygon class="cls-3" points="215.99 336.11 209.21 340.49 204.7 334.23 211.56 329.45 215.99 336.11"/><polygon class="cls-3" points="244.71 339.64 237.93 344.03 233.42 337.76 240.28 332.98 244.71 339.64"/><polygon class="cls-3" points="188.8 327.16 181.08 329.52 178.47 322.24 186.38 319.54 188.8 327.16"/><polygon class="cls-3" points="162.84 312.67 154.76 312.8 154.26 305.09 162.61 304.68 162.84 312.67"/><polygon class="cls-3" points="143.06 290.16 135.26 288.06 136.9 280.51 145.04 282.42 143.06 290.16"/><polygon class="cls-3" points="130.05 264.56 123.13 260.39 126.79 253.59 134.09 257.66 130.05 264.56"/><polygon class="cls-3" points="124.53 237.03 119.03 231.12 124.42 225.58 130.31 231.51 124.53 237.03"/><polygon class="cls-3" points="126.26 208.36 122.61 201.16 129.31 197.33 133.34 204.65 126.26 208.36"/><polygon class="cls-3" points="135.73 178.37 134.2 170.44 141.7 168.61 143.56 176.75 135.73 178.37"/><polygon class="cls-3" points="152.18 153.73 152.89 145.69 160.61 146 160.15 154.34 152.18 153.73"/><polygon class="cls-3" points="173.4 134.66 176.3 127.12 183.64 129.54 180.9 137.44 173.4 134.66"/><polygon class="cls-3" points="199.23 121.86 204.09 115.42 210.48 119.77 205.66 126.6 199.23 121.86"/></g><g><circle class="cls-3" cx="239.42" cy="136.24" r="1.82"/><circle class="cls-3" cx="255.17" cy="138.21" r="1.82"/><circle class="cls-3" cx="270.35" cy="142.88" r="1.82"/><circle class="cls-3" cx="284.48" cy="150.12" r="1.82"/><circle class="cls-3" cx="297.14" cy="159.7" r="1.82"/><circle class="cls-3" cx="307.94" cy="171.34" r="1.82"/><circle class="cls-3" cx="316.56" cy="184.68" r="1.82"/><circle class="cls-3" cx="322.74" cy="199.3" r="1.82"/><circle class="cls-3" cx="326.27" cy="214.78" r="1.82"/><circle class="cls-3" cx="327.07" cy="230.64" r="1.82"/><circle class="cls-3" cx="325.1" cy="246.4" r="1.82"/><circle class="cls-3" cx="320.43" cy="261.57" r="1.82"/><circle class="cls-3" cx="313.19" cy="275.7" r="1.82"/><circle class="cls-3" cx="303.61" cy="288.36" r="1.82"/><circle class="cls-3" cx="291.97" cy="299.17" r="1.82"/><circle class="cls-3" cx="278.64" cy="307.79" r="1.82"/><circle class="cls-3" cx="264.01" cy="313.96" r="1.82"/><circle class="cls-3" cx="248.53" cy="317.5" r="1.82"/><circle class="cls-3" cx="232.67" cy="318.3" r="1.82"/><circle class="cls-3" cx="216.92" cy="316.33" r="1.82"/><circle class="cls-3" cx="201.74" cy="311.65" r="1.82"/><circle class="cls-3" cx="187.61" cy="304.41" r="1.82"/><circle class="cls-3" cx="174.95" cy="294.83" r="1.82"/><circle class="cls-3" cx="164.14" cy="283.2" r="1.82"/><circle class="cls-3" cx="155.53" cy="269.86" r="1.82"/><circle class="cls-3" cx="149.35" cy="255.23" r="1.82"/><circle class="cls-3" cx="145.81" cy="239.75" r="1.82"/><circle class="cls-3" cx="145.02" cy="223.89" r="1.82"/><circle class="cls-3" cx="146.99" cy="208.14" r="1.82"/><circle class="cls-3" cx="151.66" cy="192.96" r="1.82"/><circle class="cls-3" cx="158.9" cy="178.83" r="1.82"/><circle class="cls-3" cx="168.48" cy="166.17" r="1.82"/><circle class="cls-3" cx="180.12" cy="155.37" r="1.82"/><circle class="cls-3" cx="193.45" cy="146.75" r="1.82"/><circle class="cls-3" cx="208.08" cy="140.58" r="1.82"/><circle class="cls-3" cx="223.56" cy="137.04" r="1.82"/></g><g><circle class="cls-6" cx="19.44" cy="179.94" r="19.44"/><circle class="cls-2" cx="19.44" cy="179.94" r="10.4"/></g><g><circle class="cls-6" cx="453.02" cy="287.17" r="29.16"/><circle class="cls-1" cx="453.02" cy="287.17" r="15.29"/></g></g></svg>