<?xml version="1.0" encoding="UTF-8"?><svg id="Layer_1" xmlns="http://www.w3.org/2000/svg" xmlns:xlink="http://www.w3.org/1999/xlink" viewBox="0 0 522.32 522.2"><defs><style>.cls-1{fill:url(#linear-gradient);}.cls-2{fill:#00d0b0;}.cls-3{fill:#0063f4;}.cls-4{fill:#2d313c;}.cls-5{fill:#090d18;stroke:#2d313c;stroke-miterlimit:10;}</style><linearGradient id="linear-gradient" x1="201.1" y1="261.1" x2="321.22" y2="261.1" gradientTransform="matrix(1, 0, 0, 1, 0, 0)" gradientUnits="userSpaceOnUse"><stop offset="0" stop-color="#0063f3"/><stop offset="1" stop-color="#00cfaf"/><stop offset="1" stop-color="#00cfaf"/></linearGradient></defs><path class="cls-1" d="M291.22,207.95c-.6-.03-1.2-.05-1.81-.05-6.57,0-12.61,2.11-17.87,6.05-4.21,3.42-7.89,7.62-10.51,12.62-2.63-4.74-6.05-8.94-10.25-12.62-5-3.94-11.31-6.05-17.88-6.05-18.14,0-31.8,14.99-31.8,34.7,0,21.29,17.08,36.01,43.1,58.09,4.47,3.68,9.47,7.89,14.46,12.62,1.31,1.31,3.42,1.31,4.99,0,5.26-4.47,10.26-8.68,14.46-12.62,4.67-3.97,9.06-7.69,13.11-11.25,18.5-16.25,30-29.16,30-46.84,0-19.05-12.77-33.69-30-34.65Z"/><g><path class="cls-4" d="M261.1,522.2c-69.76,0-135.38-27.1-184.69-76.54C27.1,396.48,0,330.86,0,261.1S27.1,125.84,76.41,76.54C125.72,27.23,191.34,0,261.1,0s135.38,27.23,184.69,76.54c49.31,49.31,76.54,114.93,76.54,184.69s-27.1,135.38-76.54,184.69c-49.31,49.18-114.93,76.28-184.69,76.28ZM261.1,.75C191.59,.75,126.22,27.85,77.04,77.04,27.85,126.22,.75,191.59,.75,261.1s27.1,134.88,76.28,184.06c49.18,49.18,114.55,76.28,184.06,76.28s134.88-27.1,184.06-76.28c49.18-49.18,76.28-114.55,76.28-184.06s-27.1-134.88-76.28-184.06C395.98,27.85,330.61,.75,261.1,.75Zm0,453.19c-51.57,0-100-20.07-136.38-56.46-36.39-36.39-56.46-84.82-56.46-136.38s20.07-100,56.46-136.38,84.82-56.46,136.38-56.46,100,20.07,136.38,56.46c36.39,36.39,56.46,84.82,56.46,136.38s-20.07,100-56.46,136.38c-36.39,36.39-84.82,56.46-136.38,56.46Zm0-384.94c-51.32,0-99.5,20.07-135.76,56.34-36.39,36.26-56.34,84.44-56.34,135.76s19.95,99.5,56.21,135.76c36.26,36.26,84.57,56.21,135.88,56.21s99.5-19.95,135.88-56.21c36.26-36.26,56.21-84.57,56.21-135.76s-19.95-99.5-56.21-135.76c-36.26-36.26-84.57-56.34-135.88-56.34Zm-.38-53.83h.75v-6.4h-.75v6.4Zm9.34,.08l.22-6.4-.75-.03-.22,6.4,.75,.03Zm8.63,.5l.45-6.38-.75-.05-.45,6.38,.75,.05Zm8.53,.77l.67-6.36-.75-.08-.67,6.36,.75,.08Zm8.46,1.04l.89-6.34-.75-.1-.89,6.34,.75,.1Zm8.52,1.28l1.11-6.3-.74-.13-1.11,6.3,.74,.13Zm8.4,1.67l1.33-6.26-.74-.16-1.33,6.26,.74,.16Zm8.39,2.01l1.55-6.21-.73-.18-1.55,6.21,.73,.18Zm8.32,2.24l1.76-6.15-.72-.21-1.76,6.15,.72,.21Zm8.19,2.43l1.98-6.09-.72-.23-1.98,6.09,.72,.23Zm8.13,2.88l2.19-6.01-.71-.26-2.19,6.01,.71,.26Zm7.93,3.01l2.4-5.93-.7-.28-2.4,5.93,.7,.28Zm8.03,3.39l2.6-5.85-.69-.31-2.6,5.85,.69,.31Zm7.7,3.72l2.8-5.75-.68-.33-2.8,5.75,.68,.33Zm7.62,3.85l3-5.65-.66-.35-3,5.65,.66,.35Zm7.58,4.17l3.2-5.54-.65-.38-3.2,5.54,.65,.38Zm7.25,4.43l3.39-5.43-.64-.4-3.39,5.43,.64,.4Zm7.2,4.71l3.58-5.31-.62-.42-3.58,5.31,.62,.42Zm7.07,4.93l3.76-5.18-.61-.44-3.76,5.18,.61,.44Zm6.91,5.13l3.94-5.04-.59-.46-3.94,5.04,.59,.46Zm6.53,5.45l4.11-4.9-.58-.48-4.11,4.9,.58,.48Zm6.59,5.63l4.28-4.76-.56-.5-4.28,4.76,.56,.5Zm6.17,5.89l4.44-4.6-.54-.52-4.44,4.6,.54,.52Zm6.05,6.07l4.6-4.45-.52-.54-4.6,4.45,.52,.54Zm5.95,6.26l4.76-4.28-.5-.56-4.76,4.28,.5,.56Zm5.56,6.51l4.9-4.11-.48-.58-4.9,4.11,.48,.58Zm5.45,6.68l5.04-3.94-.46-.59-5.04,3.94,.46,.59Zm5.16,6.8l5.18-3.76-.44-.61-5.18,3.76,.44,.61Zm4.85,7.1l5.3-3.58-.42-.62-5.3,3.58,.42,.62Zm4.7,7.2l5.43-3.39-.4-.64-5.43,3.39,.4,.64Zm4.44,7.31l5.54-3.2-.38-.65-5.54,3.2,.38,.65Zm4.08,7.57l5.65-3-.35-.66-5.65,3,.35,.66Zm3.95,7.66l5.75-2.81-.33-.68-5.75,2.81,.33,.68Zm3.61,7.82l5.85-2.6-.31-.69-5.85,2.6,.31,.69Zm3.33,7.94l5.93-2.4-.28-.7-5.93,2.4,.28,.7Zm3.05,7.93l6.01-2.19-.26-.71-6.01,2.19,.26,.71Zm2.86,8.16l6.09-1.98-.23-.72-6.09,1.98,.23,.72Zm2.45,8.19l6.15-1.76-.21-.72-6.15,1.76,.21,.72Zm2.21,8.3l6.21-1.55-.18-.73-6.21,1.55,.18,.73Zm2,8.42l6.26-1.33-.16-.74-6.26,1.33,.16,.74Zm1.61,8.44l6.3-1.11-.13-.74-6.3,1.11,.13,.74Zm1.31,8.41l6.34-.89-.1-.75-6.34,.89,.1,.75Zm1,8.56l6.36-.67-.08-.75-6.36,.67,.08,.75Zm.71,8.53l6.38-.45-.05-.75-6.38,.45,.05,.75Zm.51,8.56l6.4-.22-.03-.75-6.4,.22,.03,.75Zm.1,8.54h6.4v-.75h-6.4v.75Zm6.3,8.96l.03-.75-6.4-.22-.03,.75,6.4,.22Zm-.52,8.8l.05-.75-6.38-.44-.05,.75,6.38,.44Zm-.76,8.77l.08-.75-6.36-.67-.08,.75,6.36,.67Zm-1.08,8.72l.1-.75-6.34-.89-.1,.75,6.34,.89Zm-1.48,8.66l.13-.74-6.3-1.11-.13,.74,6.3,1.11Zm-1.66,8.69l.16-.74-6.26-1.33-.16,.74,6.26,1.33Zm-1.98,8.65l.18-.73-6.21-1.55-.18,.73,6.21,1.55Zm-2.25,8.47l.21-.72-6.15-1.76-.21,.72,6.15,1.76Zm-2.55,8.28l.23-.72-6.09-1.98-.23,.72,6.09,1.98Zm-2.9,8.42l.26-.71-6.01-2.19-.26,.71,6.01,2.19Zm-3.24,8.2l.28-.7-5.93-2.4-.28,.7,5.93,2.4Zm-3.47,8.15l.31-.69-5.85-2.6-.31,.69,5.85,2.6Zm-3.64,7.9l.33-.68-5.75-2.8-.33,.68,5.75,2.8Zm-4.02,7.9l.35-.66-5.65-3-.35,.66,5.65,3Zm-4.23,7.68l.38-.65-5.54-3.2-.38,.65,5.54,3.2Zm-4.62,7.57l.4-.64-5.43-3.39-.4,.64,5.43,3.39Zm-4.82,7.39l.42-.62-5.31-3.58-.42,.62,5.31,3.58Zm-5.06,7.24l.44-.61-5.18-3.76-.44,.61,5.18,3.76Zm-5.28,6.92l.46-.59-5.04-3.94-.46,.59,5.04,3.94Zm-5.59,6.89l.48-.58-4.9-4.11-.48,.58,4.9,4.11Zm-5.83,6.64l.5-.56-4.76-4.28-.5,.56,4.76,4.28Zm-6,6.45l.52-.54-4.6-4.44-.52,.54,4.6,4.44Zm-6.23,6.21l.54-.52-4.45-4.6-.54,.52,4.45,4.6Zm-6.42,5.92l.56-.5-4.28-4.75-.56,.5,4.28,4.75Zm-6.68,5.87l.58-.48-4.12-4.9-.58,.48,4.12,4.9Zm-6.82,5.58l.59-.46-3.94-5.04-.59,.46,3.94,5.04Zm-7.08,5.21l.61-.44-3.76-5.18-.61,.44,3.76,5.18Zm-7.15,5.02l.62-.42-3.58-5.3-.62,.42,3.58,5.3Zm-7.48,4.86l.64-.4-3.39-5.42-.64,.4,3.39,5.42Zm-7.49,4.53l.65-.38-3.2-5.54-.65,.38,3.2,5.54Zm-7.74,4.22l.66-.35-3.01-5.65-.66,.35,3.01,5.65Zm-7.9,4.06l.68-.33-2.81-5.75-.68,.33,2.81,5.75Zm-7.89,3.64l.69-.31-2.6-5.84-.69,.31,2.6,5.84Zm-8.18,3.42l.7-.28-2.4-5.93-.7,.28,2.4,5.93Zm-8.27,3.17l.71-.26-2.19-6.01-.71,.26,2.19,6.01Zm-8.24,2.89l.72-.23-1.98-6.08-.72,.23,1.98,6.08Zm-8.54,2.55l.72-.21-1.77-6.15-.72,.21,1.77,6.15Zm-8.49,2.29l.73-.18-1.55-6.21-.73,.18,1.55,6.21Zm-8.55,1.84l.74-.16-1.33-6.26-.74,.16,1.33,6.26Zm-8.63,1.79l.74-.13-1.11-6.3-.74,.13,1.11,6.3Zm-8.63,1.39l.75-.11-.89-6.34-.75,.11,.89,6.34Zm-8.77,1.02l.75-.08-.67-6.36-.75,.08,.67,6.36Zm-8.79,.72l.75-.05-.45-6.38-.75,.05,.45,6.38Zm-8.88,.53l.75-.03-.23-6.4-.75,.03,.23,6.4Zm-8.78,.1h.75v-6.4h-.75v6.4Zm-8.07-.22l.22-6.4-.75-.03-.22,6.4,.75,.03Zm-8.8-.47l.44-6.38-.75-.05-.44,6.38,.75,.05Zm-8.83-.69l.67-6.36-.75-.08-.67,6.36,.75,.08Zm-8.69-1.07l.89-6.34-.75-.1-.89,6.34,.75,.1Zm-8.77-1.35l1.11-6.3-.74-.13-1.11,6.3,.74,.13Zm-8.54-1.68l1.33-6.26-.74-.16-1.33,6.26,.74,.16Zm-8.61-1.85l1.54-6.21-.73-.18-1.54,6.21,.73,.18Zm-8.52-2.27l1.76-6.15-.72-.21-1.76,6.15,.72,.21Zm-8.5-2.61l1.97-6.09-.72-.23-1.97,6.09,.72,.23Zm-8.26-2.81l2.19-6.01-.71-.26-2.19,6.01,.71,.26Zm-8.22-3.21l2.39-5.93-.7-.28-2.39,5.93,.7,.28Zm-8.12-3.43l2.6-5.85-.69-.31-2.6,5.85,.69,.31Zm-7.99-3.62l2.8-5.75-.68-.33-2.8,5.75,.68,.33Zm-7.85-4.11l3-5.65-.66-.35-3,5.65,.66,.35Zm-7.69-4.19l3.2-5.54-.65-.38-3.2,5.54,.65,.38Zm-7.6-4.52l3.39-5.43-.64-.4-3.39,5.43,.64,.4Zm-7.41-4.8l3.58-5.31-.62-.42-3.58,5.31,.62,.42Zm-7.26-5.04l3.76-5.18-.61-.44-3.76,5.18,.61,.44Zm-6.95-5.26l3.94-5.04-.59-.46-3.94,5.04,.59,.46Zm-6.87-5.48l4.11-4.9-.58-.48-4.11,4.9,.58,.48Zm-6.6-5.83l4.28-4.76-.56-.5-4.28,4.76,.56,.5Zm-6.49-5.97l4.44-4.61-.54-.52-4.44,4.61,.54,.52Zm-6.26-6.21l4.6-4.45-.52-.54-4.6,4.45,.52,.54Zm-6.02-6.49l4.75-4.28-.5-.56-4.75,4.28,.5,.56Zm-5.81-6.58l4.9-4.12-.48-.58-4.9,4.12,.48,.58Zm-5.59-6.82l5.04-3.94-.46-.59-5.04,3.94,.46,.59Zm-5.24-7.05l5.17-3.76-.44-.61-5.17,3.76,.44,.61Zm-5.1-7.18l5.3-3.58-.42-.62-5.3,3.58,.42,.62Zm-4.81-7.36l5.42-3.39-.4-.64-5.42,3.39,.4,.64Zm-4.62-7.59l5.54-3.2-.38-.65-5.54,3.2,.38,.65Zm-4.19-7.68l5.65-3.01-.35-.66-5.65,3.01,.35,.66Zm-4.08-7.82l5.75-2.81-.33-.68-5.75,2.81,.33,.68Zm-3.7-8l5.84-2.61-.31-.69-5.84,2.61,.31,.69Zm-3.48-8.17l5.93-2.4-.28-.7-5.93,2.4,.28,.7Zm-3.17-8.21l6.01-2.19-.26-.71-6.01,2.19,.26,.71Zm-2.92-8.28l6.08-1.98-.23-.72-6.08,1.98,.23,.72Zm-2.54-8.37l6.15-1.77-.21-.72-6.15,1.77,.21,.72Zm-2.31-8.53l6.21-1.55-.18-.73-6.21,1.55,.18,.73Zm-2.05-8.61l6.26-1.33-.16-.74-6.26,1.33,.16,.74Zm-1.64-8.52l6.3-1.12-.13-.74-6.3,1.12,.13,.74Zm-1.42-8.75l6.34-.9-.11-.75-6.34,.9,.11,.75Zm-1.16-8.76l6.36-.67-.08-.75-6.36,.67,.08,.75Zm-.77-8.79l6.38-.45-.05-.75-6.38,.45,.05,.75Zm-.39-8.76l6.4-.23-.03-.75-6.4,.23,.03,.75Zm-.14-8.78h6.4v-.75h-6.4v.75Zm6.44-8.62l.03-.75-6.4-.22-.03,.75,6.4,.22Zm.46-8.51l.05-.75-6.38-.44-.05,.75,6.38,.44Zm.73-8.55l.08-.75-6.36-.66-.08,.75,6.36,.66Zm1.04-8.61l.1-.75-6.34-.89-.1,.75,6.34,.89Zm1.35-8.5l.13-.74-6.3-1.11-.13,.74,6.3,1.11Zm1.63-8.39l.16-.74-6.26-1.33-.16,.74,6.26,1.33Zm1.85-8.3l.18-.73-6.21-1.54-.18,.73,6.21,1.54Zm2.21-8.32l.21-.72-6.15-1.76-.21,.72,6.15,1.76Zm2.5-8.18l.23-.72-6.09-1.97-.23,.72,6.09,1.97Zm2.77-8.2l.26-.71-6.01-2.18-.26,.71,6.01,2.18Zm3.03-8.06l.28-.7-5.93-2.39-.28,.7,5.93,2.39Zm3.32-7.92l.31-.69-5.85-2.6-.31,.69,5.85,2.6Zm3.68-7.75l.33-.68-5.75-2.8-.33,.68,5.75,2.8Zm3.81-7.6l.35-.66-5.65-3-.35,.66,5.65,3Zm4.14-7.59l.38-.65-5.54-3.19-.38,.65,5.54,3.19Zm4.5-7.38l.4-.64-5.43-3.39-.4,.64,5.43,3.39Zm4.52-7.2l.42-.62-5.31-3.57-.42,.62,5.31,3.57Zm5.01-7.02l.44-.61-5.18-3.76-.44,.61,5.18,3.76Zm5.1-6.95l.46-.59-5.05-3.94-.46,.59,5.05,3.94Zm5.35-6.64l.48-.58-4.91-4.11-.48,.58,4.91,4.11Zm5.69-6.51l.5-.56-4.76-4.28-.5,.56,4.76,4.28Zm5.79-6.31l.52-.54-4.61-4.44-.52,.54,4.61,4.44Zm6.08-6.07l.54-.52-4.45-4.6-.54,.52,4.45,4.6Zm6.32-5.86l.56-.5-4.29-4.75-.56,.5,4.29,4.75Zm6.41-5.68l.58-.48-4.12-4.9-.58,.48,4.12,4.9Zm6.72-5.36l.59-.46-3.94-5.04-.59,.46,3.94,5.04Zm6.79-5.19l.61-.44-3.77-5.17-.61,.44,3.77,5.17Zm7.02-4.99l.62-.42-3.58-5.3-.62,.42,3.58,5.3Zm7.18-4.7l.64-.4-3.4-5.42-.64,.4,3.4,5.42Zm7.36-4.34l.65-.38-3.2-5.54-.65,.38,3.2,5.54Zm7.52-4.24l.66-.35-3.01-5.65-.66,.35,3.01,5.65Zm7.64-3.99l.68-.33-2.81-5.75-.68,.33,2.81,5.75Zm7.7-3.56l.69-.31-2.61-5.84-.69,.31,2.61,5.84Zm7.92-3.37l.7-.28-2.4-5.93-.7,.28,2.4,5.93Zm8.04-3.12l.71-.26-2.19-6.01-.71,.26,2.19,6.01Zm8.03-2.84l.72-.23-1.98-6.08-.72,.23,1.98,6.08Zm8.29-2.52l.72-.21-1.77-6.15-.72,.21,1.77,6.15Zm8.3-2.24l.73-.18-1.55-6.21-.73,.18,1.55,6.21Zm8.3-1.98l.74-.16-1.34-6.26-.74,.16,1.34,6.26Zm8.41-1.63l.74-.13-1.12-6.3-.74,.13,1.12,6.3Zm8.54-1.39l.75-.11-.9-6.34-.75,.11,.9,6.34Zm8.43-.99l.75-.08-.68-6.36-.75,.08,.68,6.36Zm8.55-.76l.75-.05-.45-6.38-.75,.05,.45,6.38Zm8.68-.51l.75-.03-.23-6.4-.75,.03,.23,6.4Zm8.53-.14h.75v-6.4h-.75v6.4Zm.63,45.54l-2.76-2.76,2.76-2.76,2.76,2.76-2.76,2.76Zm-1.63-2.76l1.63,1.63,1.63-1.63-1.63-1.63-1.63,1.63Zm12.17,3.01l-2.63-3.01,3.01-2.63,2.63,3.01-3.01,2.63Zm-1.51-2.89l1.63,1.76,1.76-1.63-1.63-1.76-1.76,1.63Zm11.92,3.76l-2.51-3.14,3.14-2.51,2.51,3.14-3.14,2.51Zm-1.38-3.01l1.51,1.88,1.88-1.51-1.51-1.88-1.88,1.51Zm11.79,4.39l-2.38-3.26,3.26-2.38,2.38,3.26-3.26,2.38Zm-1.13-3.01l1.38,1.88,1.88-1.38-1.38-1.88-1.88,1.38Zm11.54,4.89l-2.13-3.26,3.26-2.13,2.13,3.26-3.26,2.13Zm-1.13-3.01l1.25,2.01,2.01-1.25-1.25-2.01-2.01,1.25Zm11.29,5.52l-2.01-3.39,3.39-2.01,2.01,3.39-3.39,2.01Zm-.88-3.14l1.13,2.01,2.01-1.13-1.13-2.01-2.01,1.13Zm10.92,6.15l-1.76-3.51,3.51-1.76,1.76,3.51-3.51,1.76Zm-.75-3.26l1.13,2.13,2.13-1.13-1.13-2.13-2.13,1.13Zm10.66,6.78l-1.63-3.64,3.64-1.63,1.63,3.64-3.64,1.63Zm-.5-3.26l1,2.13,2.13-1-1-2.13-2.13,1Zm10.16,7.28l-1.38-3.64,3.76-1.38,1.38,3.64-3.76,1.38Zm-.38-3.26l.88,2.26,2.26-.88-.88-2.26-2.26,.88Zm9.91,7.78l-1.25-3.76,3.76-1.25,1.25,3.76-3.76,1.25Zm-.25-3.26l.75,2.26,2.26-.75-.75-2.26-2.26,.75Zm9.41,8.28l-1-3.89,3.89-1,1,3.89-3.89,1Zm0-3.26l.63,2.26,2.26-.63-.63-2.26-2.26,.63Zm9.03,8.66l-.88-3.89,3.89-.88,.88,3.89-3.89,.88Zm.13-3.26l.5,2.38,2.38-.5-.5-2.38-2.38,.5Zm8.53,9.28l-.63-3.89,3.89-.63,.63,3.89-3.89,.63Zm.25-3.26l.38,2.38,2.38-.38-.38-2.38-2.38,.38Zm8.03,9.66l-.38-3.89,3.89-.38,.38,3.89-3.89,.38Zm.5-3.26l.25,2.38,2.38-.25-.25-2.38-2.38,.25Zm7.53,10.04l-.25-4.01,4.01-.25,.25,4.01-4.01,.25Zm.63-3.14l.13,2.38,2.38-.13-.13-2.38-2.38,.13Zm10.92,10.41h-4.01v-4.01h4.01v4.01Zm-3.14-.75h2.38v-2.38h-2.38v2.38Zm10.41,8.53l-4.01-.25,.25-4.01,4.01,.25-.25,4.01Zm-3.14-.88l2.38,.13,.13-2.38-2.38-.13-.13,2.38Zm9.91,9.16l-3.89-.38,.38-3.89,3.89,.38-.38,3.89Zm-3.14-1.13l2.38,.25,.25-2.38-2.38-.25-.25,2.38Zm9.41,9.66l-3.89-.63,.63-3.89,3.89,.63-.63,3.89Zm-3.01-1.38l2.38,.38,.38-2.38-2.38-.38-.38,2.38Zm8.91,10.16l-3.89-.88,.88-3.89,3.89,.88-.88,3.89Zm-2.89-1.38l2.38,.5,.5-2.38-2.38-.5-.5,2.38Zm8.41,10.54l-3.76-1,1-3.76,3.76,1-1,3.76Zm-2.89-1.51l2.26,.63,.63-2.26-2.26-.63-.63,2.26Zm7.78,11.04l-3.76-1.25,1.25-3.76,3.76,1.25-1.25,3.76Zm-2.76-1.76l2.26,.75,.75-2.26-2.26-.75-.75,2.26Zm7.15,11.42l-3.76-1.38,1.38-3.64,3.76,1.38-1.38,3.64Zm-2.63-1.88l2.26,.88,.88-2.26-2.26-.88-.88,2.26Zm6.65,11.79l-3.64-1.63,1.63-3.64,3.64,1.63-1.63,3.64Zm-2.63-2.01l2.13,1,1-2.13-2.13-1-1,2.13Zm6.02,12.04l-3.51-1.76,1.76-3.51,3.51,1.76-1.76,3.51Zm-2.51-2.13l2.13,1.13,1.13-2.13-2.13-1.13-1.13,2.13Zm5.4,12.42l-3.39-2.01,2.01-3.39,3.39,2.01-2.01,3.39Zm-2.38-2.26l2.01,1.25,1.25-2.01-2.01-1.13-1.25,1.88Zm4.64,12.67l-3.26-2.13,2.13-3.26,3.26,2.13-2.13,3.26Zm-2.26-2.38l2.01,1.25,1.25-2.01-2.01-1.25-1.25,2.01Zm4.01,12.8l-3.26-2.38,2.38-3.26,3.26,2.38-2.38,3.26Zm-2.01-2.51l1.88,1.38,1.38-1.88-1.88-1.38-1.38,1.88Zm3.26,13.17l-3.14-2.51,2.51-3.14,3.14,2.51-2.51,3.14Zm-1.88-2.63l1.88,1.51,1.51-1.88-1.88-1.51-1.51,1.88Zm2.63,13.17l-3.01-2.63,2.63-3.01,3.01,2.63-2.63,3.01Zm-1.88-2.63l1.76,1.63,1.63-1.76-1.76-1.63-1.63,1.76Zm2.01,13.3l-2.76-2.76,2.76-2.76,2.76,2.76-2.76,2.76Zm-1.76-2.76l1.63,1.63,1.63-1.63-1.63-1.63-1.63,1.63Zm1.25,13.43l-2.63-3.01,3.01-2.63,2.63,3.01-3.01,2.63Zm-1.51-2.89l1.63,1.76,1.76-1.63-1.63-1.76-1.76,1.63Zm.5,13.55l-2.51-3.14,3.14-2.51,2.51,3.14-3.14,2.51Zm-1.38-3.01l1.51,1.88,1.88-1.51-1.51-1.88-1.88,1.51Zm-.13,13.55l-2.38-3.26,3.26-2.38,2.38,3.26-3.26,2.38Zm-1.25-3.14l1.38,1.88,1.88-1.38-1.38-1.88-1.88,1.38Zm-.88,13.55l-2.13-3.39,3.39-2.13,2.13,3.39-3.39,2.13Zm-1.13-3.14l1.25,2.01,2.01-1.25-1.25-2.01-2.01,1.25Zm-1.51,13.43l-2.01-3.39,3.39-2.01,2.01,3.39-3.39,2.01Zm-.88-3.14l1.25,2.01,2.01-1.25-1.25-2.01-2.01,1.25Zm-2.38,13.3l-1.76-3.51,3.51-1.76,1.76,3.51-3.51,1.76Zm-.63-3.14l1.13,2.13,2.13-1.13-1.13-2.13-2.13,1.13Zm-3.01,13.17l-1.63-3.64,3.64-1.63,1.63,3.64-3.64,1.63Zm-.63-3.26l1,2.13,2.13-1-1-2.13-2.13,1Zm-3.64,12.92l-1.38-3.76,3.76-1.38,1.38,3.76-3.76,1.38Zm-.38-3.14l.88,2.26,2.26-.88-.88-2.26-2.26,.88Zm-4.39,12.67l-1.25-3.76,3.76-1.25,1.25,3.76-3.76,1.25Zm-.13-3.26l.75,2.26,2.26-.75-.75-2.26-2.26,.75Zm-5.02,12.55l-1-3.89,3.89-1,1,3.89-3.89,1Zm-.13-3.26l.63,2.26,2.26-.63-.63-2.26-2.26,.63Zm-5.65,12.3l-.75-3.89,3.89-.75,.75,3.89-3.89,.75Zm.13-3.26l.5,2.38,2.38-.5-.5-2.38-2.38,.5Zm-6.27,11.92l-.63-3.89,3.89-.63,.63,3.89-3.89,.63Zm.25-3.26l.38,2.38,2.38-.38-.38-2.38-2.38,.38Zm-6.9,11.67l-.38-3.89,3.89-.38,.38,3.89-3.89,.38Zm.5-3.26l.25,2.38,2.38-.25-.25-2.38-2.38,.25Zm-7.53,11.17l-.25-4.01,4.01-.25,.25,4.01-4.01,.25Zm.63-3.14l.13,2.38,2.38-.13-.13-2.38-2.38,.13Zm-4.14,10.79h-4.01v-4.01h4.01v4.01Zm-3.14-.75h2.38v-2.38h-2.38v2.38Zm-4.77,8.16l-4.01-.25,.25-4.01,4.01,.25-.25,4.01Zm-3.01-1l2.38,.13,.13-2.38-2.38-.13-.13,2.38Zm-5.14,8.03l-3.89-.38,.38-3.89,3.89,.38-.38,3.89Zm-3.14-1.13l2.38,.25,.25-2.38-2.38-.25-.25,2.38Zm-5.4,7.65l-3.89-.63,.63-3.89,3.89,.63-.63,3.89Zm-3.01-1.25l2.38,.38,.38-2.38-2.38-.38-.38,2.38Zm-6.02,7.4l-3.89-.88,.88-3.89,3.89,.88-.88,3.89Zm-2.89-1.51l2.38,.5,.5-2.38-2.38-.5-.5,2.38Zm-6.27,7.03l-3.76-1,1-3.76,3.76,1-1,3.76Zm-2.89-1.63l2.26,.63,.63-2.26-2.26-.63-.63,2.26Zm-6.65,6.78l-3.76-1.25,1.25-3.76,3.76,1.25-1.25,3.76Zm-2.76-1.76l2.26,.75,.75-2.26-2.26-.75-.75,2.26Zm-6.9,6.4l-3.76-1.38,1.38-3.76,3.76,1.38-1.38,3.76Zm-2.76-1.88l2.26,.88,.88-2.26-2.26-.88-.88,2.26Zm-7.28,6.02l-3.64-1.63,1.63-3.64,3.64,1.63-1.63,3.64Zm-2.51-2.01l2.13,1,1-2.13-2.13-1-1,2.13Zm-7.65,5.52l-3.51-1.76,1.76-3.51,3.51,1.76-1.76,3.51Zm-2.51-2.13l2.13,1.13,1.13-2.13-2.13-1.13-1.13,2.13Zm-7.9,5.14l-3.39-2.01,2.01-3.39,3.39,2.01-2.01,3.39Zm-2.38-2.26l2.01,1.25,1.13-2.01-2.01-1.25-1.13,2.01Zm-8.03,4.77l-3.26-2.13,2.13-3.26,3.26,2.13-2.13,3.26Zm-2.26-2.38l2.01,1.25,1.25-2.01-2.01-1.25-1.25,2.01Zm-8.41,4.39l-3.26-2.38,2.38-3.14,3.26,2.38-2.38,3.14Zm-2.13-2.51l1.88,1.38,1.38-1.88-1.88-1.38-1.38,1.88Zm-8.53,3.89l-3.01-2.51,2.51-3.14,3.01,2.51-2.51,3.14Zm-2.01-2.63l1.88,1.51,1.51-1.88-1.88-1.51-1.51,1.88Zm-8.78,3.39l-2.89-2.63,2.63-2.89,2.89,2.63-2.63,2.89Zm-1.88-2.76l1.76,1.63,1.63-1.76-1.76-1.63-1.63,1.76Zm-8.91,3.01l-2.76-2.76,2.76-2.76,2.76,2.76-2.76,2.76Zm-1.76-2.76l1.63,1.76,1.76-1.63-1.63-1.76-1.76,1.63Zm-9.03,2.38l-2.63-3.01,3.01-2.63,2.63,3.01-3.01,2.63Zm-1.51-2.89l1.63,1.76,1.76-1.63-1.63-1.76-1.76,1.63Zm-9.28,2.01l-2.51-3.14,3.14-2.51,2.51,3.14-3.14,2.51Zm-1.38-2.89l1.51,1.88,1.88-1.51-1.51-1.88-1.88,1.51Zm-9.28,1.51l-2.38-3.26,3.26-2.38,2.38,3.26-3.26,2.38Zm-1.25-3.01l1.38,1.88,1.88-1.38-1.38-1.88-1.88,1.38Zm-9.41,1l-2.13-3.39,3.39-2.13,2.13,3.39-3.39,2.13Zm-1-3.14l1.25,2.01,2.01-1.25-1.25-2.01-2.01,1.25Zm-9.41,.5l-2.01-3.39,3.51-2.01,2.01,3.39-3.51,2.01Zm-1-3.14l1.13,2.01,2.01-1.13-1.13-2.01-2.01,1.13Zm-9.41,.13l-1.76-3.51,3.51-1.76,1.76,3.51-3.51,1.76Zm-.75-3.26l1.13,2.13,2.13-1.13-1.13-2.13-2.13,1.13Zm-9.41-.38l-1.63-3.64,3.64-1.63,1.63,3.64-3.64,1.63Zm-.5-3.26l1,2.13,2.13-1-1-2.13-2.13,1Zm-9.41-.88l-1.38-3.76,3.76-1.38,1.38,3.76-3.76,1.38Zm-.38-3.26l.88,2.26,2.26-.88-.88-2.26-2.26,.88Zm-9.41-1.51l-1.25-3.76,3.76-1.25,1.25,3.76-3.76,1.25Zm-.13-3.26l.75,2.26,2.26-.75-.75-2.26-2.26,.75Zm-9.28-1.88l-1-3.89,3.89-1,1,3.89-3.89,1Zm-.13-3.26l.63,2.26,2.26-.63-.63-2.26-2.26,.63Zm-9.03-2.38l-.88-3.89,3.89-.75,.88,3.89-3.89,.75Zm.13-3.26l.5,2.38,2.38-.5-.5-2.38-2.38,.5Zm-9.03-2.89l-.63-3.89,3.89-.63,.63,3.89-3.89,.63Zm.25-3.26l.38,2.38,2.38-.38-.38-2.38-2.38,.38Zm-8.78-3.39l-.38-3.89,4.01-.38,.38,3.89-4.01,.38Zm.5-3.26l.25,2.38,2.38-.25-.25-2.38-2.38,.25Zm-8.66-3.76l-.25-4.01,4.01-.13,.25,4.01-4.01,.13Zm.63-3.26l.13,2.38,2.38-.13-.13-2.38-2.38,.13Zm-4.52-4.27h-4.01v-4.01h4.01v4.01Zm-3.14-.75h2.38v-2.38h-2.38v2.38Zm-4.27-6.9l-4.01-.25,.25-4.01,4.01,.25-.25,4.01Zm-3.14-.88l2.38,.13,.13-2.38-2.38-.13-.13,2.38Zm-3.89-7.15l-3.89-.38,.38-3.89,3.89,.38-.38,3.89Zm-3.01-1.13l2.38,.25,.25-2.38-2.38-.25-.25,2.38Zm-3.51-7.15l-3.89-.63,.63-3.89,3.89,.63-.63,3.89Zm-3.01-1.38l2.38,.38,.38-2.38-2.38-.38-.38,2.38Zm-3.14-7.4l-3.89-.88,.88-3.89,3.89,.88-.88,3.89Zm-2.89-1.38l2.26,.5,.5-2.38-2.26-.5-.5,2.38Zm-2.76-7.65l-3.89-1,1-3.76,3.89,1-1,3.76Zm-2.89-1.63l2.26,.63,.63-2.26-2.26-.63-.63,2.26Zm-2.26-7.65l-3.76-1.25,1.25-3.76,3.76,1.25-1.25,3.76Zm-2.76-1.76l2.26,.75,.75-2.26-2.26-.75-.75,2.26Zm-1.88-7.78l-3.76-1.38,1.51-3.76,3.76,1.38-1.51,3.76Zm-2.76-1.88l2.26,.88,.88-2.26-2.26-.88-.88,2.26Zm-1.38-7.9l-3.64-1.63,1.63-3.64,3.64,1.63-1.63,3.64Zm-2.63-2.13l2.13,1,1-2.13-2.13-1-1,2.13Zm-1.13-7.9l-3.51-1.88,1.88-3.51,3.51,1.88-1.88,3.51Zm-2.38-2.13l2.13,1.13,1.13-2.13-2.13-1.13-1.13,2.13Zm-.63-8.03l-3.39-2.01,2.01-3.39,3.39,2.01-2.01,3.39Zm-2.38-2.38l2.01,1.25,1.25-2.01-2.01-1.25-1.25,2.01Zm-.25-8.03l-3.26-2.13,2.13-3.26,3.26,2.13-2.13,3.26Zm-2.26-2.38l2.01,1.25,1.25-2.01-2.01-1.25-1.25,2.01Zm.25-8.03l-3.14-2.38,2.38-3.14,3.14,2.38-2.38,3.14Zm-2.13-2.51l1.88,1.38,1.38-1.88-1.88-1.38-1.38,1.88Zm.63-8.03l-3.14-2.51,2.51-3.14,3.14,2.51-2.51,3.14Zm-2.01-2.63l1.88,1.51,1.51-1.88-1.88-1.51-1.51,1.88Zm1.13-8.03l-2.89-2.63,2.63-2.89,2.89,2.63-2.63,2.89Zm-1.88-2.63l1.76,1.63,1.63-1.76-1.76-1.63-1.63,1.76Zm1.51-7.9l-2.76-2.76,2.76-2.76,2.76,2.76-2.76,2.76Zm-1.76-2.89l1.63,1.76,1.63-1.63-1.63-1.76-1.63,1.63Zm1.88-7.78l-2.63-3.01,3.01-2.63,2.63,3.01-3.01,2.63Zm-1.51-2.89l1.63,1.76,1.76-1.63-1.63-1.76-1.76,1.63Zm2.26-7.78l-2.51-3.14,3.14-2.51,2.51,3.14-3.14,2.51Zm-1.38-3.01l1.51,1.88,1.88-1.51-1.51-1.88-1.88,1.51Zm2.63-7.53l-2.26-3.26,3.26-2.38,2.26,3.26-3.26,2.38Zm-1.13-3.14l1.38,1.88,1.88-1.38-1.38-1.88-1.88,1.38Zm3.01-7.4l-2.13-3.39,3.39-2.13,2.13,3.39-3.39,2.13Zm-1-3.14l1.25,2.01,2.01-1.25-1.25-2.01-2.01,1.25Zm3.39-7.28l-2.01-3.51,3.51-2.01,2.01,3.51-3.51,2.01Zm-.88-3.14l1.13,2.13,2.13-1.13-1.13-2.01-2.13,1Zm3.89-7.03l-1.76-3.51,3.51-1.76,1.76,3.51-3.51,1.76Zm-.75-3.26l1,2.13,2.13-1.13-1-2.13-2.13,1.13Zm4.14-6.78l-1.63-3.64,3.64-1.63,1.63,3.64-3.64,1.63Zm-.5-3.26l1,2.13,2.13-1-1-2.13-2.13,1Zm4.52-6.65l-1.38-3.76,3.76-1.38,1.38,3.76-3.76,1.38Zm-.38-3.26l.88,2.26,2.26-.88-.88-2.26-2.26,.88Zm4.89-6.4l-1.25-3.76,3.76-1.25,1.25,3.76-3.76,1.25Zm-.25-3.26l.75,2.26,2.26-.75-.75-2.26-2.26,.75Zm5.27-6.15l-1-3.89,3.89-1,1,3.89-3.89,1Zm0-3.26l.63,2.26,2.26-.63-.63-2.26-2.26,.63Zm5.52-5.9l-.75-3.89,3.89-.75,.75,3.89-3.89,.75Zm.13-3.26l.5,2.38,2.38-.5-.5-2.38-2.38,.5Zm5.77-5.52l-.63-3.89,3.89-.63,.63,3.89-3.89,.63Zm.38-3.26l.38,2.38,2.38-.38-.38-2.38-2.38,.38Zm6.02-5.27l-.38-3.89,4.01-.38,.38,3.89-4.01,.38Zm.5-3.26l.25,2.38,2.38-.25-.25-2.38-2.38,.25Zm6.4-4.89l-.25-4.01,4.01-.13,.25,4.01-4.01,.13Zm.63-3.14l.13,2.38,2.38-.13-.13-2.38-2.38,.13Zm10.54-4.64h-4.01v-4.01h4.01v4.01Zm-3.14-.75h2.38v-2.38h-2.38v2.38Zm10.79-6.4l-4.01-.25,.25-4.01,4.01,.25-.25,4.01Zm-3.01-1l2.38,.13,.13-2.38-2.38-.13-.13,2.38Zm11.04-5.77l-3.89-.5,.38-3.89,3.89,.5-.38,3.89Zm-3.01-1.13l2.38,.25,.25-2.38-2.38-.25-.25,2.38Zm11.42-5.14l-3.89-.63,.63-3.89,3.89,.63-.63,3.89Zm-3.01-1.38l2.38,.38,.38-2.38-2.38-.38-.38,2.38Zm11.67-4.52l-3.89-.88,.88-3.89,3.89,.88-.88,3.89Zm-2.89-1.51l2.26,.5,.5-2.38-2.26-.5-.5,2.38Zm11.92-4.01l-3.89-1,1-3.89,3.89,1-1,3.89Zm-2.89-1.51l2.26,.63,.63-2.26-2.26-.63-.63,2.26Zm12.17-3.39l-3.76-1.25,1.25-3.76,3.76,1.25-1.25,3.76Zm-2.76-1.76l2.26,.75,.75-2.26-2.26-.75-.75,2.26Zm12.3-2.76l-3.64-1.38,1.38-3.64,3.64,1.38-1.38,3.64Zm-2.76-1.88l2.26,.88,.88-2.26-2.26-.88-.88,2.26Zm12.42-2.01l-3.64-1.63,1.63-3.64,3.64,1.63-1.63,3.64Zm-2.51-2.01l2.13,1,1-2.13-2.13-1-1,2.13Zm12.42-1.51l-3.51-1.76,1.76-3.51,3.51,1.76-1.76,3.51Zm-2.38-2.13l2.13,1.13,1.13-2.13-2.13-1.13-1.13,2.13Zm12.55-.75l-3.51-2.01,2.01-3.39,3.39,2.01-1.88,3.39Zm-2.38-2.26l2.01,1.25,1.25-2.01-2.01-1.25-1.25,2.01Zm12.55-.13l-3.26-2.13,2.13-3.26,3.26,2.13-2.13,3.26Zm-2.13-2.38l2.01,1.25,1.25-2.01-2.01-1.25-1.25,2.01Zm12.55,.5l-3.26-2.38,2.38-3.26,3.26,2.38-2.38,3.26Zm-2.13-2.51l1.88,1.38,1.38-1.88-1.88-1.38-1.38,1.88Zm12.55,1.25l-3.01-2.51,2.51-3.01,3.01,2.51-2.51,3.01Zm-2.01-2.63l1.88,1.51,1.51-1.88-1.88-1.51-1.51,1.88Zm12.42,1.88l-2.89-2.63,2.63-2.89,2.89,2.63-2.63,2.89Zm-1.76-2.76l1.76,1.63,1.63-1.76-1.76-1.63-1.63,1.76Zm9.28,19.57c0,.9,.73,1.63,1.63,1.63s1.63-.73,1.63-1.63-.73-1.63-1.63-1.63-1.63,.73-1.63,1.63Zm6.4,.13c0,.9,.73,1.63,1.63,1.63s1.63-.73,1.63-1.63-.73-1.63-1.63-1.63-1.63,.73-1.63,1.63Zm6.4,.25c0,.9,.73,1.63,1.63,1.63s1.63-.73,1.63-1.63-.73-1.63-1.63-1.63-1.63,.73-1.63,1.63Zm6.4,.63c0,.9,.73,1.63,1.63,1.63s1.63-.73,1.63-1.63-.73-1.63-1.63-1.63-1.63,.73-1.63,1.63Zm6.4,.75c0,.9,.73,1.63,1.63,1.63s1.63-.73,1.63-1.63-.73-1.63-1.63-1.63-1.63,.73-1.63,1.63Zm6.27,1c0,.9,.73,1.63,1.63,1.63s1.63-.73,1.63-1.63-.73-1.63-1.63-1.63-1.63,.73-1.63,1.63Zm6.27,1.25c0,.9,.73,1.63,1.63,1.63s1.63-.73,1.63-1.63-.73-1.63-1.63-1.63-1.63,.73-1.63,1.63Zm6.27,1.38c0,.9,.73,1.63,1.63,1.63s1.63-.73,1.63-1.63-.73-1.63-1.63-1.63-1.63,.73-1.63,1.63Zm6.15,1.76c0,.9,.73,1.63,1.63,1.63s1.63-.73,1.63-1.63-.73-1.63-1.63-1.63-1.63,.73-1.63,1.63Zm7.57,3.41c.89,.14,1.73-.46,1.87-1.35s-.46-1.73-1.35-1.87-1.73,.46-1.87,1.35,.46,1.73,1.35,1.87Zm4.61,.48c0,.9,.73,1.63,1.63,1.63s1.63-.73,1.63-1.63-.73-1.63-1.63-1.63-1.63,.73-1.63,1.63Zm6.02,2.26c0,.9,.73,1.63,1.63,1.63s1.63-.73,1.63-1.63-.73-1.63-1.63-1.63-1.63,.73-1.63,1.63Zm5.9,2.51c0,.9,.73,1.63,1.63,1.63s1.63-.73,1.63-1.63-.73-1.63-1.63-1.63-1.63,.73-1.63,1.63Zm5.77,2.76c0,.9,.73,1.63,1.63,1.63s1.63-.73,1.63-1.63-.73-1.63-1.63-1.63-1.63,.73-1.63,1.63Zm5.65,2.89c0,.9,.73,1.63,1.63,1.63s1.63-.73,1.63-1.63-.73-1.63-1.63-1.63-1.63,.73-1.63,1.63Zm5.65,3.14c0,.9,.73,1.63,1.63,1.63s1.63-.73,1.63-1.63-.73-1.63-1.63-1.63-1.63,.73-1.63,1.63Zm5.52,3.26c0,.9,.73,1.63,1.63,1.63s1.63-.73,1.63-1.63-.73-1.63-1.63-1.63-1.63,.73-1.63,1.63Zm5.27,3.51c0,.9,.73,1.63,1.63,1.63s1.63-.73,1.63-1.63-.73-1.63-1.63-1.63-1.63,.73-1.63,1.63Zm5.27,3.64c0,.9,.73,1.63,1.63,1.63s1.63-.73,1.63-1.63-.73-1.63-1.63-1.63-1.63,.73-1.63,1.63Zm5.14,3.89c0,.9,.73,1.63,1.63,1.63s1.63-.73,1.63-1.63-.73-1.63-1.63-1.63-1.63,.73-1.63,1.63Zm5.02,4.01c0,.9,.73,1.63,1.63,1.63s1.63-.73,1.63-1.63-.73-1.63-1.63-1.63-1.63,.73-1.63,1.63Zm4.77,4.14c0,.9,.73,1.63,1.63,1.63s1.63-.73,1.63-1.63-.73-1.63-1.63-1.63-1.63,.73-1.63,1.63Zm4.64,4.39c0,.9,.73,1.63,1.63,1.63s1.63-.73,1.63-1.63-.73-1.63-1.63-1.63-1.63,.73-1.63,1.63Zm4.52,4.52c0,.9,.73,1.63,1.63,1.63s1.63-.73,1.63-1.63-.73-1.63-1.63-1.63-1.63,.73-1.63,1.63Zm4.39,4.77c0,.9,.73,1.63,1.63,1.63s1.63-.73,1.63-1.63-.73-1.63-1.63-1.63-1.63,.73-1.63,1.63Zm4.27,4.77c0,.9,.73,1.63,1.63,1.63s1.63-.73,1.63-1.63-.73-1.63-1.63-1.63-1.63,.73-1.63,1.63Zm4.01,5.02c0,.9,.73,1.63,1.63,1.63s1.63-.73,1.63-1.63-.73-1.63-1.63-1.63-1.63,.73-1.63,1.63Zm3.89,5.14c0,.9,.73,1.63,1.63,1.63s1.63-.73,1.63-1.63-.73-1.63-1.63-1.63-1.63,.73-1.63,1.63Zm3.64,5.14c0,.9,.73,1.63,1.63,1.63s1.63-.73,1.63-1.63-.73-1.63-1.63-1.63-1.63,.73-1.63,1.63Zm3.51,5.4c0,.9,.73,1.63,1.63,1.63s1.63-.73,1.63-1.63-.73-1.63-1.63-1.63-1.63,.73-1.63,1.63Zm3.26,5.52c0,.9,.73,1.63,1.63,1.63s1.63-.73,1.63-1.63-.73-1.63-1.63-1.63-1.63,.73-1.63,1.63Zm3.01,5.65c0,.9,.73,1.63,1.63,1.63s1.63-.73,1.63-1.63-.73-1.63-1.63-1.63-1.63,.73-1.63,1.63Zm3.01,5.65c0,.9,.73,1.63,1.63,1.63s1.63-.73,1.63-1.63-.73-1.63-1.63-1.63-1.63,.73-1.63,1.63Zm2.63,5.77c0,.9,.73,1.63,1.63,1.63s1.63-.73,1.63-1.63-.73-1.63-1.63-1.63-1.63,.73-1.63,1.63Zm2.51,5.9c0,.9,.73,1.63,1.63,1.63s1.63-.73,1.63-1.63-.73-1.63-1.63-1.63-1.63,.73-1.63,1.63Zm2.26,6.02c0,.9,.73,1.63,1.63,1.63s1.63-.73,1.63-1.63-.73-1.63-1.63-1.63-1.63,.73-1.63,1.63Zm2.13,6.02c0,.9,.73,1.63,1.63,1.63s1.63-.73,1.63-1.63-.73-1.63-1.63-1.63-1.63,.73-1.63,1.63Zm1.88,6.15c0,.9,.73,1.63,1.63,1.63s1.63-.73,1.63-1.63-.73-1.63-1.63-1.63-1.63,.73-1.63,1.63Zm1.63,6.15c0,.9,.73,1.63,1.63,1.63s1.63-.73,1.63-1.63-.73-1.63-1.63-1.63-1.63,.73-1.63,1.63Zm1.51,6.27c0,.9,.73,1.63,1.63,1.63s1.63-.73,1.63-1.63-.73-1.63-1.63-1.63-1.63,.73-1.63,1.63Zm1.13,6.27c0,.9,.73,1.63,1.63,1.63s1.63-.73,1.63-1.63-.73-1.63-1.63-1.63-1.63,.73-1.63,1.63Zm1,6.27c0,.9,.73,1.63,1.63,1.63s1.63-.73,1.63-1.63-.73-1.63-1.63-1.63-1.63,.73-1.63,1.63Zm.75,6.4c0,.9,.73,1.63,1.63,1.63s1.63-.73,1.63-1.63-.73-1.63-1.63-1.63-1.63,.73-1.63,1.63Zm.63,6.4c0,.9,.73,1.63,1.63,1.63s1.63-.73,1.63-1.63-.73-1.63-1.63-1.63-1.63,.73-1.63,1.63Zm.25,6.4c0,.9,.73,1.63,1.63,1.63s1.63-.73,1.63-1.63-.73-1.63-1.63-1.63-1.63,.73-1.63,1.63Zm.13,6.4c0,.9,.73,1.63,1.63,1.63s1.63-.73,1.63-1.63-.73-1.63-1.63-1.63-1.63,.73-1.63,1.63Zm-.13,6.4c0,.9,.73,1.63,1.63,1.63s1.63-.73,1.63-1.63-.73-1.63-1.63-1.63-1.63,.73-1.63,1.63Zm-.25,6.4c0,.9,.73,1.63,1.63,1.63s1.63-.73,1.63-1.63-.73-1.63-1.63-1.63-1.63,.73-1.63,1.63Zm-.63,6.27c0,.9,.73,1.63,1.63,1.63s1.63-.73,1.63-1.63-.73-1.63-1.63-1.63-1.63,.73-1.63,1.63Zm-.75,6.4c0,.9,.73,1.63,1.63,1.63s1.63-.73,1.63-1.63-.73-1.63-1.63-1.63-1.63,.73-1.63,1.63Zm-1,6.4c0,.9,.73,1.63,1.63,1.63s1.63-.73,1.63-1.63-.73-1.63-1.63-1.63-1.63,.73-1.63,1.63Zm-1.25,6.27c0,.9,.73,1.63,1.63,1.63s1.63-.73,1.63-1.63-.73-1.63-1.63-1.63-1.63,.73-1.63,1.63Zm-1.38,6.15c0,.9,.73,1.63,1.63,1.63s1.63-.73,1.63-1.63-.73-1.63-1.63-1.63-1.63,.73-1.63,1.63Zm-1.63,6.27c0,.9,.73,1.63,1.63,1.63s1.63-.73,1.63-1.63-.73-1.63-1.63-1.63-1.63,.73-1.63,1.63Zm-1.88,6.02c0,.9,.73,1.63,1.63,1.63s1.63-.73,1.63-1.63-.73-1.63-1.63-1.63-1.63,.73-1.63,1.63Zm-2.13,6.15c0,.9,.73,1.63,1.63,1.63s1.63-.73,1.63-1.63-.73-1.63-1.63-1.63-1.63,.73-1.63,1.63Zm-2.26,5.9c0,.9,.73,1.63,1.63,1.63s1.63-.73,1.63-1.63-.73-1.63-1.63-1.63-1.63,.73-1.63,1.63Zm-2.51,5.9c0,.9,.73,1.63,1.63,1.63s1.63-.73,1.63-1.63-.73-1.63-1.63-1.63-1.63,.73-1.63,1.63Zm-2.76,5.77c0,.9,.73,1.63,1.63,1.63s1.63-.73,1.63-1.63-.73-1.63-1.63-1.63-1.63,.73-1.63,1.63Zm-2.89,5.77c0,.9,.73,1.63,1.63,1.63s1.63-.73,1.63-1.63-.73-1.63-1.63-1.63-1.63,.73-1.63,1.63Zm-3.14,5.52c0,.9,.73,1.63,1.63,1.63s1.63-.73,1.63-1.63-.73-1.63-1.63-1.63-1.63,.73-1.63,1.63Zm-3.26,5.52c0,.9,.73,1.63,1.63,1.63s1.63-.73,1.63-1.63-.73-1.63-1.63-1.63-1.63,.73-1.63,1.63Zm-3.51,5.4c0,.9,.73,1.63,1.63,1.63s1.63-.73,1.63-1.63-.73-1.63-1.63-1.63-1.63,.73-1.63,1.63Zm-3.64,5.27c0,.9,.73,1.63,1.63,1.63s1.63-.73,1.63-1.63-.73-1.63-1.63-1.63-1.63,.73-1.63,1.63Zm-3.89,5.02c0,.9,.73,1.63,1.63,1.63s1.63-.73,1.63-1.63-.73-1.63-1.63-1.63-1.63,.73-1.63,1.63Zm-4.01,5.02c0,.9,.73,1.63,1.63,1.63s1.63-.73,1.63-1.63-.73-1.63-1.63-1.63-1.63,.73-1.63,1.63Zm-4.14,4.89c0,.9,.73,1.63,1.63,1.63s1.63-.73,1.63-1.63-.73-1.63-1.63-1.63-1.63,.73-1.63,1.63Zm-4.39,4.64c0,.9,.73,1.63,1.63,1.63s1.63-.73,1.63-1.63-.73-1.63-1.63-1.63-1.63,.73-1.63,1.63Zm-4.52,4.52c0,.9,.73,1.63,1.63,1.63s1.63-.73,1.63-1.63-.73-1.63-1.63-1.63-1.63,.73-1.63,1.63Zm-4.77,4.39c0,.9,.73,1.63,1.63,1.63s1.63-.73,1.63-1.63-.73-1.63-1.63-1.63-1.63,.73-1.63,1.63Zm-4.77,4.14c0,.9,.73,1.63,1.63,1.63s1.63-.73,1.63-1.63-.73-1.63-1.63-1.63-1.63,.73-1.63,1.63Zm-5.02,4.01c0,.9,.73,1.63,1.63,1.63s1.63-.73,1.63-1.63-.73-1.63-1.63-1.63-1.63,.73-1.63,1.63Zm-5.14,3.89c0,.9,.73,1.63,1.63,1.63s1.63-.73,1.63-1.63-.73-1.63-1.63-1.63-1.63,.73-1.63,1.63Zm-5.14,3.64c0,.9,.73,1.63,1.63,1.63s1.63-.73,1.63-1.63-.73-1.63-1.63-1.63-1.63,.73-1.63,1.63Zm-5.4,3.51c0,.9,.73,1.63,1.63,1.63s1.63-.73,1.63-1.63-.73-1.63-1.63-1.63-1.63,.73-1.63,1.63Zm-5.52,3.26c0,.9,.73,1.63,1.63,1.63s1.63-.73,1.63-1.63-.73-1.63-1.63-1.63-1.63,.73-1.63,1.63Zm-5.65,3.14c0,.9,.73,1.63,1.63,1.63s1.63-.73,1.63-1.63-.73-1.63-1.63-1.63-1.63,.73-1.63,1.63Zm-5.65,2.89c0,.9,.73,1.63,1.63,1.63s1.63-.73,1.63-1.63-.73-1.63-1.63-1.63-1.63,.73-1.63,1.63Zm-5.77,2.63c0,.9,.73,1.63,1.63,1.63s1.63-.73,1.63-1.63-.73-1.63-1.63-1.63-1.63,.73-1.63,1.63Zm-5.9,2.51c0,.9,.73,1.63,1.63,1.63s1.63-.73,1.63-1.63-.73-1.63-1.63-1.63-1.63,.73-1.63,1.63Zm-6.02,2.38c0,.9,.73,1.63,1.63,1.63s1.63-.73,1.63-1.63-.73-1.63-1.63-1.63-1.63,.73-1.63,1.63Zm-6.02,2.01c0,.9,.73,1.63,1.63,1.63s1.63-.73,1.63-1.63-.73-1.63-1.63-1.63-1.63,.73-1.63,1.63Zm-6.15,1.88c0,.9,.73,1.63,1.63,1.63s1.63-.73,1.63-1.63-.73-1.63-1.63-1.63-1.63,.73-1.63,1.63Zm-6.15,1.63c0,.9,.73,1.63,1.63,1.63s1.63-.73,1.63-1.63-.73-1.63-1.63-1.63-1.63,.73-1.63,1.63Zm-6.27,1.51c0,.9,.73,1.63,1.63,1.63s1.63-.73,1.63-1.63-.73-1.63-1.63-1.63-1.63,.73-1.63,1.63Zm-6.27,1.13c0,.9,.73,1.63,1.63,1.63s1.63-.73,1.63-1.63-.73-1.63-1.63-1.63-1.63,.73-1.63,1.63Zm-6.27,1c0,.9,.73,1.63,1.63,1.63s1.63-.73,1.63-1.63-.73-1.63-1.63-1.63-1.63,.73-1.63,1.63Zm-6.4,.88c0,.9,.73,1.63,1.63,1.63s1.63-.73,1.63-1.63-.73-1.63-1.63-1.63-1.63,.73-1.63,1.63Zm-6.4,.5c0,.9,.73,1.63,1.63,1.63s1.63-.73,1.63-1.63-.73-1.63-1.63-1.63-1.63,.73-1.63,1.63Zm-6.4,.38c0,.9,.73,1.63,1.63,1.63s1.63-.73,1.63-1.63-.73-1.63-1.63-1.63-1.63,.73-1.63,1.63Zm-6.4,0c0,.9,.73,1.63,1.63,1.63s1.63-.73,1.63-1.63-.73-1.63-1.63-1.63-1.63,.73-1.63,1.63Zm-6.4,0c0,.9,.73,1.63,1.63,1.63s1.63-.73,1.63-1.63-.73-1.63-1.63-1.63-1.63,.73-1.63,1.63Zm-6.4-.38c0,.9,.73,1.63,1.63,1.63s1.63-.73,1.63-1.63-.73-1.63-1.63-1.63-1.63,.73-1.63,1.63Zm-6.4-.63c0,.9,.73,1.63,1.63,1.63s1.63-.73,1.63-1.63-.73-1.63-1.63-1.63-1.63,.73-1.63,1.63Zm-6.27-.75c0,.9,.73,1.63,1.63,1.63s1.63-.73,1.63-1.63-.73-1.63-1.63-1.63-1.63,.73-1.63,1.63Zm-6.4-1c0,.9,.73,1.63,1.63,1.63s1.63-.73,1.63-1.63-.73-1.63-1.63-1.63-1.63,.73-1.63,1.63Zm-6.27-1.25c0,.9,.73,1.63,1.63,1.63s1.63-.73,1.63-1.63-.73-1.63-1.63-1.63-1.63,.73-1.63,1.63Zm-6.15-1.38c0,.9,.73,1.63,1.63,1.63s1.63-.73,1.63-1.63-.73-1.63-1.63-1.63-1.63,.73-1.63,1.63Zm-6.27-1.63c0,.9,.73,1.63,1.63,1.63s1.63-.73,1.63-1.63-.73-1.63-1.63-1.63-1.63,.73-1.63,1.63Zm-6.02-1.88c0,.9,.73,1.63,1.63,1.63s1.63-.73,1.63-1.63-.73-1.63-1.63-1.63-1.63,.73-1.63,1.63Zm-6.15-2.13c0,.9,.73,1.63,1.63,1.63s1.63-.73,1.63-1.63-.73-1.63-1.63-1.63-1.63,.73-1.63,1.63Zm-5.9-2.26c0,.9,.73,1.63,1.63,1.63s1.63-.73,1.63-1.63-.73-1.63-1.63-1.63-1.63,.73-1.63,1.63Zm-5.9-2.51c0,.9,.73,1.63,1.63,1.63s1.63-.73,1.63-1.63-.73-1.63-1.63-1.63-1.63,.73-1.63,1.63Zm-5.77-2.76c0,.9,.73,1.63,1.63,1.63s1.63-.73,1.63-1.63-.73-1.63-1.63-1.63-1.63,.73-1.63,1.63Zm-5.77-2.89c0,.9,.73,1.63,1.63,1.63s1.63-.73,1.63-1.63-.73-1.63-1.63-1.63-1.63,.73-1.63,1.63Zm-5.52-3.14c0,.9,.73,1.63,1.63,1.63s1.63-.73,1.63-1.63-.73-1.63-1.63-1.63-1.63,.73-1.63,1.63Zm-5.52-3.26c0,.9,.73,1.63,1.63,1.63s1.63-.73,1.63-1.63-.73-1.63-1.63-1.63-1.63,.73-1.63,1.63Zm-3.86-1.9c.9,.06,1.68-.61,1.74-1.51s-.61-1.68-1.51-1.74-1.68,.61-1.74,1.51,.61,1.68,1.51,1.74Zm-6.8-5.25c0,.9,.73,1.63,1.63,1.63s1.63-.73,1.63-1.63-.73-1.63-1.63-1.63-1.63,.73-1.63,1.63Zm-5.02-3.89c0,.9,.73,1.63,1.63,1.63s1.63-.73,1.63-1.63-.73-1.63-1.63-1.63-1.63,.73-1.63,1.63Zm-5.02-4.01c0,.9,.73,1.63,1.63,1.63s1.63-.73,1.63-1.63-.73-1.63-1.63-1.63-1.63,.73-1.63,1.63Zm-4.89-4.27c0,.9,.73,1.63,1.63,1.63s1.63-.73,1.63-1.63-.73-1.63-1.63-1.63-1.63,.73-1.63,1.63Zm-4.64-4.39c0,.9,.73,1.63,1.63,1.63s1.63-.73,1.63-1.63-.73-1.63-1.63-1.63-1.63,.73-1.63,1.63Zm-4.52-4.52c0,.9,.73,1.63,1.63,1.63s1.63-.73,1.63-1.63-.73-1.63-1.63-1.63-1.63,.73-1.63,1.63Zm-4.39-4.64c0,.9,.73,1.63,1.63,1.63s1.63-.73,1.63-1.63-.73-1.63-1.63-1.63-1.63,.73-1.63,1.63Zm-4.14-4.77c0,.9,.73,1.63,1.63,1.63s1.63-.73,1.63-1.63-.73-1.63-1.63-1.63-1.63,.73-1.63,1.63Zm-4.01-5.02c0,.9,.73,1.63,1.63,1.63s1.63-.73,1.63-1.63-.73-1.63-1.63-1.63-1.63,.73-1.63,1.63Zm-3.89-5.14c0,.9,.73,1.63,1.63,1.63s1.63-.73,1.63-1.63-.73-1.63-1.63-1.63-1.63,.73-1.63,1.63Zm-3.64-5.27c0,.9,.73,1.63,1.63,1.63s1.63-.73,1.63-1.63-.73-1.63-1.63-1.63-1.63,.73-1.63,1.63Zm-3.51-5.4c0,.9,.73,1.63,1.63,1.63s1.63-.73,1.63-1.63-.73-1.63-1.63-1.63-1.63,.73-1.63,1.63Zm-3.26-5.4c0,.9,.73,1.63,1.63,1.63s1.63-.73,1.63-1.63-.73-1.63-1.63-1.63-1.63,.73-1.63,1.63Zm-3.14-5.65c0,.9,.73,1.63,1.63,1.63s1.63-.73,1.63-1.63-.73-1.63-1.63-1.63-1.63,.73-1.63,1.63Zm-2.89-5.65c0,.9,.73,1.63,1.63,1.63s1.63-.73,1.63-1.63-.73-1.63-1.63-1.63-1.63,.73-1.63,1.63Zm-2.63-5.9c0,.9,.73,1.63,1.63,1.63s1.63-.73,1.63-1.63-.73-1.63-1.63-1.63-1.63,.73-1.63,1.63Zm-2.51-5.9c0,.9,.73,1.63,1.63,1.63s1.63-.73,1.63-1.63-.73-1.63-1.63-1.63-1.63,.73-1.63,1.63Zm-2.26-5.9c0,.9,.73,1.63,1.63,1.63s1.63-.73,1.63-1.63-.73-1.63-1.63-1.63-1.63,.73-1.63,1.63Zm-2.13-6.15c0,.9,.73,1.63,1.63,1.63s1.63-.73,1.63-1.63-.73-1.63-1.63-1.63-1.63,.73-1.63,1.63Zm-1.88-6.02c0,.9,.73,1.63,1.63,1.63s1.63-.73,1.63-1.63-.73-1.63-1.63-1.63-1.63,.73-1.63,1.63Zm-1.63-6.27c0,.9,.73,1.63,1.63,1.63s1.63-.73,1.63-1.63-.73-1.63-1.63-1.63-1.63,.73-1.63,1.63Zm-1.38-6.15c0,.9,.73,1.63,1.63,1.63s1.63-.73,1.63-1.63-.73-1.63-1.63-1.63-1.63,.73-1.63,1.63Zm-1.25-6.27c0,.9,.73,1.63,1.63,1.63s1.63-.73,1.63-1.63-.73-1.63-1.63-1.63-1.63,.73-1.63,1.63Zm-1-6.3c.05,.9,.82,1.59,1.72,1.54s1.59-.82,1.54-1.72-.82-1.59-1.72-1.54-1.59,.82-1.54,1.72Zm-.76-6.4c.05,.9,.82,1.59,1.72,1.54s1.59-.82,1.54-1.72-.82-1.59-1.72-1.54-1.59,.82-1.54,1.72Zm-.63-6.37c0,.9,.73,1.63,1.63,1.63s1.63-.73,1.63-1.63-.73-1.63-1.63-1.63-1.63,.73-1.63,1.63Zm-.24-6.3c.05,.9,.82,1.59,1.72,1.54s1.59-.82,1.54-1.72-.82-1.59-1.72-1.54-1.59,.82-1.54,1.72Zm-.13-6.4c.05,.9,.82,1.59,1.72,1.54s1.59-.82,1.54-1.72-.82-1.59-1.72-1.54-1.59,.82-1.54,1.72Zm.12-6.5c0,.9,.73,1.63,1.63,1.63s1.63-.73,1.63-1.63-.73-1.63-1.63-1.63-1.63,.73-1.63,1.63Zm.38-6.3c.05,.9,.82,1.59,1.72,1.54s1.59-.82,1.54-1.72-.82-1.59-1.72-1.54-1.59,.82-1.54,1.72Zm.5-6.4c.05,.9,.82,1.59,1.72,1.54s1.59-.82,1.54-1.72-.82-1.59-1.72-1.54-1.59,.82-1.54,1.72Zm.75-6.4c.05,.9,.82,1.59,1.72,1.54s1.59-.82,1.54-1.72-.82-1.59-1.72-1.54-1.59,.82-1.54,1.72Zm1-6.37c0,.9,.73,1.63,1.63,1.63s1.63-.73,1.63-1.63-.73-1.63-1.63-1.63-1.63,.73-1.63,1.63Zm1.25-6.27c0,.9,.73,1.63,1.63,1.63s1.63-.73,1.63-1.63-.73-1.63-1.63-1.63-1.63,.73-1.63,1.63Zm1.51-6.27c0,.9,.73,1.63,1.63,1.63s1.63-.73,1.63-1.63-.73-1.63-1.63-1.63-1.63,.73-1.63,1.63Zm1.63-6.15c0,.9,.73,1.63,1.63,1.63s1.63-.73,1.63-1.63-.73-1.63-1.63-1.63-1.63,.73-1.63,1.63Zm1.88-6.15c0,.9,.73,1.63,1.63,1.63s1.63-.73,1.63-1.63-.73-1.63-1.63-1.63-1.63,.73-1.63,1.63Zm2.13-6.02c0,.9,.73,1.63,1.63,1.63s1.63-.73,1.63-1.63-.73-1.63-1.63-1.63-1.63,.73-1.63,1.63Zm2.26-6.02c0,.9,.73,1.63,1.63,1.63s1.63-.73,1.63-1.63-.73-1.63-1.63-1.63-1.63,.73-1.63,1.63Zm2.51-5.9c0,.9,.73,1.63,1.63,1.63s1.63-.73,1.63-1.63-.73-1.63-1.63-1.63-1.63,.73-1.63,1.63Zm2.63-5.77c0,.9,.73,1.63,1.63,1.63s1.63-.73,1.63-1.63-.73-1.63-1.63-1.63-1.63,.73-1.63,1.63Zm3.01-5.65c0,.9,.73,1.63,1.63,1.63s1.63-.73,1.63-1.63-.73-1.63-1.63-1.63-1.63,.73-1.63,1.63Zm3.14-5.65c0,.9,.73,1.63,1.63,1.63s1.63-.73,1.63-1.63-.73-1.63-1.63-1.63-1.63,.73-1.63,1.63Zm3.26-5.52c0,.9,.73,1.63,1.63,1.63s1.63-.73,1.63-1.63-.73-1.63-1.63-1.63-1.63,.73-1.63,1.63Zm3.51-5.27c0,.9,.73,1.63,1.63,1.63s1.63-.73,1.63-1.63-.73-1.63-1.63-1.63-1.63,.73-1.63,1.63Zm3.64-5.27c0,.9,.73,1.63,1.63,1.63s1.63-.73,1.63-1.63-.73-1.63-1.63-1.63-1.63,.73-1.63,1.63Zm3.89-5.14c0,.9,.73,1.63,1.63,1.63s1.63-.73,1.63-1.63-.73-1.63-1.63-1.63-1.63,.73-1.63,1.63Zm4.01-4.89c0,.9,.73,1.63,1.63,1.63s1.63-.73,1.63-1.63-.73-1.63-1.63-1.63-1.63,.73-1.63,1.63Zm4.14-4.89c0,.9,.73,1.63,1.63,1.63s1.63-.73,1.63-1.63-.73-1.63-1.63-1.63-1.63,.73-1.63,1.63Zm4.39-4.64c0,.9,.73,1.63,1.63,1.63s1.63-.73,1.63-1.63-.73-1.63-1.63-1.63-1.63,.73-1.63,1.63Zm4.52-4.52c0,.9,.73,1.63,1.63,1.63s1.63-.73,1.63-1.63-.73-1.63-1.63-1.63-1.63,.73-1.63,1.63Zm4.77-4.39c0,.9,.73,1.63,1.63,1.63s1.63-.73,1.63-1.63-.73-1.63-1.63-1.63-1.63,.73-1.63,1.63Zm4.77-4.14c0,.9,.73,1.63,1.63,1.63s1.63-.73,1.63-1.63-.73-1.63-1.63-1.63-1.63,.73-1.63,1.63Zm5.02-4.01c0,.9,.73,1.63,1.63,1.63s1.63-.73,1.63-1.63-.73-1.63-1.63-1.63-1.63,.73-1.63,1.63Zm5.14-3.89c0,.9,.73,1.63,1.63,1.63s1.63-.73,1.63-1.63-.73-1.63-1.63-1.63-1.63,.73-1.63,1.63Zm5.14-3.64c0,.9,.73,1.63,1.63,1.63s1.63-.73,1.63-1.63-.73-1.63-1.63-1.63-1.63,.73-1.63,1.63Zm5.4-3.51c0,.9,.73,1.63,1.63,1.63s1.63-.73,1.63-1.63-.73-1.63-1.63-1.63-1.63,.73-1.63,1.63Zm5.52-3.26c0,.9,.73,1.63,1.63,1.63s1.63-.73,1.63-1.63-.73-1.63-1.63-1.63-1.63,.73-1.63,1.63Zm5.65-3.14c0,.9,.73,1.63,1.63,1.63s1.63-.73,1.63-1.63-.73-1.63-1.63-1.63-1.63,.73-1.63,1.63Zm5.65-2.89c0,.9,.73,1.63,1.63,1.63s1.63-.73,1.63-1.63-.73-1.63-1.63-1.63-1.63,.73-1.63,1.63Zm5.9-2.63c0,.9,.73,1.63,1.63,1.63s1.63-.73,1.63-1.63-.73-1.63-1.63-1.63-1.63,.73-1.63,1.63Zm5.9-2.51c0,.9,.73,1.63,1.63,1.63s1.63-.73,1.63-1.63-.73-1.63-1.63-1.63-1.63,.73-1.63,1.63Zm5.9-2.38c0,.9,.73,1.63,1.63,1.63s1.63-.73,1.63-1.63-.73-1.63-1.63-1.63-1.63,.73-1.63,1.63Zm6.02-2.01c0,.9,.73,1.63,1.63,1.63s1.63-.73,1.63-1.63-.73-1.63-1.63-1.63-1.63,.73-1.63,1.63Zm6.15-1.88c0,.9,.73,1.63,1.63,1.63s1.63-.73,1.63-1.63-.73-1.63-1.63-1.63-1.63,.73-1.63,1.63Zm6.27-1.63c0,.9,.73,1.63,1.63,1.63s1.63-.73,1.63-1.63-.73-1.63-1.63-1.63-1.63,.73-1.63,1.63Zm6.15-1.38c0,.9,.73,1.63,1.63,1.63s1.63-.73,1.63-1.63-.73-1.63-1.63-1.63-1.63,.73-1.63,1.63Zm6.27-1.25c0,.9,.73,1.63,1.63,1.63s1.63-.73,1.63-1.63-.73-1.63-1.63-1.63-1.63,.73-1.63,1.63Zm6.4-1c0,.9,.73,1.63,1.63,1.63s1.63-.73,1.63-1.63-.73-1.63-1.63-1.63-1.63,.73-1.63,1.63Zm6.27-.75c0,.9,.73,1.63,1.63,1.63s1.63-.73,1.63-1.63-.73-1.63-1.63-1.63-1.63,.73-1.63,1.63Zm6.4-.63c0,.9,.73,1.63,1.63,1.63s1.63-.73,1.63-1.63-.73-1.63-1.63-1.63-1.63,.73-1.63,1.63Zm6.4-.25c0,.9,.73,1.63,1.63,1.63s1.63-.73,1.63-1.63-.73-1.63-1.63-1.63-1.63,.73-1.63,1.63Z"/><g><circle class="cls-5" cx="92.85" cy="455.95" r="19.44"/><circle class="cls-3" cx="92.85" cy="455.95" r="10.4"/></g><g><circle class="cls-5" cx="431.67" cy="67.05" r="29.16"/><circle class="cls-2" cx="431.67" cy="67.05" r="15.29"/></g></g></svg>